M48
; DRILL file {KiCad 9.0.3} date 2025-07-13T14:18:39+0530
; FORMAT={-:-/ absolute / metric / decimal}
; #@! TF.CreationDate,2025-07-13T14:18:39+05:30
; #@! TF.GenerationSoftware,Kicad,Pcbnew,9.0.3
; #@! TF.FileFunction,Plated,1,2,PTH
FMAT,2
METRIC
; #@! TA.AperFunction,Plated,PTH,ViaDrill
T1C0.600
; #@! TA.AperFunction,Plated,PTH,ComponentDrill
T2C0.800
; #@! TA.AperFunction,Plated,PTH,ComponentDrill
T3C1.000
; #@! TA.AperFunction,Plated,PTH,ComponentDrill
T4C1.300
%
G90
G05
T1
X13.855Y-17.945
X21.0Y-4.11
T2
X3.79Y-25.54
X3.79Y-30.42
X8.89Y-3.05
X8.89Y-5.59
X8.89Y-8.13
X8.89Y-10.67
X8.89Y-13.21
X8.89Y-15.75
X8.89Y-18.29
X8.89Y-20.83
X8.89Y-23.37
X8.89Y-25.91
X8.89Y-28.45
X8.89Y-30.99
X8.89Y-33.53
X8.89Y-36.07
X16.51Y-3.05
X16.51Y-5.59
X16.51Y-8.13
X16.51Y-10.67
X16.51Y-13.21
X16.51Y-15.75
X16.51Y-18.29
X16.51Y-20.83
X16.51Y-23.37
X16.51Y-25.91
X16.51Y-28.45
X16.51Y-30.99
X16.51Y-33.53
X16.51Y-36.07
X21.0Y-36.05
X21.0Y-38.05
T3
X2.06Y-6.58
X2.06Y-9.12
X2.06Y-11.66
X2.06Y-14.2
X4.6Y-6.58
X4.6Y-9.12
X4.6Y-11.66
X4.6Y-14.2
T4
X4.79Y-43.61
X9.79Y-43.61
X14.79Y-43.61
X25.6Y-6.0
X25.6Y-11.0
X25.6Y-22.51
X25.6Y-27.51
X25.6Y-39.01
X25.6Y-44.01
X38.1Y-6.0
X38.1Y-11.0
X38.1Y-22.51
X38.1Y-27.51
X38.1Y-39.01
X38.1Y-44.01
M30
