%TF.GenerationSoftware,KiCad,Pcbnew,9.0.3*%
%TF.CreationDate,2025-07-13T14:18:36+05:30*%
%TF.ProjectId,lighting_pcb_tht,6c696768-7469-46e6-975f-7063625f7468,rev?*%
%TF.SameCoordinates,Original*%
%TF.FileFunction,Copper,L1,Top*%
%TF.FilePolarity,Positive*%
%FSLAX46Y46*%
G04 Gerber Fmt 4.6, Leading zero omitted, Abs format (unit mm)*
G04 Created by KiCad (PCBNEW 9.0.3) date 2025-07-13 14:18:36*
%MOMM*%
%LPD*%
G01*
G04 APERTURE LIST*
G04 Aperture macros list*
%AMRoundRect*
0 Rectangle with rounded corners*
0 $1 Rounding radius*
0 $2 $3 $4 $5 $6 $7 $8 $9 X,Y pos of 4 corners*
0 Add a 4 corners polygon primitive as box body*
4,1,4,$2,$3,$4,$5,$6,$7,$8,$9,$2,$3,0*
0 Add four circle primitives for the rounded corners*
1,1,$1+$1,$2,$3*
1,1,$1+$1,$4,$5*
1,1,$1+$1,$6,$7*
1,1,$1+$1,$8,$9*
0 Add four rect primitives between the rounded corners*
20,1,$1+$1,$2,$3,$4,$5,0*
20,1,$1+$1,$4,$5,$6,$7,0*
20,1,$1+$1,$6,$7,$8,$9,0*
20,1,$1+$1,$8,$9,$2,$3,0*%
G04 Aperture macros list end*
%TA.AperFunction,SMDPad,CuDef*%
%ADD10RoundRect,0.250000X-0.650000X0.412500X-0.650000X-0.412500X0.650000X-0.412500X0.650000X0.412500X0*%
%TD*%
%TA.AperFunction,SMDPad,CuDef*%
%ADD11RoundRect,0.250001X-0.624999X0.462499X-0.624999X-0.462499X0.624999X-0.462499X0.624999X0.462499X0*%
%TD*%
%TA.AperFunction,SMDPad,CuDef*%
%ADD12RoundRect,0.250000X-0.625000X0.400000X-0.625000X-0.400000X0.625000X-0.400000X0.625000X0.400000X0*%
%TD*%
%TA.AperFunction,ComponentPad*%
%ADD13O,3.200000X1.900000*%
%TD*%
%TA.AperFunction,ComponentPad*%
%ADD14R,1.600000X1.600000*%
%TD*%
%TA.AperFunction,ComponentPad*%
%ADD15C,1.600000*%
%TD*%
%TA.AperFunction,ComponentPad*%
%ADD16R,1.700000X1.700000*%
%TD*%
%TA.AperFunction,ComponentPad*%
%ADD17C,1.700000*%
%TD*%
%TA.AperFunction,ComponentPad*%
%ADD18RoundRect,0.250001X-1.149999X-1.149999X1.149999X-1.149999X1.149999X1.149999X-1.149999X1.149999X0*%
%TD*%
%TA.AperFunction,ComponentPad*%
%ADD19C,2.800000*%
%TD*%
%TA.AperFunction,ComponentPad*%
%ADD20RoundRect,0.250000X-0.550000X-0.550000X0.550000X-0.550000X0.550000X0.550000X-0.550000X0.550000X0*%
%TD*%
%TA.AperFunction,SMDPad,CuDef*%
%ADD21RoundRect,0.250000X0.412500X0.650000X-0.412500X0.650000X-0.412500X-0.650000X0.412500X-0.650000X0*%
%TD*%
%TA.AperFunction,ComponentPad*%
%ADD22C,1.500000*%
%TD*%
%TA.AperFunction,ViaPad*%
%ADD23C,1.000000*%
%TD*%
%TA.AperFunction,Conductor*%
%ADD24C,0.500000*%
%TD*%
%TA.AperFunction,Conductor*%
%ADD25C,0.400000*%
%TD*%
G04 APERTURE END LIST*
D10*
%TO.P,C1,2*%
%TO.N,GND*%
X21000000Y-25462500D03*
%TO.P,C1,1*%
%TO.N,+5V*%
X21000000Y-22337500D03*
%TD*%
D11*
%TO.P,D1,2,A*%
%TO.N,GND*%
X21000000Y-18587500D03*
%TO.P,D1,1,K*%
%TO.N,Net-(D1-K)*%
X21000000Y-15612500D03*
%TD*%
D12*
%TO.P,R3,2*%
%TO.N,Net-(D1-K)*%
X21000000Y-11890000D03*
%TO.P,R3,1*%
%TO.N,Net-(U1-PD3)*%
X21000000Y-8790000D03*
%TD*%
%TO.P,R1,1*%
%TO.N,Net-(J2-Pin_7)*%
X21000000Y-2460000D03*
%TO.P,R1,2*%
%TO.N,+5V*%
X21000000Y-5560000D03*
%TD*%
D13*
%TO.P,SW3,1,1*%
%TO.N,GND*%
X25600000Y-39010000D03*
X38100000Y-39010000D03*
%TO.P,SW3,2,2*%
%TO.N,Net-(U1-PD7)*%
X25600000Y-44010000D03*
X38100000Y-44010000D03*
%TD*%
%TO.P,SW2,1,1*%
%TO.N,GND*%
X25600000Y-22510000D03*
X38100000Y-22510000D03*
%TO.P,SW2,2,2*%
%TO.N,Net-(U1-PD6)*%
X25600000Y-27510000D03*
X38100000Y-27510000D03*
%TD*%
D14*
%TO.P,C3,1*%
%TO.N,+5V*%
X21000000Y-36050000D03*
D15*
%TO.P,C3,2*%
%TO.N,GND*%
X21000000Y-38050000D03*
%TD*%
D16*
%TO.P,J2,1,Pin_1*%
%TO.N,Net-(J2-Pin_1)*%
X4600000Y-14200000D03*
D17*
%TO.P,J2,2,Pin_2*%
%TO.N,Net-(J2-Pin_2)*%
X2060000Y-14200000D03*
%TO.P,J2,3,Pin_3*%
%TO.N,Net-(J2-Pin_3)*%
X4600000Y-11660000D03*
%TO.P,J2,4,Pin_4*%
%TO.N,Net-(J2-Pin_4)*%
X2060000Y-11660000D03*
%TO.P,J2,5,Pin_5*%
%TO.N,Net-(J2-Pin_5)*%
X4600000Y-9120000D03*
%TO.P,J2,6,Pin_6*%
%TO.N,GND*%
X2060000Y-9120000D03*
%TO.P,J2,7,Pin_7*%
%TO.N,Net-(J2-Pin_7)*%
X4600000Y-6580000D03*
%TO.P,J2,8,Pin_8*%
%TO.N,+5V*%
X2060000Y-6580000D03*
%TD*%
D18*
%TO.P,J1,1,Pin_1*%
%TO.N,GND*%
X4790000Y-43610000D03*
D19*
%TO.P,J1,2,Pin_2*%
%TO.N,Net-(J1-Pin_2)*%
X9790000Y-43610000D03*
%TO.P,J1,3,Pin_3*%
%TO.N,+5V*%
X14790000Y-43610000D03*
%TD*%
D20*
%TO.P,U1,1,~{RESET}/PC6*%
%TO.N,Net-(J2-Pin_7)*%
X8890000Y-3050000D03*
D15*
%TO.P,U1,2,PD0*%
%TO.N,Net-(J2-Pin_1)*%
X8890000Y-5590000D03*
%TO.P,U1,3,PD1*%
%TO.N,Net-(J2-Pin_3)*%
X8890000Y-8130000D03*
%TO.P,U1,4,PD2*%
%TO.N,unconnected-(U1-PD2-Pad4)*%
X8890000Y-10670000D03*
%TO.P,U1,5,PD3*%
%TO.N,Net-(U1-PD3)*%
X8890000Y-13210000D03*
%TO.P,U1,6,PD4*%
%TO.N,unconnected-(U1-PD4-Pad6)*%
X8890000Y-15750000D03*
%TO.P,U1,7,VCC*%
%TO.N,+5V*%
X8890000Y-18290000D03*
%TO.P,U1,8,GND*%
%TO.N,GND*%
X8890000Y-20830000D03*
%TO.P,U1,9,XTAL1/PB6*%
%TO.N,Net-(U1-XTAL1{slash}PB6)*%
X8890000Y-23370000D03*
%TO.P,U1,10,XTAL2/PB7*%
%TO.N,Net-(U1-XTAL2{slash}PB7)*%
X8890000Y-25910000D03*
%TO.P,U1,11,PD5*%
%TO.N,Net-(U1-PD5)*%
X8890000Y-28450000D03*
%TO.P,U1,12,PD6*%
%TO.N,Net-(U1-PD6)*%
X8890000Y-30990000D03*
%TO.P,U1,13,PD7*%
%TO.N,Net-(U1-PD7)*%
X8890000Y-33530000D03*
%TO.P,U1,14,PB0*%
%TO.N,unconnected-(U1-PB0-Pad14)*%
X8890000Y-36070000D03*
%TO.P,U1,15,PB1*%
%TO.N,Net-(U1-PB1)*%
X16510000Y-36070000D03*
%TO.P,U1,16,PB2*%
%TO.N,unconnected-(U1-PB2-Pad16)*%
X16510000Y-33530000D03*
%TO.P,U1,17,PB3*%
%TO.N,Net-(J2-Pin_4)*%
X16510000Y-30990000D03*
%TO.P,U1,18,PB4*%
%TO.N,Net-(J2-Pin_2)*%
X16510000Y-28450000D03*
%TO.P,U1,19,PB5*%
%TO.N,Net-(J2-Pin_5)*%
X16510000Y-25910000D03*
%TO.P,U1,20,AVCC*%
%TO.N,+5V*%
X16510000Y-23370000D03*
%TO.P,U1,21,AREF*%
%TO.N,Net-(U1-AREF)*%
X16510000Y-20830000D03*
%TO.P,U1,22,GND*%
%TO.N,GND*%
X16510000Y-18290000D03*
%TO.P,U1,23,PC0*%
X16510000Y-15750000D03*
%TO.P,U1,24,PC1*%
%TO.N,unconnected-(U1-PC1-Pad24)*%
X16510000Y-13210000D03*
%TO.P,U1,25,PC2*%
%TO.N,GND*%
X16510000Y-10670000D03*
%TO.P,U1,26,PC3*%
%TO.N,unconnected-(U1-PC3-Pad26)*%
X16510000Y-8130000D03*
%TO.P,U1,27,PC4*%
%TO.N,unconnected-(U1-PC4-Pad27)*%
X16510000Y-5590000D03*
%TO.P,U1,28,PC5*%
%TO.N,unconnected-(U1-PC5-Pad28)*%
X16510000Y-3050000D03*
%TD*%
D12*
%TO.P,R2,1*%
%TO.N,Net-(U1-PB1)*%
X21000000Y-41660000D03*
%TO.P,R2,2*%
%TO.N,Net-(J1-Pin_2)*%
X21000000Y-44760000D03*
%TD*%
D21*
%TO.P,C2,1*%
%TO.N,Net-(U1-XTAL1{slash}PB6)*%
X5282500Y-20510000D03*
%TO.P,C2,2*%
%TO.N,GND*%
X2157500Y-20510000D03*
%TD*%
D10*
%TO.P,C5,1*%
%TO.N,Net-(U1-AREF)*%
X21000000Y-29387500D03*
%TO.P,C5,2*%
%TO.N,GND*%
X21000000Y-32512500D03*
%TD*%
D21*
%TO.P,C4,1*%
%TO.N,Net-(U1-XTAL2{slash}PB7)*%
X5110000Y-35400000D03*
%TO.P,C4,2*%
%TO.N,GND*%
X1985000Y-35400000D03*
%TD*%
D13*
%TO.P,SW1,1,1*%
%TO.N,GND*%
X25600000Y-6000000D03*
X38100000Y-6000000D03*
%TO.P,SW1,2,2*%
%TO.N,Net-(U1-PD5)*%
X25600000Y-11000000D03*
X38100000Y-11000000D03*
%TD*%
D22*
%TO.P,Y1,1,1*%
%TO.N,Net-(U1-XTAL1{slash}PB6)*%
X3790000Y-25540000D03*
%TO.P,Y1,2,2*%
%TO.N,Net-(U1-XTAL2{slash}PB7)*%
X3790000Y-30420000D03*
%TD*%
D23*
%TO.N,+5V*%
X21000000Y-4110000D03*
%TO.N,Net-(J2-Pin_5)*%
X13855000Y-17945000D03*
%TD*%
D24*
%TO.N,Net-(U1-PB1)*%
X16510000Y-37000000D02*
X16510000Y-37170000D01*
X16510000Y-37170000D02*
X21000000Y-41660000D01*
%TO.N,Net-(J1-Pin_2)*%
X19940000Y-45820000D02*
X21000000Y-44760000D01*
X12000000Y-45820000D02*
X19940000Y-45820000D01*
X9790000Y-43610000D02*
X12000000Y-45820000D01*
%TO.N,Net-(U1-AREF)*%
X18300000Y-27180000D02*
X18792500Y-27180000D01*
X18792500Y-27180000D02*
X21000000Y-29387500D01*
%TO.N,+5V*%
X18822500Y-22337500D02*
X21000000Y-22337500D01*
X18430000Y-22730000D02*
X18822500Y-22337500D01*
X18430000Y-22730000D02*
X17790000Y-23370000D01*
%TO.N,Net-(J2-Pin_7)*%
X19460000Y-2460000D02*
X21000000Y-2460000D01*
%TO.N,Net-(U1-PD3)*%
X19110000Y-8790000D02*
X21000000Y-8790000D01*
%TO.N,Net-(D1-K)*%
X21000000Y-15612500D02*
X21000000Y-11890000D01*
%TO.N,Net-(J2-Pin_7)*%
X12070000Y-3050000D02*
X8890000Y-3050000D01*
X13420000Y-1700000D02*
X12070000Y-3050000D01*
X18700000Y-1700000D02*
X13420000Y-1700000D01*
X19460000Y-2460000D02*
X18700000Y-1700000D01*
%TO.N,Net-(U1-PB1)*%
X20880000Y-41630000D02*
X20880000Y-41660000D01*
%TO.N,+5V*%
X18620000Y-22540000D02*
X18430000Y-22730000D01*
%TO.N,Net-(U1-PD3)*%
X18500000Y-9400000D02*
X19110000Y-8790000D01*
X15800000Y-9400000D02*
X18500000Y-9400000D01*
X11990000Y-13210000D02*
X15800000Y-9400000D01*
X8890000Y-13210000D02*
X11990000Y-13210000D01*
%TO.N,Net-(J2-Pin_7)*%
X7600000Y-3050000D02*
X4600000Y-6050000D01*
X8890000Y-3050000D02*
X7600000Y-3050000D01*
X4600000Y-6050000D02*
X4600000Y-6580000D01*
%TO.N,+5V*%
X21000000Y-5560000D02*
X21000000Y-4110000D01*
X17790000Y-23370000D02*
X16510000Y-23370000D01*
%TO.N,Net-(U1-XTAL2{slash}PB7)*%
X5270000Y-29530000D02*
X8890000Y-25910000D01*
X4680000Y-29530000D02*
X5270000Y-29530000D01*
X3790000Y-30420000D02*
X4680000Y-29530000D01*
%TO.N,Net-(J2-Pin_2)*%
X13220000Y-20120000D02*
X10120000Y-17020000D01*
X10120000Y-17020000D02*
X3500000Y-17020000D01*
X13220000Y-26270000D02*
X13220000Y-20120000D01*
X2060000Y-15580000D02*
X2060000Y-14200000D01*
X15400000Y-28450000D02*
X13220000Y-26270000D01*
X16510000Y-28450000D02*
X15400000Y-28450000D01*
X3500000Y-17020000D02*
X2060000Y-15580000D01*
%TO.N,Net-(U1-XTAL1{slash}PB6)*%
X5282500Y-21292500D02*
X5282500Y-20510000D01*
X7390000Y-23370000D02*
X7360000Y-23370000D01*
X3790000Y-25540000D02*
X5220000Y-25540000D01*
X5220000Y-25540000D02*
X7390000Y-23370000D01*
X7360000Y-23370000D02*
X5282500Y-21292500D01*
X7390000Y-23370000D02*
X8890000Y-23370000D01*
%TO.N,Net-(U1-XTAL2{slash}PB7)*%
X3790000Y-30420000D02*
X3790000Y-32010000D01*
X3790000Y-32010000D02*
X5110000Y-33330000D01*
X5110000Y-33330000D02*
X5110000Y-35400000D01*
%TO.N,Net-(U1-AREF)*%
X15390000Y-27180000D02*
X18300000Y-27180000D01*
X16510000Y-20830000D02*
X15200000Y-20830000D01*
X14470000Y-26260000D02*
X15390000Y-27180000D01*
X14470000Y-21560000D02*
X14470000Y-26260000D01*
X15200000Y-20830000D02*
X14470000Y-21560000D01*
%TO.N,Net-(J2-Pin_4)*%
X751000Y-12969000D02*
X751000Y-15951000D01*
X5980000Y-17990000D02*
X7531000Y-19541000D01*
X11970000Y-21311000D02*
X11970000Y-26450000D01*
X11970000Y-26450000D02*
X16510000Y-30990000D01*
X751000Y-15951000D02*
X2790000Y-17990000D01*
X2060000Y-11660000D02*
X751000Y-12969000D01*
X2790000Y-17990000D02*
X5980000Y-17990000D01*
X7531000Y-19541000D02*
X10200000Y-19541000D01*
X10200000Y-19541000D02*
X11970000Y-21311000D01*
D25*
%TO.N,Net-(J2-Pin_5)*%
X3330000Y-12293184D02*
X3330000Y-10390000D01*
X13855000Y-17945000D02*
X10388500Y-14478500D01*
X10388500Y-14478500D02*
X7983483Y-14478500D01*
X6434983Y-12930000D02*
X3966816Y-12930000D01*
X3330000Y-10390000D02*
X4600000Y-9120000D01*
X3966816Y-12930000D02*
X3330000Y-12293184D01*
X7983483Y-14478500D02*
X6434983Y-12930000D01*
D24*
%TO.N,Net-(J2-Pin_3)*%
X5030000Y-11660000D02*
X8560000Y-8130000D01*
X4600000Y-11660000D02*
X5030000Y-11660000D01*
X8560000Y-8130000D02*
X8890000Y-8130000D01*
%TO.N,Net-(U1-PB1)*%
X16510000Y-36070000D02*
X16510000Y-37000000D01*
%TD*%
%TA.AperFunction,Conductor*%
%TO.N,GND*%
G36*
X40442539Y-520185D02*
G01*
X40488294Y-572989D01*
X40499500Y-624500D01*
X40499500Y-49375500D01*
X40479815Y-49442539D01*
X40427011Y-49488294D01*
X40375500Y-49499500D01*
X624500Y-49499500D01*
X557461Y-49479815D01*
X511706Y-49427011D01*
X500500Y-49375500D01*
X500500Y-47671577D01*
X19749500Y-47671577D01*
X19749500Y-47868422D01*
X19780290Y-48062826D01*
X19841117Y-48250029D01*
X19930476Y-48425405D01*
X20046172Y-48584646D01*
X20185354Y-48723828D01*
X20344595Y-48839524D01*
X20427455Y-48881743D01*
X20519970Y-48928882D01*
X20519972Y-48928882D01*
X20519975Y-48928884D01*
X20620317Y-48961487D01*
X20707173Y-48989709D01*
X20901578Y-49020500D01*
X20901583Y-49020500D01*
X21098422Y-49020500D01*
X21292826Y-48989709D01*
X21480025Y-48928884D01*
X21655405Y-48839524D01*
X21814646Y-48723828D01*
X21953828Y-48584646D01*
X22069524Y-48425405D01*
X22158884Y-48250025D01*
X22219709Y-48062826D01*
X22250500Y-47868422D01*
X22250500Y-47671577D01*
X22219709Y-47477173D01*
X22158882Y-47289970D01*
X22069523Y-47114594D01*
X21953828Y-46955354D01*
X21814646Y-46816172D01*
X21655405Y-46700476D01*
X21480029Y-46611117D01*
X21292826Y-46550290D01*
X21098422Y-46519500D01*
X21098417Y-46519500D01*
X20901583Y-46519500D01*
X20901578Y-46519500D01*
X20707173Y-46550290D01*
X20519970Y-46611117D01*
X20344594Y-46700476D01*
X20253741Y-46766485D01*
X20185354Y-46816172D01*
X20185352Y-46816174D01*
X20185351Y-46816174D01*
X20046174Y-46955351D01*
X20046174Y-46955352D01*
X20046172Y-46955354D01*
X19996485Y-47023741D01*
X19930476Y-47114594D01*
X19841117Y-47289970D01*
X19780290Y-47477173D01*
X19749500Y-47671577D01*
X500500Y-47671577D01*
X500500Y-42410014D01*
X2890000Y-42410014D01*
X2890000Y-43260000D01*
X4242115Y-43260000D01*
X4213978Y-43302110D01*
X4164979Y-43420402D01*
X4140000Y-43545981D01*
X4140000Y-43674019D01*
X4164979Y-43799598D01*
X4213978Y-43917890D01*
X4242115Y-43960000D01*
X2890000Y-43960000D01*
X2890000Y-44809985D01*
X2900493Y-44912689D01*
X2900494Y-44912696D01*
X2955641Y-45079118D01*
X2955643Y-45079123D01*
X3047684Y-45228344D01*
X3171655Y-45352315D01*
X3320876Y-45444356D01*
X3320881Y-45444358D01*
X3487303Y-45499505D01*
X3487310Y-45499506D01*
X3590014Y-45509999D01*
X3590027Y-45510000D01*
X4440000Y-45510000D01*
X4440000Y-44157885D01*
X4482110Y-44186022D01*
X4600402Y-44235021D01*
X4725981Y-44260000D01*
X4854019Y-44260000D01*
X4979598Y-44235021D01*
X5097890Y-44186022D01*
X5140000Y-44157885D01*
X5140000Y-45510000D01*
X5989973Y-45510000D01*
X5989985Y-45509999D01*
X6092689Y-45499506D01*
X6092696Y-45499505D01*
X6259118Y-45444358D01*
X6259123Y-45444356D01*
X6408344Y-45352315D01*
X6532315Y-45228344D01*
X6624356Y-45079123D01*
X6624358Y-45079118D01*
X6679505Y-44912696D01*
X6679506Y-44912689D01*
X6689999Y-44809985D01*
X6690000Y-44809972D01*
X6690000Y-43960000D01*
X5337885Y-43960000D01*
X5366022Y-43917890D01*
X5415021Y-43799598D01*
X5440000Y-43674019D01*
X5440000Y-43545981D01*
X5426895Y-43480097D01*
X8139500Y-43480097D01*
X8139500Y-43739902D01*
X8180140Y-43996493D01*
X8260422Y-44243576D01*
X8323944Y-44368242D01*
X8378366Y-44475051D01*
X8531069Y-44685229D01*
X8714771Y-44868931D01*
X8924949Y-45021634D01*
X9037777Y-45079123D01*
X9156423Y-45139577D01*
X9156425Y-45139577D01*
X9156428Y-45139579D01*
X9403507Y-45219860D01*
X9535706Y-45240797D01*
X9660098Y-45260500D01*
X9660103Y-45260500D01*
X9919902Y-45260500D01*
X10033298Y-45242539D01*
X10176493Y-45219860D01*
X10423572Y-45139579D01*
X10467970Y-45116956D01*
X10536637Y-45104060D01*
X10601378Y-45130335D01*
X10611946Y-45139760D01*
X11692686Y-46220500D01*
X11806814Y-46286392D01*
X11934108Y-46320500D01*
X11934110Y-46320500D01*
X20005890Y-46320500D01*
X20005892Y-46320500D01*
X20133186Y-46286392D01*
X20247314Y-46220500D01*
X20770995Y-45696817D01*
X20832318Y-45663333D01*
X20858676Y-45660499D01*
X21672871Y-45660499D01*
X21672872Y-45660499D01*
X21732483Y-45654091D01*
X21867331Y-45603796D01*
X21982546Y-45517546D01*
X22068796Y-45402331D01*
X22119091Y-45267483D01*
X22125500Y-45207873D01*
X22125499Y-44312128D01*
X22119091Y-44252517D01*
X22115756Y-44243576D01*
X22068797Y-44117671D01*
X22068793Y-44117664D01*
X21982547Y-44002455D01*
X21982544Y-44002452D01*
X21867335Y-43916206D01*
X21867328Y-43916202D01*
X21865481Y-43915513D01*
X23749500Y-43915513D01*
X23749500Y-44104486D01*
X23779059Y-44291118D01*
X23837454Y-44470836D01*
X23923240Y-44639199D01*
X24034310Y-44792073D01*
X24167927Y-44925690D01*
X24320801Y-45036760D01*
X24397924Y-45076056D01*
X24489163Y-45122545D01*
X24489165Y-45122545D01*
X24489168Y-45122547D01*
X24541581Y-45139577D01*
X24668881Y-45180940D01*
X24855514Y-45210500D01*
X24855519Y-45210500D01*
X26344486Y-45210500D01*
X26531118Y-45180940D01*
X26541136Y-45177685D01*
X26710832Y-45122547D01*
X26879199Y-45036760D01*
X27032073Y-44925690D01*
X27165690Y-44792073D01*
X27276760Y-44639199D01*
X27362547Y-44470832D01*
X27420940Y-44291118D01*
X27428470Y-44243575D01*
X27450500Y-44104486D01*
X27450500Y-43915513D01*
X36249500Y-43915513D01*
X36249500Y-44104486D01*
X36279059Y-44291118D01*
X36337454Y-44470836D01*
X36423240Y-44639199D01*
X36534310Y-44792073D01*
X36667927Y-44925690D01*
X36820801Y-45036760D01*
X36897924Y-45076056D01*
X36989163Y-45122545D01*
X36989165Y-45122545D01*
X36989168Y-45122547D01*
X37041581Y-45139577D01*
X37168881Y-45180940D01*
X37355514Y-45210500D01*
X37355519Y-45210500D01*
X38844486Y-45210500D01*
X39031118Y-45180940D01*
X39041136Y-45177685D01*
X39210832Y-45122547D01*
X39379199Y-45036760D01*
X39532073Y-44925690D01*
X39665690Y-44792073D01*
X39776760Y-44639199D01*
X39862547Y-44470832D01*
X39920940Y-44291118D01*
X39928470Y-44243575D01*
X39950500Y-44104486D01*
X39950500Y-43915513D01*
X39920940Y-43728881D01*
X39862545Y-43549163D01*
X39817290Y-43460347D01*
X39776760Y-43380801D01*
X39665690Y-43227927D01*
X39532073Y-43094310D01*
X39379199Y-42983240D01*
X39333588Y-42960000D01*
X39210836Y-42897454D01*
X39031118Y-42839059D01*
X38844486Y-42809500D01*
X38844481Y-42809500D01*
X37355519Y-42809500D01*
X37355514Y-42809500D01*
X37168881Y-42839059D01*
X36989163Y-42897454D01*
X36820800Y-42983240D01*
X36818407Y-42984979D01*
X36667927Y-43094310D01*
X36667925Y-43094312D01*
X36667924Y-43094312D01*
X36534312Y-43227924D01*
X36534312Y-43227925D01*
X36534310Y-43227927D01*
X36486610Y-43293579D01*
X36423240Y-43380800D01*
X36337454Y-43549163D01*
X36279059Y-43728881D01*
X36249500Y-43915513D01*
X27450500Y-43915513D01*
X27420940Y-43728881D01*
X27362545Y-43549163D01*
X27317290Y-43460347D01*
X27276760Y-43380801D01*
X27165690Y-43227927D01*
X27032073Y-43094310D01*
X26879199Y-42983240D01*
X26833588Y-42960000D01*
X26710836Y-42897454D01*
X26531118Y-42839059D01*
X26344486Y-42809500D01*
X26344481Y-42809500D01*
X24855519Y-42809500D01*
X24855514Y-42809500D01*
X24668881Y-42839059D01*
X24489163Y-42897454D01*
X24320800Y-42983240D01*
X24318407Y-42984979D01*
X24167927Y-43094310D01*
X24167925Y-43094312D01*
X24167924Y-43094312D01*
X24034312Y-43227924D01*
X24034312Y-43227925D01*
X24034310Y-43227927D01*
X23986610Y-43293579D01*
X23923240Y-43380800D01*
X23837454Y-43549163D01*
X23779059Y-43728881D01*
X23749500Y-43915513D01*
X21865481Y-43915513D01*
X21732482Y-43865908D01*
X21732483Y-43865908D01*
X21672883Y-43859501D01*
X21672881Y-43859500D01*
X21672873Y-43859500D01*
X21672864Y-43859500D01*
X20327129Y-43859500D01*
X20327123Y-43859501D01*
X20267516Y-43865908D01*
X20132671Y-43916202D01*
X20132664Y-43916206D01*
X20017455Y-44002452D01*
X20017452Y-44002455D01*
X19931206Y-44117664D01*
X19931202Y-44117671D01*
X19880908Y-44252517D01*
X19874501Y-44312116D01*
X19874501Y-44312123D01*
X19874500Y-44312135D01*
X19874500Y-45126322D01*
X19865856Y-45155758D01*
X19859333Y-45185748D01*
X19855577Y-45190765D01*
X19854815Y-45193361D01*
X19838182Y-45214003D01*
X19769005Y-45283181D01*
X19707682Y-45316666D01*
X19681323Y-45319500D01*
X15586954Y-45319500D01*
X15519915Y-45299815D01*
X15474160Y-45247011D01*
X15464216Y-45177853D01*
X15493241Y-45114297D01*
X15530659Y-45085015D01*
X15655051Y-45021634D01*
X15865229Y-44868931D01*
X16048931Y-44685229D01*
X16201634Y-44475051D01*
X16319579Y-44243572D01*
X16399860Y-43996493D01*
X16422539Y-43853298D01*
X16440500Y-43739902D01*
X16440500Y-43480097D01*
X16412309Y-43302110D01*
X16399860Y-43223507D01*
X16319579Y-42976428D01*
X16319577Y-42976425D01*
X16319577Y-42976423D01*
X16249586Y-42839060D01*
X16201634Y-42744949D01*
X16048931Y-42534771D01*
X15865229Y-42351069D01*
X15655051Y-42198366D01*
X15542231Y-42140881D01*
X15423576Y-42080422D01*
X15176493Y-42000140D01*
X14919902Y-41959500D01*
X14919897Y-41959500D01*
X14660103Y-41959500D01*
X14660098Y-41959500D01*
X14403506Y-42000140D01*
X14156423Y-42080422D01*
X13924945Y-42198368D01*
X13714774Y-42351066D01*
X13714768Y-42351071D01*
X13531071Y-42534768D01*
X13531066Y-42534774D01*
X13378368Y-42744945D01*
X13260422Y-42976423D01*
X13180140Y-43223506D01*
X13139500Y-43480097D01*
X13139500Y-43739902D01*
X13180140Y-43996493D01*
X13260422Y-44243576D01*
X13323944Y-44368242D01*
X13378366Y-44475051D01*
X13531069Y-44685229D01*
X13714771Y-44868931D01*
X13924949Y-45021634D01*
X14037777Y-45079123D01*
X14049341Y-45085015D01*
X14100137Y-45132990D01*
X14116932Y-45200811D01*
X14094395Y-45266946D01*
X14039679Y-45310397D01*
X13993046Y-45319500D01*
X12258676Y-45319500D01*
X12191637Y-45299815D01*
X12170995Y-45283181D01*
X11319760Y-44431946D01*
X11286275Y-44370623D01*
X11291259Y-44300931D01*
X11296951Y-44287981D01*
X11319579Y-44243572D01*
X11399860Y-43996493D01*
X11422539Y-43853298D01*
X11440500Y-43739902D01*
X11440500Y-43480097D01*
X11412309Y-43302110D01*
X11399860Y-43223507D01*
X11319579Y-42976428D01*
X11319577Y-42976425D01*
X11319577Y-42976423D01*
X11249586Y-42839060D01*
X11201634Y-42744949D01*
X11048931Y-42534771D01*
X10865229Y-42351069D01*
X10655051Y-42198366D01*
X10542231Y-42140881D01*
X10423576Y-42080422D01*
X10176493Y-42000140D01*
X9919902Y-41959500D01*
X9919897Y-41959500D01*
X9660103Y-41959500D01*
X9660098Y-41959500D01*
X9403506Y-42000140D01*
X9156423Y-42080422D01*
X8924945Y-42198368D01*
X8714774Y-42351066D01*
X8714768Y-42351071D01*
X8531071Y-42534768D01*
X8531066Y-42534774D01*
X8378368Y-42744945D01*
X8260422Y-42976423D01*
X8180140Y-43223506D01*
X8139500Y-43480097D01*
X5426895Y-43480097D01*
X5415021Y-43420402D01*
X5366022Y-43302110D01*
X5337885Y-43260000D01*
X6690000Y-43260000D01*
X6690000Y-42410027D01*
X6689999Y-42410014D01*
X6679506Y-42307310D01*
X6679505Y-42307303D01*
X6624358Y-42140881D01*
X6624356Y-42140876D01*
X6532315Y-41991655D01*
X6408344Y-41867684D01*
X6259123Y-41775643D01*
X6259118Y-41775641D01*
X6092696Y-41720494D01*
X6092689Y-41720493D01*
X5989985Y-41710000D01*
X5140000Y-41710000D01*
X5140000Y-43062114D01*
X5097890Y-43033978D01*
X4979598Y-42984979D01*
X4854019Y-42960000D01*
X4725981Y-42960000D01*
X4600402Y-42984979D01*
X4482110Y-43033978D01*
X4440000Y-43062114D01*
X4440000Y-41710000D01*
X3590014Y-41710000D01*
X3487310Y-41720493D01*
X3487303Y-41720494D01*
X3320881Y-41775641D01*
X3320876Y-41775643D01*
X3171655Y-41867684D01*
X3047684Y-41991655D01*
X2955643Y-42140876D01*
X2955641Y-42140881D01*
X2900494Y-42307303D01*
X2900493Y-42307310D01*
X2890000Y-42410014D01*
X500500Y-42410014D01*
X500500Y-36099986D01*
X822501Y-36099986D01*
X832994Y-36202697D01*
X888141Y-36369119D01*
X888143Y-36369124D01*
X980184Y-36518345D01*
X1104154Y-36642315D01*
X1253375Y-36734356D01*
X1253380Y-36734358D01*
X1419802Y-36789505D01*
X1419809Y-36789506D01*
X1522519Y-36799999D01*
X1634999Y-36799999D01*
X2335000Y-36799999D01*
X2447472Y-36799999D01*
X2447486Y-36799998D01*
X2550197Y-36789505D01*
X2716619Y-36734358D01*
X2716624Y-36734356D01*
X2865845Y-36642315D01*
X2989815Y-36518345D01*
X3081856Y-36369124D01*
X3081858Y-36369119D01*
X3137005Y-36202697D01*
X3137006Y-36202690D01*
X3147499Y-36099986D01*
X3147500Y-36099973D01*
X3147500Y-35750000D01*
X2335000Y-35750000D01*
X2335000Y-36799999D01*
X1634999Y-36799999D01*
X1635000Y-36799998D01*
X1635000Y-35750000D01*
X822501Y-35750000D01*
X822501Y-36099986D01*
X500500Y-36099986D01*
X500500Y-34700013D01*
X822500Y-34700013D01*
X822500Y-35050000D01*
X1635000Y-35050000D01*
X2335000Y-35050000D01*
X3147499Y-35050000D01*
X3147499Y-34700028D01*
X3147498Y-34700013D01*
X3137005Y-34597302D01*
X3081858Y-34430880D01*
X3081856Y-34430875D01*
X2989815Y-34281654D01*
X2865845Y-34157684D01*
X2716624Y-34065643D01*
X2716619Y-34065641D01*
X2550197Y-34010494D01*
X2550190Y-34010493D01*
X2447486Y-34000000D01*
X2335000Y-34000000D01*
X2335000Y-35050000D01*
X1635000Y-35050000D01*
X1635000Y-34000000D01*
X1522527Y-34000000D01*
X1522512Y-34000001D01*
X1419802Y-34010494D01*
X1253380Y-34065641D01*
X1253375Y-34065643D01*
X1104154Y-34157684D01*
X980184Y-34281654D01*
X888143Y-34430875D01*
X888141Y-34430880D01*
X832994Y-34597302D01*
X832993Y-34597309D01*
X822500Y-34700013D01*
X500500Y-34700013D01*
X500500Y-30518543D01*
X2789499Y-30518543D01*
X2827947Y-30711829D01*
X2827950Y-30711839D01*
X2903364Y-30893907D01*
X2903371Y-30893920D01*
X3012860Y-31057781D01*
X3012863Y-31057785D01*
X3152213Y-31197135D01*
X3152216Y-31197137D01*
X3152218Y-31197139D01*
X3234391Y-31252045D01*
X3279195Y-31305655D01*
X3289500Y-31355146D01*
X3289500Y-31944108D01*
X3289500Y-32075892D01*
X3306554Y-32139539D01*
X3323608Y-32203187D01*
X3356554Y-32260250D01*
X3389500Y-32317314D01*
X3389502Y-32317316D01*
X4573181Y-33500995D01*
X4606666Y-33562318D01*
X4609500Y-33588676D01*
X4609500Y-34162547D01*
X4589815Y-34229586D01*
X4537011Y-34275341D01*
X4528833Y-34278729D01*
X4455171Y-34306202D01*
X4455164Y-34306206D01*
X4339955Y-34392452D01*
X4339952Y-34392455D01*
X4253706Y-34507664D01*
X4253702Y-34507671D01*
X4203408Y-34642517D01*
X4197001Y-34702116D01*
X4197001Y-34702123D01*
X4197000Y-34702135D01*
X4197000Y-36097870D01*
X4197001Y-36097876D01*
X4203408Y-36157483D01*
X4253702Y-36292328D01*
X4253706Y-36292335D01*
X4339952Y-36407544D01*
X4339955Y-36407547D01*
X4455164Y-36493793D01*
X4455171Y-36493797D01*
X4590017Y-36544091D01*
X4590016Y-36544091D01*
X4596944Y-36544835D01*
X4649627Y-36550500D01*
X5570372Y-36550499D01*
X5629983Y-36544091D01*
X5764831Y-36493796D01*
X5880046Y-36407546D01*
X5966296Y-36292331D01*
X6016591Y-36157483D01*
X6023000Y-36097873D01*
X6023000Y-35966530D01*
X7839500Y-35966530D01*
X7839500Y-36173469D01*
X7879868Y-36376412D01*
X7879870Y-36376420D01*
X7959058Y-36567596D01*
X8074024Y-36739657D01*
X8220342Y-36885975D01*
X8220345Y-36885977D01*
X8392402Y-37000941D01*
X8583580Y-37080130D01*
X8784951Y-37120185D01*
X8786530Y-37120499D01*
X8786534Y-37120500D01*
X8786535Y-37120500D01*
X8993466Y-37120500D01*
X8993467Y-37120499D01*
X9196420Y-37080130D01*
X9387598Y-37000941D01*
X9559655Y-36885977D01*
X9705977Y-36739655D01*
X9820941Y-36567598D01*
X9900130Y-36376420D01*
X9940500Y-36173465D01*
X9940500Y-35966535D01*
X9940499Y-35966530D01*
X15459500Y-35966530D01*
X15459500Y-36173469D01*
X15499868Y-36376412D01*
X15499870Y-36376420D01*
X15579058Y-36567596D01*
X15694024Y-36739657D01*
X15840340Y-36885973D01*
X15840343Y-36885975D01*
X15840345Y-36885977D01*
X15951549Y-36960280D01*
X15954390Y-36962178D01*
X15999196Y-37015791D01*
X16009500Y-37065281D01*
X16009500Y-37235891D01*
X16043608Y-37363187D01*
X16071418Y-37411354D01*
X16109500Y-37477314D01*
X16109502Y-37477316D01*
X19838181Y-41205995D01*
X19871666Y-41267318D01*
X19874500Y-41293676D01*
X19874500Y-42107870D01*
X19874501Y-42107876D01*
X19880908Y-42167483D01*
X19931202Y-42302328D01*
X19931206Y-42302335D01*
X20017452Y-42417544D01*
X20017455Y-42417547D01*
X20132664Y-42503793D01*
X20132671Y-42503797D01*
X20267517Y-42554091D01*
X20267516Y-42554091D01*
X20274444Y-42554835D01*
X20327127Y-42560500D01*
X21672872Y-42560499D01*
X21732483Y-42554091D01*
X21867331Y-42503796D01*
X21982546Y-42417546D01*
X22068796Y-42302331D01*
X22119091Y-42167483D01*
X22125500Y-42107873D01*
X22125499Y-41212128D01*
X22119091Y-41152517D01*
X22068796Y-41017669D01*
X22068795Y-41017668D01*
X22068793Y-41017664D01*
X21982547Y-40902455D01*
X21982544Y-40902452D01*
X21867335Y-40816206D01*
X21867328Y-40816202D01*
X21732482Y-40765908D01*
X21732483Y-40765908D01*
X21672883Y-40759501D01*
X21672881Y-40759500D01*
X21672873Y-40759500D01*
X21672865Y-40759500D01*
X20858676Y-40759500D01*
X20791637Y-40739815D01*
X20770995Y-40723181D01*
X19231433Y-39183619D01*
X20361354Y-39183619D01*
X20500965Y-39254753D01*
X20500972Y-39254756D01*
X20695582Y-39317990D01*
X20897683Y-39350000D01*
X21102317Y-39350000D01*
X21304417Y-39317990D01*
X21499031Y-39254755D01*
X21552043Y-39227744D01*
X21638643Y-39183618D01*
X21000001Y-38544974D01*
X21000000Y-38544974D01*
X20361354Y-39183619D01*
X19231433Y-39183619D01*
X17995496Y-37947682D01*
X19700000Y-37947682D01*
X19700000Y-38152317D01*
X19732010Y-38354418D01*
X19732010Y-38354421D01*
X19795241Y-38549023D01*
X19795241Y-38549024D01*
X19866379Y-38688644D01*
X19866380Y-38688644D01*
X20505025Y-38050000D01*
X20452364Y-37997339D01*
X20600000Y-37997339D01*
X20600000Y-38102661D01*
X20627259Y-38204394D01*
X20679920Y-38295606D01*
X20754394Y-38370080D01*
X20845606Y-38422741D01*
X20947339Y-38450000D01*
X21052661Y-38450000D01*
X21154394Y-38422741D01*
X21245606Y-38370080D01*
X21320080Y-38295606D01*
X21372741Y-38204394D01*
X21400000Y-38102661D01*
X21400000Y-38050000D01*
X21494974Y-38050000D01*
X22133618Y-38688643D01*
X22148213Y-38659999D01*
X23539102Y-38659999D01*
X23539102Y-38660000D01*
X25052115Y-38660000D01*
X25023978Y-38702110D01*
X24974979Y-38820402D01*
X24950000Y-38945981D01*
X24950000Y-39074019D01*
X24974979Y-39199598D01*
X25023978Y-39317890D01*
X25052115Y-39360000D01*
X23539102Y-39360000D01*
X23606230Y-39566604D01*
X23606231Y-39566607D01*
X23709849Y-39769966D01*
X23844004Y-39954614D01*
X24005385Y-40115995D01*
X24190033Y-40250150D01*
X24393395Y-40353769D01*
X24610455Y-40424295D01*
X24835884Y-40460000D01*
X25250000Y-40460000D01*
X25250000Y-39557885D01*
X25292110Y-39586022D01*
X25410402Y-39635021D01*
X25535981Y-39660000D01*
X25664019Y-39660000D01*
X25789598Y-39635021D01*
X25907890Y-39586022D01*
X25950000Y-39557885D01*
X25950000Y-40460000D01*
X26364116Y-40460000D01*
X26589544Y-40424295D01*
X26806604Y-40353769D01*
X27009966Y-40250150D01*
X27194614Y-40115995D01*
X27355995Y-39954614D01*
X27490150Y-39769966D01*
X27593768Y-39566607D01*
X27593769Y-39566604D01*
X27660898Y-39360000D01*
X26147885Y-39360000D01*
X26176022Y-39317890D01*
X26225021Y-39199598D01*
X26250000Y-39074019D01*
X26250000Y-38945981D01*
X26225021Y-38820402D01*
X26176022Y-38702110D01*
X26147885Y-38660000D01*
X27660898Y-38660000D01*
X27660897Y-38659999D01*
X36039102Y-38659999D01*
X36039102Y-38660000D01*
X37552115Y-38660000D01*
X37523978Y-38702110D01*
X37474979Y-38820402D01*
X37450000Y-38945981D01*
X37450000Y-39074019D01*
X37474979Y-39199598D01*
X37523978Y-39317890D01*
X37552115Y-39360000D01*
X36039102Y-39360000D01*
X36106230Y-39566604D01*
X36106231Y-39566607D01*
X36209849Y-39769966D01*
X36344004Y-39954614D01*
X36505385Y-40115995D01*
X36690033Y-40250150D01*
X36893395Y-40353769D01*
X37110455Y-40424295D01*
X37335884Y-40460000D01*
X37750000Y-40460000D01*
X37750000Y-39557885D01*
X37792110Y-39586022D01*
X37910402Y-39635021D01*
X38035981Y-39660000D01*
X38164019Y-39660000D01*
X38289598Y-39635021D01*
X38407890Y-39586022D01*
X38450000Y-39557885D01*
X38450000Y-40460000D01*
X38864116Y-40460000D01*
X39089544Y-40424295D01*
X39306604Y-40353769D01*
X39509966Y-40250150D01*
X39694614Y-40115995D01*
X39855995Y-39954614D01*
X39990150Y-39769966D01*
X40093768Y-39566607D01*
X40093769Y-39566604D01*
X40160898Y-39360000D01*
X38647885Y-39360000D01*
X38676022Y-39317890D01*
X38725021Y-39199598D01*
X38750000Y-39074019D01*
X38750000Y-38945981D01*
X38725021Y-38820402D01*
X38676022Y-38702110D01*
X38647885Y-38660000D01*
X40160898Y-38660000D01*
X40160897Y-38659999D01*
X40093769Y-38453395D01*
X40093768Y-38453392D01*
X39990150Y-38250033D01*
X39855995Y-38065385D01*
X39694614Y-37904004D01*
X39509966Y-37769849D01*
X39306604Y-37666230D01*
X39089544Y-37595704D01*
X38864116Y-37560000D01*
X38450000Y-37560000D01*
X38450000Y-38462114D01*
X38407890Y-38433978D01*
X38289598Y-38384979D01*
X38164019Y-38360000D01*
X38035981Y-38360000D01*
X37910402Y-38384979D01*
X37792110Y-38433978D01*
X37750000Y-38462114D01*
X37750000Y-37560000D01*
X37335884Y-37560000D01*
X37110455Y-37595704D01*
X36893395Y-37666230D01*
X36690033Y-37769849D01*
X36505385Y-37904004D01*
X36344004Y-38065385D01*
X36209849Y-38250033D01*
X36106231Y-38453392D01*
X36106230Y-38453395D01*
X36039102Y-38659999D01*
X27660897Y-38659999D01*
X27593769Y-38453395D01*
X27593768Y-38453392D01*
X27490150Y-38250033D01*
X27355995Y-38065385D01*
X27194614Y-37904004D01*
X27009966Y-37769849D01*
X26806604Y-37666230D01*
X26589544Y-37595704D01*
X26364116Y-37560000D01*
X25950000Y-37560000D01*
X25950000Y-38462114D01*
X25907890Y-38433978D01*
X25789598Y-38384979D01*
X25664019Y-38360000D01*
X25535981Y-38360000D01*
X25410402Y-38384979D01*
X25292110Y-38433978D01*
X25250000Y-38462114D01*
X25250000Y-37560000D01*
X24835884Y-37560000D01*
X24610455Y-37595704D01*
X24393395Y-37666230D01*
X24190033Y-37769849D01*
X24005385Y-37904004D01*
X23844004Y-38065385D01*
X23709849Y-38250033D01*
X23606231Y-38453392D01*
X23606230Y-38453395D01*
X23539102Y-38659999D01*
X22148213Y-38659999D01*
X22165804Y-38625477D01*
X22165804Y-38625476D01*
X22204755Y-38549031D01*
X22267990Y-38354417D01*
X22300000Y-38152317D01*
X22300000Y-37947682D01*
X22267990Y-37745582D01*
X22204756Y-37550972D01*
X22204753Y-37550965D01*
X22133619Y-37411354D01*
X21494974Y-38050000D01*
X21400000Y-38050000D01*
X21400000Y-37997339D01*
X21372741Y-37895606D01*
X21320080Y-37804394D01*
X21245606Y-37729920D01*
X21154394Y-37677259D01*
X21052661Y-37650000D01*
X20947339Y-37650000D01*
X20845606Y-37677259D01*
X20754394Y-37729920D01*
X20679920Y-37804394D01*
X20627259Y-37895606D01*
X20600000Y-37997339D01*
X20452364Y-37997339D01*
X19866379Y-37411354D01*
X19795242Y-37550973D01*
X19795242Y-37550974D01*
X19732010Y-37745578D01*
X19732010Y-37745581D01*
X19700000Y-37947682D01*
X17995496Y-37947682D01*
X17139109Y-37091295D01*
X17105624Y-37029972D01*
X17110608Y-36960280D01*
X17152480Y-36904347D01*
X17157854Y-36900542D01*
X17179655Y-36885977D01*
X17325977Y-36739655D01*
X17440941Y-36567598D01*
X17520130Y-36376420D01*
X17560500Y-36173465D01*
X17560500Y-35966535D01*
X17520130Y-35763580D01*
X17440941Y-35572402D01*
X17325977Y-35400345D01*
X17325975Y-35400342D01*
X17179657Y-35254024D01*
X17136699Y-35225321D01*
X19949500Y-35225321D01*
X19949500Y-36874678D01*
X19964032Y-36947735D01*
X19964033Y-36947739D01*
X19964034Y-36947740D01*
X20019399Y-37030601D01*
X20093524Y-37080129D01*
X20102260Y-37085966D01*
X20102264Y-37085967D01*
X20175321Y-37100499D01*
X20175324Y-37100500D01*
X20494113Y-37100500D01*
X20561152Y-37120185D01*
X20581794Y-37136819D01*
X21000000Y-37555025D01*
X21418206Y-37136819D01*
X21479529Y-37103334D01*
X21505887Y-37100500D01*
X21824676Y-37100500D01*
X21824677Y-37100499D01*
X21897740Y-37085966D01*
X21980601Y-37030601D01*
X22035966Y-36947740D01*
X22050500Y-36874674D01*
X22050500Y-35225326D01*
X22050500Y-35225323D01*
X22050499Y-35225321D01*
X22035967Y-35152264D01*
X22035966Y-35152260D01*
X21980601Y-35069399D01*
X21897740Y-35014034D01*
X21897739Y-35014033D01*
X21897735Y-35014032D01*
X21824677Y-34999500D01*
X21824674Y-34999500D01*
X20175326Y-34999500D01*
X20175323Y-34999500D01*
X20102264Y-35014032D01*
X20102260Y-35014033D01*
X20019399Y-35069399D01*
X19964033Y-35152260D01*
X19964032Y-35152264D01*
X19949500Y-35225321D01*
X17136699Y-35225321D01*
X17093626Y-35196541D01*
X17007598Y-35139059D01*
X16816420Y-35059870D01*
X16816412Y-35059868D01*
X16613469Y-35019500D01*
X16613465Y-35019500D01*
X16406535Y-35019500D01*
X16406530Y-35019500D01*
X16203587Y-35059868D01*
X16203579Y-35059870D01*
X16012403Y-35139058D01*
X15840342Y-35254024D01*
X15694024Y-35400342D01*
X15579058Y-35572403D01*
X15499870Y-35763579D01*
X15499868Y-35763587D01*
X15459500Y-35966530D01*
X9940499Y-35966530D01*
X9900130Y-35763580D01*
X9820941Y-35572402D01*
X9705977Y-35400345D01*
X9705975Y-35400342D01*
X9559657Y-35254024D01*
X9473626Y-35196541D01*
X9387598Y-35139059D01*
X9196420Y-35059870D01*
X9196412Y-35059868D01*
X8993469Y-35019500D01*
X8993465Y-35019500D01*
X8786535Y-35019500D01*
X8786530Y-35019500D01*
X8583587Y-35059868D01*
X8583579Y-35059870D01*
X8392403Y-35139058D01*
X8220342Y-35254024D01*
X8074024Y-35400342D01*
X7959058Y-35572403D01*
X7879870Y-35763579D01*
X7879868Y-35763587D01*
X7839500Y-35966530D01*
X6023000Y-35966530D01*
X6022999Y-34702128D01*
X6016591Y-34642517D01*
X5966296Y-34507669D01*
X5966295Y-34507668D01*
X5966293Y-34507664D01*
X5880047Y-34392455D01*
X5880044Y-34392452D01*
X5764835Y-34306206D01*
X5764828Y-34306202D01*
X5691167Y-34278729D01*
X5635233Y-34236858D01*
X5610816Y-34171394D01*
X5610500Y-34162547D01*
X5610500Y-33426530D01*
X7839500Y-33426530D01*
X7839500Y-33633469D01*
X7879868Y-33836412D01*
X7879870Y-33836420D01*
X7959059Y-34027598D01*
X7984480Y-34065643D01*
X8074024Y-34199657D01*
X8220342Y-34345975D01*
X8220345Y-34345977D01*
X8392402Y-34460941D01*
X8583580Y-34540130D01*
X8786530Y-34580499D01*
X8786534Y-34580500D01*
X8786535Y-34580500D01*
X8993466Y-34580500D01*
X8993467Y-34580499D01*
X9196420Y-34540130D01*
X9387598Y-34460941D01*
X9559655Y-34345977D01*
X9705977Y-34199655D01*
X9820941Y-34027598D01*
X9900130Y-33836420D01*
X9940500Y-33633465D01*
X9940500Y-33426535D01*
X9940499Y-33426530D01*
X15459500Y-33426530D01*
X15459500Y-33633469D01*
X15499868Y-33836412D01*
X15499870Y-33836420D01*
X15579059Y-34027598D01*
X15604480Y-34065643D01*
X15694024Y-34199657D01*
X15840342Y-34345975D01*
X15840345Y-34345977D01*
X16012402Y-34460941D01*
X16203580Y-34540130D01*
X16406530Y-34580499D01*
X16406534Y-34580500D01*
X16406535Y-34580500D01*
X16613466Y-34580500D01*
X16613467Y-34580499D01*
X16816420Y-34540130D01*
X17007598Y-34460941D01*
X17179655Y-34345977D01*
X17325977Y-34199655D01*
X17440941Y-34027598D01*
X17520130Y-33836420D01*
X17560500Y-33633465D01*
X17560500Y-33426535D01*
X17520130Y-33223580D01*
X17440941Y-33032402D01*
X17402577Y-32974986D01*
X19600001Y-32974986D01*
X19610494Y-33077697D01*
X19665641Y-33244119D01*
X19665643Y-33244124D01*
X19757684Y-33393345D01*
X19881654Y-33517315D01*
X20030875Y-33609356D01*
X20030880Y-33609358D01*
X20197302Y-33664505D01*
X20197309Y-33664506D01*
X20300019Y-33674999D01*
X20649999Y-33674999D01*
X21350000Y-33674999D01*
X21699972Y-33674999D01*
X21699986Y-33674998D01*
X21802697Y-33664505D01*
X21969119Y-33609358D01*
X21969124Y-33609356D01*
X22118345Y-33517315D01*
X22242315Y-33393345D01*
X22334356Y-33244124D01*
X22334358Y-33244119D01*
X22365024Y-33151577D01*
X37749500Y-33151577D01*
X37749500Y-33348422D01*
X37780290Y-33542826D01*
X37841117Y-33730029D01*
X37930476Y-33905405D01*
X38046172Y-34064646D01*
X38185354Y-34203828D01*
X38344595Y-34319524D01*
X38427455Y-34361743D01*
X38519970Y-34408882D01*
X38519972Y-34408882D01*
X38519975Y-34408884D01*
X38620317Y-34441487D01*
X38707173Y-34469709D01*
X38901578Y-34500500D01*
X38901583Y-34500500D01*
X39098422Y-34500500D01*
X39292826Y-34469709D01*
X39319811Y-34460941D01*
X39480025Y-34408884D01*
X39655405Y-34319524D01*
X39814646Y-34203828D01*
X39953828Y-34064646D01*
X40069524Y-33905405D01*
X40158884Y-33730025D01*
X40219709Y-33542826D01*
X40220582Y-33537314D01*
X40250500Y-33348422D01*
X40250500Y-33151577D01*
X40219709Y-32957173D01*
X40158882Y-32769970D01*
X40111743Y-32677455D01*
X40069524Y-32594595D01*
X39953828Y-32435354D01*
X39814646Y-32296172D01*
X39655405Y-32180476D01*
X39620125Y-32162500D01*
X39480029Y-32091117D01*
X39292826Y-32030290D01*
X39098422Y-31999500D01*
X39098417Y-31999500D01*
X38901583Y-31999500D01*
X38901578Y-31999500D01*
X38707173Y-32030290D01*
X38519970Y-32091117D01*
X38344594Y-32180476D01*
X38313336Y-32203187D01*
X38185354Y-32296172D01*
X38185352Y-32296174D01*
X38185351Y-32296174D01*
X38046174Y-32435351D01*
X38046174Y-32435352D01*
X38046172Y-32435354D01*
X38014098Y-32479500D01*
X37930476Y-32594594D01*
X37841117Y-32769970D01*
X37780290Y-32957173D01*
X37749500Y-33151577D01*
X22365024Y-33151577D01*
X22379561Y-33107707D01*
X22389505Y-33077697D01*
X22389506Y-33077690D01*
X22399999Y-32974986D01*
X22400000Y-32974973D01*
X22400000Y-32862500D01*
X21350000Y-32862500D01*
X21350000Y-33674999D01*
X20649999Y-33674999D01*
X20650000Y-33674998D01*
X20650000Y-32862500D01*
X19600001Y-32862500D01*
X19600001Y-32974986D01*
X17402577Y-32974986D01*
X17325977Y-32860345D01*
X17325974Y-32860341D01*
X17179657Y-32714024D01*
X17093626Y-32656541D01*
X17007598Y-32599059D01*
X16816420Y-32519870D01*
X16816412Y-32519868D01*
X16613469Y-32479500D01*
X16613465Y-32479500D01*
X16406535Y-32479500D01*
X16406530Y-32479500D01*
X16203587Y-32519868D01*
X16203579Y-32519870D01*
X16012403Y-32599058D01*
X15840342Y-32714024D01*
X15694024Y-32860342D01*
X15579058Y-33032403D01*
X15499870Y-33223579D01*
X15499868Y-33223587D01*
X15459500Y-33426530D01*
X9940499Y-33426530D01*
X9900130Y-33223580D01*
X9820941Y-33032402D01*
X9705977Y-32860345D01*
X9705975Y-32860342D01*
X9559657Y-32714024D01*
X9473626Y-32656541D01*
X9387598Y-32599059D01*
X9196420Y-32519870D01*
X9196412Y-32519868D01*
X8993469Y-32479500D01*
X8993465Y-32479500D01*
X8786535Y-32479500D01*
X8786530Y-32479500D01*
X8583587Y-32519868D01*
X8583579Y-32519870D01*
X8392403Y-32599058D01*
X8220342Y-32714024D01*
X8074024Y-32860342D01*
X7959058Y-33032403D01*
X7879870Y-33223579D01*
X7879868Y-33223587D01*
X7839500Y-33426530D01*
X5610500Y-33426530D01*
X5610500Y-33264110D01*
X5610500Y-33264108D01*
X5576392Y-33136814D01*
X5510500Y-33022686D01*
X5417314Y-32929500D01*
X4537827Y-32050013D01*
X19600000Y-32050013D01*
X19600000Y-32162500D01*
X20650000Y-32162500D01*
X21350000Y-32162500D01*
X22399999Y-32162500D01*
X22399999Y-32050028D01*
X22399998Y-32050013D01*
X22389505Y-31947302D01*
X22334358Y-31780880D01*
X22334356Y-31780875D01*
X22242315Y-31631654D01*
X22118345Y-31507684D01*
X21969124Y-31415643D01*
X21969119Y-31415641D01*
X21802697Y-31360494D01*
X21802690Y-31360493D01*
X21699986Y-31350000D01*
X21350000Y-31350000D01*
X21350000Y-32162500D01*
X20650000Y-32162500D01*
X20650000Y-31350000D01*
X20300028Y-31350000D01*
X20300012Y-31350001D01*
X20197302Y-31360494D01*
X20030880Y-31415641D01*
X20030875Y-31415643D01*
X19881654Y-31507684D01*
X19757684Y-31631654D01*
X19665643Y-31780875D01*
X19665641Y-31780880D01*
X19610494Y-31947302D01*
X19610493Y-31947309D01*
X19600000Y-32050013D01*
X4537827Y-32050013D01*
X4326819Y-31839005D01*
X4293334Y-31777682D01*
X4290500Y-31751324D01*
X4290500Y-31355146D01*
X4310185Y-31288107D01*
X4345607Y-31252046D01*
X4427782Y-31197139D01*
X4567139Y-31057782D01*
X4676632Y-30893914D01*
X4679691Y-30886530D01*
X7839500Y-30886530D01*
X7839500Y-31093469D01*
X7879868Y-31296412D01*
X7879870Y-31296420D01*
X7959058Y-31487596D01*
X8074024Y-31659657D01*
X8220342Y-31805975D01*
X8220345Y-31805977D01*
X8392402Y-31920941D01*
X8583580Y-32000130D01*
X8735206Y-32030290D01*
X8786530Y-32040499D01*
X8786534Y-32040500D01*
X8786535Y-32040500D01*
X8993466Y-32040500D01*
X8993467Y-32040499D01*
X9196420Y-32000130D01*
X9387598Y-31920941D01*
X9559655Y-31805977D01*
X9705977Y-31659655D01*
X9820941Y-31487598D01*
X9900130Y-31296420D01*
X9940500Y-31093465D01*
X9940500Y-30886535D01*
X9900130Y-30683580D01*
X9820941Y-30492402D01*
X9705977Y-30320345D01*
X9705975Y-30320342D01*
X9559657Y-30174024D01*
X9467812Y-30112656D01*
X9387598Y-30059059D01*
X9347213Y-30042331D01*
X9196420Y-29979870D01*
X9196412Y-29979868D01*
X8993469Y-29939500D01*
X8993465Y-29939500D01*
X8786535Y-29939500D01*
X8786530Y-29939500D01*
X8583587Y-29979868D01*
X8583579Y-29979870D01*
X8392403Y-30059058D01*
X8220342Y-30174024D01*
X8074024Y-30320342D01*
X7959058Y-30492403D01*
X7879870Y-30683579D01*
X7879868Y-30683587D01*
X7839500Y-30886530D01*
X4679691Y-30886530D01*
X4752051Y-30711835D01*
X4790500Y-30518541D01*
X4790500Y-30321459D01*
X4790499Y-30321456D01*
X4771219Y-30224532D01*
X4771926Y-30216622D01*
X4769152Y-30209182D01*
X4774996Y-30182319D01*
X4777446Y-30154940D01*
X4782695Y-30146930D01*
X4784005Y-30140910D01*
X4805157Y-30112656D01*
X4850998Y-30066817D01*
X4912322Y-30033333D01*
X4938677Y-30030500D01*
X5335890Y-30030500D01*
X5335892Y-30030500D01*
X5463186Y-29996392D01*
X5577314Y-29930500D01*
X7881629Y-27626183D01*
X7942950Y-27592700D01*
X8012642Y-27597684D01*
X8068575Y-27639556D01*
X8092992Y-27705020D01*
X8078140Y-27773293D01*
X8072411Y-27782756D01*
X7959058Y-27952403D01*
X7879870Y-28143579D01*
X7879868Y-28143587D01*
X7839500Y-28346530D01*
X7839500Y-28553469D01*
X7875146Y-28732671D01*
X7879870Y-28756420D01*
X7959059Y-28947598D01*
X7991518Y-28996176D01*
X8074024Y-29119657D01*
X8220342Y-29265975D01*
X8220345Y-29265977D01*
X8392402Y-29380941D01*
X8583580Y-29460130D01*
X8786530Y-29500499D01*
X8786534Y-29500500D01*
X8786535Y-29500500D01*
X8993466Y-29500500D01*
X8993467Y-29500499D01*
X9196420Y-29460130D01*
X9387598Y-29380941D01*
X9559655Y-29265977D01*
X9705977Y-29119655D01*
X9820941Y-28947598D01*
X9900130Y-28756420D01*
X9940500Y-28553465D01*
X9940500Y-28346535D01*
X9900130Y-28143580D01*
X9820941Y-27952402D01*
X9705977Y-27780345D01*
X9705975Y-27780342D01*
X9559657Y-27634024D01*
X9473626Y-27576541D01*
X9387598Y-27519059D01*
X9196420Y-27439870D01*
X9196412Y-27439868D01*
X8993469Y-27399500D01*
X8993465Y-27399500D01*
X8786535Y-27399500D01*
X8786530Y-27399500D01*
X8583587Y-27439868D01*
X8583579Y-27439870D01*
X8392403Y-27519058D01*
X8222756Y-27632411D01*
X8156078Y-27653288D01*
X8088698Y-27634803D01*
X8042009Y-27582824D01*
X8030833Y-27513853D01*
X8058719Y-27449790D01*
X8066172Y-27441640D01*
X8540138Y-26967674D01*
X8601459Y-26934191D01*
X8652005Y-26933740D01*
X8762127Y-26955644D01*
X8786534Y-26960500D01*
X8786535Y-26960500D01*
X8993466Y-26960500D01*
X8993467Y-26960499D01*
X9196420Y-26920130D01*
X9387598Y-26840941D01*
X9559655Y-26725977D01*
X9705977Y-26579655D01*
X9820941Y-26407598D01*
X9900130Y-26216420D01*
X9940500Y-26013465D01*
X9940500Y-25806535D01*
X9900130Y-25603580D01*
X9820941Y-25412402D01*
X9705977Y-25240345D01*
X9705975Y-25240342D01*
X9559657Y-25094024D01*
X9423699Y-25003181D01*
X9387598Y-24979059D01*
X9196420Y-24899870D01*
X9196412Y-24899868D01*
X8993469Y-24859500D01*
X8993465Y-24859500D01*
X8786535Y-24859500D01*
X8786530Y-24859500D01*
X8583587Y-24899868D01*
X8583579Y-24899870D01*
X8392403Y-24979058D01*
X8220342Y-25094024D01*
X8074024Y-25240342D01*
X7959058Y-25412403D01*
X7879870Y-25603579D01*
X7879868Y-25603587D01*
X7839500Y-25806530D01*
X7839500Y-26013469D01*
X7866258Y-26147990D01*
X7860031Y-26217582D01*
X7832322Y-26259862D01*
X5099005Y-28993181D01*
X5037682Y-29026666D01*
X5011324Y-29029500D01*
X4614107Y-29029500D01*
X4486812Y-29063608D01*
X4372686Y-29129500D01*
X4372683Y-29129502D01*
X4097341Y-29404844D01*
X4036018Y-29438329D01*
X3985468Y-29438780D01*
X3888543Y-29419500D01*
X3888541Y-29419500D01*
X3691459Y-29419500D01*
X3691457Y-29419500D01*
X3498170Y-29457947D01*
X3498160Y-29457950D01*
X3316092Y-29533364D01*
X3316079Y-29533371D01*
X3152218Y-29642860D01*
X3152214Y-29642863D01*
X3012863Y-29782214D01*
X3012860Y-29782218D01*
X2903371Y-29946079D01*
X2903364Y-29946092D01*
X2827950Y-30128160D01*
X2827947Y-30128170D01*
X2789500Y-30321456D01*
X2789500Y-30321457D01*
X2789500Y-30321459D01*
X2789500Y-30518541D01*
X2789500Y-30518543D01*
X2789499Y-30518543D01*
X500500Y-30518543D01*
X500500Y-25638543D01*
X2789499Y-25638543D01*
X2827947Y-25831829D01*
X2827950Y-25831839D01*
X2903364Y-26013907D01*
X2903371Y-26013920D01*
X3012860Y-26177781D01*
X3012863Y-26177785D01*
X3152214Y-26317136D01*
X3152218Y-26317139D01*
X3316079Y-26426628D01*
X3316092Y-26426635D01*
X3498160Y-26502049D01*
X3498165Y-26502051D01*
X3498169Y-26502051D01*
X3498170Y-26502052D01*
X3691456Y-26540500D01*
X3691459Y-26540500D01*
X3888543Y-26540500D01*
X4018582Y-26514632D01*
X4081835Y-26502051D01*
X4263914Y-26426632D01*
X4427782Y-26317139D01*
X4567139Y-26177782D01*
X4622045Y-26095608D01*
X4675657Y-26050804D01*
X4725147Y-26040500D01*
X5285890Y-26040500D01*
X5285892Y-26040500D01*
X5413186Y-26006392D01*
X5527314Y-25940500D01*
X7560995Y-23906819D01*
X7587922Y-23892115D01*
X7613741Y-23875523D01*
X7619941Y-23874631D01*
X7622318Y-23873334D01*
X7648676Y-23870500D01*
X7894719Y-23870500D01*
X7961758Y-23890185D01*
X7997819Y-23925607D01*
X8020800Y-23960000D01*
X8074024Y-24039657D01*
X8220342Y-24185975D01*
X8220345Y-24185977D01*
X8392402Y-24300941D01*
X8583580Y-24380130D01*
X8786530Y-24420499D01*
X8786534Y-24420500D01*
X8786535Y-24420500D01*
X8993466Y-24420500D01*
X8993467Y-24420499D01*
X9196420Y-24380130D01*
X9387598Y-24300941D01*
X9559655Y-24185977D01*
X9705977Y-24039655D01*
X9820941Y-23867598D01*
X9900130Y-23676420D01*
X9940500Y-23473465D01*
X9940500Y-23266535D01*
X9900130Y-23063580D01*
X9820941Y-22872402D01*
X9705977Y-22700345D01*
X9705975Y-22700342D01*
X9559657Y-22554024D01*
X9473626Y-22496541D01*
X9387598Y-22439059D01*
X9196420Y-22359870D01*
X9196414Y-22359868D01*
X9143617Y-22349366D01*
X9081706Y-22316981D01*
X9047132Y-22256265D01*
X9050873Y-22186495D01*
X9091739Y-22129823D01*
X9148413Y-22105275D01*
X9194422Y-22097988D01*
X9389031Y-22034755D01*
X9528643Y-21963618D01*
X8890001Y-21324974D01*
X8890000Y-21324974D01*
X8251354Y-21963619D01*
X8390965Y-22034753D01*
X8390972Y-22034756D01*
X8585577Y-22097988D01*
X8631586Y-22105275D01*
X8694722Y-22135204D01*
X8731653Y-22194515D01*
X8730657Y-22264378D01*
X8692047Y-22322611D01*
X8636383Y-22349366D01*
X8583584Y-22359868D01*
X8583579Y-22359870D01*
X8392403Y-22439058D01*
X8220342Y-22554024D01*
X8074024Y-22700342D01*
X8034292Y-22759806D01*
X7997819Y-22814391D01*
X7944210Y-22859195D01*
X7894719Y-22869500D01*
X7618676Y-22869500D01*
X7551637Y-22849815D01*
X7530995Y-22833181D01*
X6184645Y-21486831D01*
X6151160Y-21425508D01*
X6156143Y-21355819D01*
X6189091Y-21267483D01*
X6195500Y-21207873D01*
X6195499Y-19812128D01*
X6189091Y-19752517D01*
X6182317Y-19734356D01*
X6138797Y-19617671D01*
X6138793Y-19617664D01*
X6052547Y-19502455D01*
X6052544Y-19502452D01*
X5937335Y-19416206D01*
X5937328Y-19416202D01*
X5802482Y-19365908D01*
X5802483Y-19365908D01*
X5742883Y-19359501D01*
X5742881Y-19359500D01*
X5742873Y-19359500D01*
X5742864Y-19359500D01*
X4822129Y-19359500D01*
X4822123Y-19359501D01*
X4762516Y-19365908D01*
X4627671Y-19416202D01*
X4627664Y-19416206D01*
X4512455Y-19502452D01*
X4512452Y-19502455D01*
X4426206Y-19617664D01*
X4426202Y-19617671D01*
X4375908Y-19752517D01*
X4369501Y-19812116D01*
X4369501Y-19812123D01*
X4369500Y-19812135D01*
X4369500Y-21207870D01*
X4369501Y-21207876D01*
X4375908Y-21267483D01*
X4426202Y-21402328D01*
X4426206Y-21402335D01*
X4512452Y-21517544D01*
X4512455Y-21517547D01*
X4627664Y-21603793D01*
X4627671Y-21603797D01*
X4762516Y-21654091D01*
X4788419Y-21656875D01*
X4822127Y-21660500D01*
X4891322Y-21660499D01*
X4958361Y-21680183D01*
X4979004Y-21696818D01*
X6579505Y-23297319D01*
X6612990Y-23358642D01*
X6608006Y-23428334D01*
X6579505Y-23472681D01*
X5049005Y-25003181D01*
X5022077Y-25017884D01*
X4996259Y-25034477D01*
X4990058Y-25035368D01*
X4987682Y-25036666D01*
X4961324Y-25039500D01*
X4725147Y-25039500D01*
X4658108Y-25019815D01*
X4622045Y-24984391D01*
X4567139Y-24902218D01*
X4567137Y-24902215D01*
X4427785Y-24762863D01*
X4427781Y-24762860D01*
X4263920Y-24653371D01*
X4263907Y-24653364D01*
X4081839Y-24577950D01*
X4081829Y-24577947D01*
X3888543Y-24539500D01*
X3888541Y-24539500D01*
X3691459Y-24539500D01*
X3691457Y-24539500D01*
X3498170Y-24577947D01*
X3498160Y-24577950D01*
X3316092Y-24653364D01*
X3316079Y-24653371D01*
X3152218Y-24762860D01*
X3152214Y-24762863D01*
X3012863Y-24902214D01*
X3012860Y-24902218D01*
X2903371Y-25066079D01*
X2903364Y-25066092D01*
X2827950Y-25248160D01*
X2827947Y-25248170D01*
X2789500Y-25441456D01*
X2789500Y-25441459D01*
X2789500Y-25638541D01*
X2789500Y-25638543D01*
X2789499Y-25638543D01*
X500500Y-25638543D01*
X500500Y-21209986D01*
X995001Y-21209986D01*
X1005494Y-21312697D01*
X1060641Y-21479119D01*
X1060643Y-21479124D01*
X1152684Y-21628345D01*
X1276654Y-21752315D01*
X1425875Y-21844356D01*
X1425880Y-21844358D01*
X1592302Y-21899505D01*
X1592309Y-21899506D01*
X1695019Y-21909999D01*
X1807499Y-21909999D01*
X2507500Y-21909999D01*
X2619972Y-21909999D01*
X2619986Y-21909998D01*
X2722697Y-21899505D01*
X2889119Y-21844358D01*
X2889124Y-21844356D01*
X3038345Y-21752315D01*
X3162315Y-21628345D01*
X3254356Y-21479124D01*
X3254358Y-21479119D01*
X3309505Y-21312697D01*
X3309506Y-21312690D01*
X3319999Y-21209986D01*
X3320000Y-21209973D01*
X3320000Y-20860000D01*
X2507500Y-20860000D01*
X2507500Y-21909999D01*
X1807499Y-21909999D01*
X1807500Y-21909998D01*
X1807500Y-20860000D01*
X995001Y-20860000D01*
X995001Y-21209986D01*
X500500Y-21209986D01*
X500500Y-19810013D01*
X995000Y-19810013D01*
X995000Y-20160000D01*
X1807500Y-20160000D01*
X2507500Y-20160000D01*
X3319999Y-20160000D01*
X3319999Y-19810028D01*
X3319998Y-19810013D01*
X3309505Y-19707302D01*
X3254358Y-19540880D01*
X3254356Y-19540875D01*
X3162315Y-19391654D01*
X3038345Y-19267684D01*
X2889124Y-19175643D01*
X2889119Y-19175641D01*
X2722697Y-19120494D01*
X2722690Y-19120493D01*
X2619986Y-19110000D01*
X2507500Y-19110000D01*
X2507500Y-20160000D01*
X1807500Y-20160000D01*
X1807500Y-19110000D01*
X1695027Y-19110000D01*
X1695012Y-19110001D01*
X1592302Y-19120494D01*
X1425880Y-19175641D01*
X1425875Y-19175643D01*
X1276654Y-19267684D01*
X1152684Y-19391654D01*
X1060643Y-19540875D01*
X1060641Y-19540880D01*
X1005494Y-19707302D01*
X1005493Y-19707309D01*
X995000Y-19810013D01*
X500500Y-19810013D01*
X500500Y-16707676D01*
X520185Y-16640637D01*
X572989Y-16594882D01*
X642147Y-16584938D01*
X705703Y-16613963D01*
X712181Y-16619995D01*
X2389500Y-18297314D01*
X2482686Y-18390500D01*
X2539698Y-18423416D01*
X2596814Y-18456392D01*
X2724107Y-18490500D01*
X2724108Y-18490500D01*
X5721324Y-18490500D01*
X5788363Y-18510185D01*
X5809005Y-18526819D01*
X7126159Y-19843972D01*
X7126169Y-19843983D01*
X7130499Y-19848313D01*
X7130500Y-19848314D01*
X7223686Y-19941500D01*
X7337814Y-20007392D01*
X7465107Y-20041500D01*
X7465108Y-20041500D01*
X7630387Y-20041500D01*
X7697426Y-20061185D01*
X7743181Y-20113989D01*
X7753125Y-20183147D01*
X7740872Y-20221795D01*
X7685244Y-20330968D01*
X7622009Y-20525582D01*
X7590000Y-20727682D01*
X7590000Y-20932317D01*
X7622010Y-21134418D01*
X7622010Y-21134421D01*
X7685241Y-21329023D01*
X7685241Y-21329024D01*
X7756379Y-21468644D01*
X8505488Y-20719535D01*
X8490000Y-20777339D01*
X8490000Y-20882661D01*
X8517259Y-20984394D01*
X8569920Y-21075606D01*
X8644394Y-21150080D01*
X8735606Y-21202741D01*
X8837339Y-21230000D01*
X8942661Y-21230000D01*
X9044394Y-21202741D01*
X9135606Y-21150080D01*
X9210080Y-21075606D01*
X9262741Y-20984394D01*
X9290000Y-20882661D01*
X9290000Y-20777339D01*
X9274512Y-20719537D01*
X10023618Y-21468643D01*
X10094755Y-21329031D01*
X10157990Y-21134417D01*
X10190000Y-20932317D01*
X10190000Y-20727682D01*
X10157699Y-20523746D01*
X10166653Y-20454453D01*
X10211650Y-20401001D01*
X10278401Y-20380361D01*
X10345715Y-20399086D01*
X10367853Y-20416667D01*
X11433181Y-21481995D01*
X11466666Y-21543318D01*
X11469500Y-21569676D01*
X11469500Y-26384108D01*
X11469500Y-26515892D01*
X11476094Y-26540500D01*
X11503608Y-26643187D01*
X11524574Y-26679500D01*
X11569500Y-26757314D01*
X11569502Y-26757316D01*
X15452322Y-30640136D01*
X15485807Y-30701459D01*
X15486258Y-30752008D01*
X15459500Y-30886530D01*
X15459500Y-31093469D01*
X15499868Y-31296412D01*
X15499870Y-31296420D01*
X15579058Y-31487596D01*
X15694024Y-31659657D01*
X15840342Y-31805975D01*
X15840345Y-31805977D01*
X16012402Y-31920941D01*
X16203580Y-32000130D01*
X16355206Y-32030290D01*
X16406530Y-32040499D01*
X16406534Y-32040500D01*
X16406535Y-32040500D01*
X16613466Y-32040500D01*
X16613467Y-32040499D01*
X16816420Y-32000130D01*
X17007598Y-31920941D01*
X17179655Y-31805977D01*
X17325977Y-31659655D01*
X17440941Y-31487598D01*
X17520130Y-31296420D01*
X17560500Y-31093465D01*
X17560500Y-30886535D01*
X17520130Y-30683580D01*
X17440941Y-30492402D01*
X17325977Y-30320345D01*
X17325975Y-30320342D01*
X17179657Y-30174024D01*
X17087812Y-30112656D01*
X17007598Y-30059059D01*
X16967213Y-30042331D01*
X16816420Y-29979870D01*
X16816412Y-29979868D01*
X16613469Y-29939500D01*
X16613465Y-29939500D01*
X16406535Y-29939500D01*
X16406530Y-29939500D01*
X16272008Y-29966258D01*
X16202416Y-29960031D01*
X16160136Y-29932322D01*
X15686187Y-29458373D01*
X15652702Y-29397050D01*
X15657686Y-29327358D01*
X15699558Y-29271425D01*
X15765022Y-29247008D01*
X15833295Y-29261860D01*
X15842758Y-29267590D01*
X16012400Y-29380940D01*
X16012401Y-29380940D01*
X16012402Y-29380941D01*
X16203580Y-29460130D01*
X16406530Y-29500499D01*
X16406534Y-29500500D01*
X16406535Y-29500500D01*
X16613466Y-29500500D01*
X16613467Y-29500499D01*
X16816420Y-29460130D01*
X17007598Y-29380941D01*
X17179655Y-29265977D01*
X17325977Y-29119655D01*
X17440941Y-28947598D01*
X17520130Y-28756420D01*
X17560500Y-28553465D01*
X17560500Y-28346535D01*
X17520130Y-28143580D01*
X17440941Y-27952402D01*
X17440940Y-27952400D01*
X17440940Y-27952399D01*
X17388148Y-27873390D01*
X17367270Y-27806713D01*
X17385755Y-27739333D01*
X17437734Y-27692643D01*
X17491250Y-27680500D01*
X18234108Y-27680500D01*
X18533824Y-27680500D01*
X18600863Y-27700185D01*
X18621505Y-27716819D01*
X19813181Y-28908495D01*
X19846666Y-28969818D01*
X19849500Y-28996176D01*
X19849500Y-29847870D01*
X19849501Y-29847876D01*
X19855908Y-29907483D01*
X19906202Y-30042328D01*
X19906206Y-30042335D01*
X19992452Y-30157544D01*
X19992455Y-30157547D01*
X20107664Y-30243793D01*
X20107671Y-30243797D01*
X20242517Y-30294091D01*
X20242516Y-30294091D01*
X20249444Y-30294835D01*
X20302127Y-30300500D01*
X21697872Y-30300499D01*
X21757483Y-30294091D01*
X21892331Y-30243796D01*
X22007546Y-30157546D01*
X22093796Y-30042331D01*
X22144091Y-29907483D01*
X22150500Y-29847873D01*
X22150499Y-28927128D01*
X22144091Y-28867517D01*
X22093796Y-28732669D01*
X22093795Y-28732668D01*
X22093793Y-28732664D01*
X22007547Y-28617455D01*
X22007544Y-28617452D01*
X21892335Y-28531206D01*
X21892328Y-28531202D01*
X21757482Y-28480908D01*
X21757483Y-28480908D01*
X21697883Y-28474501D01*
X21697881Y-28474500D01*
X21697873Y-28474500D01*
X21697865Y-28474500D01*
X20846176Y-28474500D01*
X20779137Y-28454815D01*
X20758495Y-28438181D01*
X19735827Y-27415513D01*
X23749500Y-27415513D01*
X23749500Y-27604486D01*
X23779059Y-27791118D01*
X23837454Y-27970836D01*
X23923240Y-28139199D01*
X24034310Y-28292073D01*
X24167927Y-28425690D01*
X24320801Y-28536760D01*
X24400347Y-28577290D01*
X24489163Y-28622545D01*
X24489165Y-28622545D01*
X24489168Y-28622547D01*
X24585497Y-28653846D01*
X24668881Y-28680940D01*
X24855514Y-28710500D01*
X24855519Y-28710500D01*
X26344486Y-28710500D01*
X26531118Y-28680940D01*
X26710832Y-28622547D01*
X26879199Y-28536760D01*
X27032073Y-28425690D01*
X27165690Y-28292073D01*
X27276760Y-28139199D01*
X27362547Y-27970832D01*
X27420940Y-27791118D01*
X27432708Y-27716819D01*
X27450500Y-27604486D01*
X27450500Y-27415513D01*
X36249500Y-27415513D01*
X36249500Y-27604486D01*
X36279059Y-27791118D01*
X36337454Y-27970836D01*
X36423240Y-28139199D01*
X36534310Y-28292073D01*
X36667927Y-28425690D01*
X36820801Y-28536760D01*
X36900347Y-28577290D01*
X36989163Y-28622545D01*
X36989165Y-28622545D01*
X36989168Y-28622547D01*
X37085497Y-28653846D01*
X37168881Y-28680940D01*
X37355514Y-28710500D01*
X37355519Y-28710500D01*
X38844486Y-28710500D01*
X39031118Y-28680940D01*
X39210832Y-28622547D01*
X39379199Y-28536760D01*
X39532073Y-28425690D01*
X39665690Y-28292073D01*
X39776760Y-28139199D01*
X39862547Y-27970832D01*
X39920940Y-27791118D01*
X39932708Y-27716819D01*
X39950500Y-27604486D01*
X39950500Y-27415513D01*
X39920940Y-27228881D01*
X39862545Y-27049163D01*
X39803734Y-26933740D01*
X39776760Y-26880801D01*
X39665690Y-26727927D01*
X39532073Y-26594310D01*
X39379199Y-26483240D01*
X39210836Y-26397454D01*
X39031118Y-26339059D01*
X38844486Y-26309500D01*
X38844481Y-26309500D01*
X37355519Y-26309500D01*
X37355514Y-26309500D01*
X37168881Y-26339059D01*
X36989163Y-26397454D01*
X36820800Y-26483240D01*
X36745633Y-26537853D01*
X36667927Y-26594310D01*
X36667925Y-26594312D01*
X36667924Y-26594312D01*
X36534312Y-26727924D01*
X36534312Y-26727925D01*
X36534310Y-26727927D01*
X36486610Y-26793579D01*
X36423240Y-26880800D01*
X36337454Y-27049163D01*
X36279059Y-27228881D01*
X36249500Y-27415513D01*
X27450500Y-27415513D01*
X27420940Y-27228881D01*
X27362545Y-27049163D01*
X27303734Y-26933740D01*
X27276760Y-26880801D01*
X27165690Y-26727927D01*
X27032073Y-26594310D01*
X26879199Y-26483240D01*
X26710836Y-26397454D01*
X26531118Y-26339059D01*
X26344486Y-26309500D01*
X26344481Y-26309500D01*
X24855519Y-26309500D01*
X24855514Y-26309500D01*
X24668881Y-26339059D01*
X24489163Y-26397454D01*
X24320800Y-26483240D01*
X24245633Y-26537853D01*
X24167927Y-26594310D01*
X24167925Y-26594312D01*
X24167924Y-26594312D01*
X24034312Y-26727924D01*
X24034312Y-26727925D01*
X24034310Y-26727927D01*
X23986610Y-26793579D01*
X23923240Y-26880800D01*
X23837454Y-27049163D01*
X23779059Y-27228881D01*
X23749500Y-27415513D01*
X19735827Y-27415513D01*
X19099816Y-26779502D01*
X19099814Y-26779500D01*
X19042750Y-26746554D01*
X18985687Y-26713608D01*
X18922039Y-26696554D01*
X18858392Y-26679500D01*
X18858391Y-26679500D01*
X17491250Y-26679500D01*
X17424211Y-26659815D01*
X17378456Y-26607011D01*
X17368512Y-26537853D01*
X17388148Y-26486610D01*
X17440940Y-26407600D01*
X17440940Y-26407599D01*
X17440941Y-26407598D01*
X17520130Y-26216420D01*
X17560500Y-26013465D01*
X17560500Y-25924986D01*
X19600001Y-25924986D01*
X19610494Y-26027697D01*
X19665641Y-26194119D01*
X19665643Y-26194124D01*
X19757684Y-26343345D01*
X19881654Y-26467315D01*
X20030875Y-26559356D01*
X20030880Y-26559358D01*
X20197302Y-26614505D01*
X20197309Y-26614506D01*
X20300019Y-26624999D01*
X20649999Y-26624999D01*
X21350000Y-26624999D01*
X21699972Y-26624999D01*
X21699986Y-26624998D01*
X21802697Y-26614505D01*
X21969119Y-26559358D01*
X21969124Y-26559356D01*
X22118345Y-26467315D01*
X22242315Y-26343345D01*
X22334356Y-26194124D01*
X22334358Y-26194119D01*
X22389505Y-26027697D01*
X22389508Y-26027682D01*
X22399999Y-25924986D01*
X22400000Y-25924973D01*
X22400000Y-25812500D01*
X21350000Y-25812500D01*
X21350000Y-26624999D01*
X20649999Y-26624999D01*
X20650000Y-26624998D01*
X20650000Y-25812500D01*
X19600001Y-25812500D01*
X19600001Y-25924986D01*
X17560500Y-25924986D01*
X17560500Y-25806535D01*
X17520130Y-25603580D01*
X17440941Y-25412402D01*
X17325977Y-25240345D01*
X17325975Y-25240342D01*
X17179658Y-25094025D01*
X17137844Y-25066086D01*
X17038958Y-25000013D01*
X19600000Y-25000013D01*
X19600000Y-25112500D01*
X20650000Y-25112500D01*
X21350000Y-25112500D01*
X22399999Y-25112500D01*
X22399999Y-25000028D01*
X22399998Y-25000013D01*
X22389505Y-24897302D01*
X22334358Y-24730880D01*
X22334356Y-24730875D01*
X22242315Y-24581654D01*
X22118345Y-24457684D01*
X21969124Y-24365643D01*
X21969119Y-24365641D01*
X21802697Y-24310494D01*
X21802690Y-24310493D01*
X21699986Y-24300000D01*
X21350000Y-24300000D01*
X21350000Y-25112500D01*
X20650000Y-25112500D01*
X20650000Y-24300000D01*
X20300028Y-24300000D01*
X20300012Y-24300001D01*
X20197302Y-24310494D01*
X20030880Y-24365641D01*
X20030875Y-24365643D01*
X19881654Y-24457684D01*
X19757684Y-24581654D01*
X19665643Y-24730875D01*
X19665641Y-24730880D01*
X19610494Y-24897302D01*
X19610493Y-24897309D01*
X19600000Y-25000013D01*
X17038958Y-25000013D01*
X17007598Y-24979059D01*
X16816420Y-24899870D01*
X16816412Y-24899868D01*
X16613469Y-24859500D01*
X16613465Y-24859500D01*
X16406535Y-24859500D01*
X16406530Y-24859500D01*
X16203587Y-24899868D01*
X16203579Y-24899870D01*
X16012403Y-24979058D01*
X15840342Y-25094024D01*
X15694024Y-25240342D01*
X15579058Y-25412403D01*
X15499870Y-25603579D01*
X15499868Y-25603587D01*
X15459500Y-25806530D01*
X15459500Y-26013469D01*
X15499868Y-26216412D01*
X15499870Y-26216420D01*
X15519853Y-26264663D01*
X15527322Y-26334133D01*
X15496047Y-26396612D01*
X15435958Y-26432264D01*
X15366133Y-26429770D01*
X15317611Y-26399797D01*
X15006819Y-26089005D01*
X14973334Y-26027682D01*
X14970500Y-26001324D01*
X14970500Y-23266530D01*
X15459500Y-23266530D01*
X15459500Y-23473469D01*
X15499868Y-23676412D01*
X15499870Y-23676420D01*
X15566132Y-23836391D01*
X15579059Y-23867598D01*
X15617821Y-23925610D01*
X15694024Y-24039657D01*
X15840342Y-24185975D01*
X15840345Y-24185977D01*
X16012402Y-24300941D01*
X16203580Y-24380130D01*
X16406530Y-24420499D01*
X16406534Y-24420500D01*
X16406535Y-24420500D01*
X16613466Y-24420500D01*
X16613467Y-24420499D01*
X16816420Y-24380130D01*
X17007598Y-24300941D01*
X17179655Y-24185977D01*
X17325977Y-24039655D01*
X17402180Y-23925608D01*
X17455790Y-23880805D01*
X17505281Y-23870500D01*
X17855890Y-23870500D01*
X17855892Y-23870500D01*
X17983186Y-23836392D01*
X18097314Y-23770500D01*
X18830500Y-23037314D01*
X18993495Y-22874319D01*
X19054818Y-22840834D01*
X19081176Y-22838000D01*
X19762547Y-22838000D01*
X19829586Y-22857685D01*
X19875341Y-22910489D01*
X19878729Y-22918667D01*
X19906202Y-22992328D01*
X19906206Y-22992335D01*
X19992452Y-23107544D01*
X19992455Y-23107547D01*
X20107664Y-23193793D01*
X20107671Y-23193797D01*
X20242517Y-23244091D01*
X20242516Y-23244091D01*
X20249444Y-23244835D01*
X20302127Y-23250500D01*
X21697872Y-23250499D01*
X21757483Y-23244091D01*
X21892331Y-23193796D01*
X22007546Y-23107546D01*
X22093796Y-22992331D01*
X22144091Y-22857483D01*
X22150500Y-22797873D01*
X22150499Y-22159999D01*
X23539102Y-22159999D01*
X23539102Y-22160000D01*
X25052115Y-22160000D01*
X25023978Y-22202110D01*
X24974979Y-22320402D01*
X24950000Y-22445981D01*
X24950000Y-22574019D01*
X24974979Y-22699598D01*
X25023978Y-22817890D01*
X25052115Y-22860000D01*
X23539102Y-22860000D01*
X23606230Y-23066604D01*
X23606231Y-23066607D01*
X23709849Y-23269966D01*
X23844004Y-23454614D01*
X24005385Y-23615995D01*
X24190033Y-23750150D01*
X24393395Y-23853769D01*
X24610455Y-23924295D01*
X24835884Y-23960000D01*
X25250000Y-23960000D01*
X25250000Y-23057885D01*
X25292110Y-23086022D01*
X25410402Y-23135021D01*
X25535981Y-23160000D01*
X25664019Y-23160000D01*
X25789598Y-23135021D01*
X25907890Y-23086022D01*
X25950000Y-23057885D01*
X25950000Y-23960000D01*
X26364116Y-23960000D01*
X26589544Y-23924295D01*
X26806604Y-23853769D01*
X27009966Y-23750150D01*
X27194614Y-23615995D01*
X27355995Y-23454614D01*
X27490150Y-23269966D01*
X27593768Y-23066607D01*
X27593769Y-23066604D01*
X27660898Y-22860000D01*
X26147885Y-22860000D01*
X26176022Y-22817890D01*
X26225021Y-22699598D01*
X26250000Y-22574019D01*
X26250000Y-22445981D01*
X26225021Y-22320402D01*
X26176022Y-22202110D01*
X26147885Y-22160000D01*
X27660898Y-22160000D01*
X27660897Y-22159999D01*
X36039102Y-22159999D01*
X36039102Y-22160000D01*
X37552115Y-22160000D01*
X37523978Y-22202110D01*
X37474979Y-22320402D01*
X37450000Y-22445981D01*
X37450000Y-22574019D01*
X37474979Y-22699598D01*
X37523978Y-22817890D01*
X37552115Y-22860000D01*
X36039102Y-22860000D01*
X36106230Y-23066604D01*
X36106231Y-23066607D01*
X36209849Y-23269966D01*
X36344004Y-23454614D01*
X36505385Y-23615995D01*
X36690033Y-23750150D01*
X36893395Y-23853769D01*
X37110455Y-23924295D01*
X37335884Y-23960000D01*
X37750000Y-23960000D01*
X37750000Y-23057885D01*
X37792110Y-23086022D01*
X37910402Y-23135021D01*
X38035981Y-23160000D01*
X38164019Y-23160000D01*
X38289598Y-23135021D01*
X38407890Y-23086022D01*
X38450000Y-23057885D01*
X38450000Y-23960000D01*
X38864116Y-23960000D01*
X39089544Y-23924295D01*
X39306604Y-23853769D01*
X39509966Y-23750150D01*
X39694614Y-23615995D01*
X39855995Y-23454614D01*
X39990150Y-23269966D01*
X40093768Y-23066607D01*
X40093769Y-23066604D01*
X40160898Y-22860000D01*
X38647885Y-22860000D01*
X38676022Y-22817890D01*
X38725021Y-22699598D01*
X38750000Y-22574019D01*
X38750000Y-22445981D01*
X38725021Y-22320402D01*
X38676022Y-22202110D01*
X38647885Y-22160000D01*
X40160898Y-22160000D01*
X40160897Y-22159999D01*
X40093769Y-21953395D01*
X40093768Y-21953392D01*
X39990150Y-21750033D01*
X39855995Y-21565385D01*
X39694614Y-21404004D01*
X39509966Y-21269849D01*
X39306604Y-21166230D01*
X39089544Y-21095704D01*
X38864116Y-21060000D01*
X38450000Y-21060000D01*
X38450000Y-21962114D01*
X38407890Y-21933978D01*
X38289598Y-21884979D01*
X38164019Y-21860000D01*
X38035981Y-21860000D01*
X37910402Y-21884979D01*
X37792110Y-21933978D01*
X37750000Y-21962114D01*
X37750000Y-21060000D01*
X37335884Y-21060000D01*
X37110455Y-21095704D01*
X36893395Y-21166230D01*
X36690033Y-21269849D01*
X36505385Y-21404004D01*
X36344004Y-21565385D01*
X36209849Y-21750033D01*
X36106231Y-21953392D01*
X36106230Y-21953395D01*
X36039102Y-22159999D01*
X27660897Y-22159999D01*
X27593769Y-21953395D01*
X27593768Y-21953392D01*
X27490150Y-21750033D01*
X27355995Y-21565385D01*
X27194614Y-21404004D01*
X27009966Y-21269849D01*
X26806604Y-21166230D01*
X26589544Y-21095704D01*
X26364116Y-21060000D01*
X25950000Y-21060000D01*
X25950000Y-21962114D01*
X25907890Y-21933978D01*
X25789598Y-21884979D01*
X25664019Y-21860000D01*
X25535981Y-21860000D01*
X25410402Y-21884979D01*
X25292110Y-21933978D01*
X25250000Y-21962114D01*
X25250000Y-21060000D01*
X24835884Y-21060000D01*
X24610455Y-21095704D01*
X24393395Y-21166230D01*
X24190033Y-21269849D01*
X24005385Y-21404004D01*
X23844004Y-21565385D01*
X23709849Y-21750033D01*
X23606231Y-21953392D01*
X23606230Y-21953395D01*
X23539102Y-22159999D01*
X22150499Y-22159999D01*
X22150499Y-21877128D01*
X22144091Y-21817517D01*
X22119772Y-21752315D01*
X22093797Y-21682671D01*
X22093793Y-21682664D01*
X22007547Y-21567455D01*
X22007544Y-21567452D01*
X21892335Y-21481206D01*
X21892328Y-21481202D01*
X21757482Y-21430908D01*
X21757483Y-21430908D01*
X21697883Y-21424501D01*
X21697881Y-21424500D01*
X21697873Y-21424500D01*
X21697864Y-21424500D01*
X20302129Y-21424500D01*
X20302123Y-21424501D01*
X20242516Y-21430908D01*
X20107671Y-21481202D01*
X20107664Y-21481206D01*
X19992455Y-21567452D01*
X19992452Y-21567455D01*
X19906206Y-21682664D01*
X19906202Y-21682671D01*
X19878729Y-21756333D01*
X19836858Y-21812267D01*
X19771394Y-21836684D01*
X19762547Y-21837000D01*
X18756608Y-21837000D01*
X18629312Y-21871108D01*
X18515186Y-21937000D01*
X18515183Y-21937002D01*
X17619005Y-22833181D01*
X17592077Y-22847884D01*
X17566259Y-22864477D01*
X17560058Y-22865368D01*
X17557682Y-22866666D01*
X17531324Y-22869500D01*
X17505281Y-22869500D01*
X17438242Y-22849815D01*
X17402180Y-22814392D01*
X17325977Y-22700345D01*
X17325975Y-22700342D01*
X17179657Y-22554024D01*
X17093626Y-22496541D01*
X17007598Y-22439059D01*
X16816420Y-22359870D01*
X16816412Y-22359868D01*
X16613469Y-22319500D01*
X16613465Y-22319500D01*
X16406535Y-22319500D01*
X16406530Y-22319500D01*
X16203587Y-22359868D01*
X16203579Y-22359870D01*
X16012403Y-22439058D01*
X15840342Y-22554024D01*
X15694024Y-22700342D01*
X15579058Y-22872403D01*
X15499870Y-23063579D01*
X15499868Y-23063587D01*
X15459500Y-23266530D01*
X14970500Y-23266530D01*
X14970500Y-21818676D01*
X14990185Y-21751637D01*
X15006819Y-21730995D01*
X15370995Y-21366819D01*
X15432318Y-21333334D01*
X15458676Y-21330500D01*
X15514719Y-21330500D01*
X15581758Y-21350185D01*
X15617819Y-21385607D01*
X15644480Y-21425508D01*
X15694024Y-21499657D01*
X15840342Y-21645975D01*
X15840345Y-21645977D01*
X16012402Y-21760941D01*
X16203580Y-21840130D01*
X16359318Y-21871108D01*
X16406530Y-21880499D01*
X16406534Y-21880500D01*
X16406535Y-21880500D01*
X16613466Y-21880500D01*
X16613467Y-21880499D01*
X16816420Y-21840130D01*
X17007598Y-21760941D01*
X17179655Y-21645977D01*
X17325977Y-21499655D01*
X17440941Y-21327598D01*
X17520130Y-21136420D01*
X17560500Y-20933465D01*
X17560500Y-20726535D01*
X17520130Y-20523580D01*
X17440941Y-20332402D01*
X17325977Y-20160345D01*
X17325975Y-20160342D01*
X17179657Y-20014024D01*
X17071114Y-19941499D01*
X17007598Y-19899059D01*
X16885089Y-19848314D01*
X16816420Y-19819870D01*
X16816414Y-19819868D01*
X16763617Y-19809366D01*
X16701706Y-19776981D01*
X16667132Y-19716265D01*
X16670873Y-19646495D01*
X16711739Y-19589823D01*
X16768413Y-19565275D01*
X16814422Y-19557988D01*
X17009031Y-19494755D01*
X17148643Y-19423618D01*
X16825011Y-19099985D01*
X19625000Y-19099985D01*
X19635493Y-19202689D01*
X19635494Y-19202696D01*
X19690641Y-19369118D01*
X19690643Y-19369123D01*
X19782684Y-19518344D01*
X19906655Y-19642315D01*
X20055876Y-19734356D01*
X20055881Y-19734358D01*
X20222303Y-19789505D01*
X20222310Y-19789506D01*
X20325014Y-19799999D01*
X20325027Y-19800000D01*
X20650000Y-19800000D01*
X21350000Y-19800000D01*
X21674973Y-19800000D01*
X21674985Y-19799999D01*
X21777689Y-19789506D01*
X21777696Y-19789505D01*
X21944118Y-19734358D01*
X21944123Y-19734356D01*
X22093344Y-19642315D01*
X22217315Y-19518344D01*
X22309356Y-19369123D01*
X22309358Y-19369118D01*
X22364505Y-19202696D01*
X22364506Y-19202689D01*
X22374999Y-19099985D01*
X22375000Y-19099972D01*
X22375000Y-18937500D01*
X21350000Y-18937500D01*
X21350000Y-19800000D01*
X20650000Y-19800000D01*
X20650000Y-18937500D01*
X19625000Y-18937500D01*
X19625000Y-19099985D01*
X16825011Y-19099985D01*
X16510001Y-18784974D01*
X16510000Y-18784974D01*
X15871354Y-19423619D01*
X16010965Y-19494753D01*
X16010972Y-19494756D01*
X16205577Y-19557988D01*
X16251586Y-19565275D01*
X16314722Y-19595204D01*
X16351653Y-19654515D01*
X16350657Y-19724378D01*
X16312047Y-19782611D01*
X16256383Y-19809366D01*
X16203584Y-19819868D01*
X16203579Y-19819870D01*
X16012402Y-19899058D01*
X15840345Y-20014022D01*
X15835636Y-20017888D01*
X15834814Y-20016887D01*
X15779364Y-20047166D01*
X15753006Y-20050000D01*
X13814548Y-20050000D01*
X13747509Y-20030315D01*
X13701754Y-19977511D01*
X13694773Y-19958094D01*
X13686392Y-19926814D01*
X13620500Y-19812686D01*
X13527314Y-19719500D01*
X10427314Y-16619500D01*
X10351104Y-16575500D01*
X10313187Y-16553608D01*
X10227053Y-16530529D01*
X10185892Y-16519500D01*
X10185891Y-16519500D01*
X9871250Y-16519500D01*
X9804211Y-16499815D01*
X9758456Y-16447011D01*
X9748512Y-16377853D01*
X9768148Y-16326610D01*
X9820940Y-16247600D01*
X9820940Y-16247599D01*
X9820941Y-16247598D01*
X9900130Y-16056420D01*
X9940500Y-15853465D01*
X9940500Y-15646535D01*
X9900130Y-15443580D01*
X9820941Y-15252402D01*
X9820940Y-15252400D01*
X9820940Y-15252399D01*
X9733737Y-15121890D01*
X9712859Y-15055213D01*
X9731344Y-14987833D01*
X9783323Y-14941143D01*
X9836839Y-14929000D01*
X10150535Y-14929000D01*
X10217574Y-14948685D01*
X10238216Y-14965319D01*
X13068181Y-17795284D01*
X13101666Y-17856607D01*
X13104500Y-17882965D01*
X13104500Y-18018918D01*
X13104500Y-18018920D01*
X13104499Y-18018920D01*
X13133340Y-18163907D01*
X13133343Y-18163917D01*
X13189912Y-18300488D01*
X13189919Y-18300501D01*
X13272048Y-18423415D01*
X13272051Y-18423419D01*
X13376580Y-18527948D01*
X13376584Y-18527951D01*
X13499498Y-18610080D01*
X13499511Y-18610087D01*
X13636082Y-18666656D01*
X13636087Y-18666658D01*
X13636091Y-18666658D01*
X13636092Y-18666659D01*
X13781079Y-18695500D01*
X13781082Y-18695500D01*
X13928920Y-18695500D01*
X14026462Y-18676096D01*
X14073913Y-18666658D01*
X14210495Y-18610084D01*
X14333416Y-18527951D01*
X14437951Y-18423416D01*
X14520084Y-18300495D01*
X14566813Y-18187682D01*
X15210000Y-18187682D01*
X15210000Y-18392317D01*
X15242010Y-18594418D01*
X15242010Y-18594421D01*
X15305241Y-18789023D01*
X15305241Y-18789024D01*
X15376379Y-18928644D01*
X15376380Y-18928644D01*
X16015025Y-18290000D01*
X15962364Y-18237339D01*
X16110000Y-18237339D01*
X16110000Y-18342661D01*
X16137259Y-18444394D01*
X16189920Y-18535606D01*
X16264394Y-18610080D01*
X16355606Y-18662741D01*
X16457339Y-18690000D01*
X16562661Y-18690000D01*
X16664394Y-18662741D01*
X16755606Y-18610080D01*
X16830080Y-18535606D01*
X16882741Y-18444394D01*
X16910000Y-18342661D01*
X16910000Y-18290000D01*
X17004974Y-18290000D01*
X17643618Y-18928643D01*
X17693960Y-18829843D01*
X17693961Y-18829841D01*
X17714754Y-18789033D01*
X17777990Y-18594417D01*
X17810000Y-18392317D01*
X17810000Y-18187683D01*
X17794728Y-18091264D01*
X17794728Y-18091263D01*
X17792154Y-18075014D01*
X19625000Y-18075014D01*
X19625000Y-18237500D01*
X20650000Y-18237500D01*
X21350000Y-18237500D01*
X22375000Y-18237500D01*
X22375000Y-18075027D01*
X22374999Y-18075014D01*
X22364506Y-17972310D01*
X22364505Y-17972303D01*
X22309358Y-17805881D01*
X22309356Y-17805876D01*
X22217315Y-17656655D01*
X22093344Y-17532684D01*
X21944123Y-17440643D01*
X21944118Y-17440641D01*
X21777696Y-17385494D01*
X21777689Y-17385493D01*
X21674985Y-17375000D01*
X21350000Y-17375000D01*
X21350000Y-18237500D01*
X20650000Y-18237500D01*
X20650000Y-17375000D01*
X20325014Y-17375000D01*
X20222310Y-17385493D01*
X20222303Y-17385494D01*
X20055881Y-17440641D01*
X20055876Y-17440643D01*
X19906655Y-17532684D01*
X19782684Y-17656655D01*
X19690643Y-17805876D01*
X19690641Y-17805881D01*
X19635494Y-17972303D01*
X19635493Y-17972310D01*
X19625000Y-18075014D01*
X17792154Y-18075014D01*
X17777989Y-17985582D01*
X17714756Y-17790972D01*
X17714753Y-17790965D01*
X17643619Y-17651354D01*
X17004974Y-18290000D01*
X16910000Y-18290000D01*
X16910000Y-18237339D01*
X16882741Y-18135606D01*
X16830080Y-18044394D01*
X16755606Y-17969920D01*
X16664394Y-17917259D01*
X16562661Y-17890000D01*
X16457339Y-17890000D01*
X16355606Y-17917259D01*
X16264394Y-17969920D01*
X16189920Y-18044394D01*
X16137259Y-18135606D01*
X16110000Y-18237339D01*
X15962364Y-18237339D01*
X15376379Y-17651354D01*
X15305242Y-17790973D01*
X15305242Y-17790974D01*
X15242010Y-17985578D01*
X15242010Y-17985581D01*
X15210000Y-18187682D01*
X14566813Y-18187682D01*
X14576658Y-18163913D01*
X14594342Y-18075014D01*
X14605500Y-18018920D01*
X14605500Y-17871079D01*
X14576659Y-17726092D01*
X14576658Y-17726091D01*
X14576658Y-17726087D01*
X14556171Y-17676626D01*
X14520087Y-17589511D01*
X14520080Y-17589498D01*
X14437951Y-17466584D01*
X14437948Y-17466580D01*
X14333419Y-17362051D01*
X14333415Y-17362048D01*
X14210501Y-17279919D01*
X14210488Y-17279912D01*
X14073917Y-17223343D01*
X14073907Y-17223340D01*
X13928920Y-17194500D01*
X13928918Y-17194500D01*
X13792965Y-17194500D01*
X13725926Y-17174815D01*
X13705284Y-17158181D01*
X13703482Y-17156379D01*
X15871354Y-17156379D01*
X16510000Y-17795025D01*
X16510001Y-17795025D01*
X17148644Y-17156380D01*
X17148644Y-17156379D01*
X17097820Y-17130484D01*
X17047024Y-17082510D01*
X17030229Y-17014689D01*
X17052766Y-16948554D01*
X17097821Y-16909514D01*
X17148643Y-16883618D01*
X16916603Y-16651577D01*
X37749500Y-16651577D01*
X37749500Y-16848422D01*
X37780290Y-17042826D01*
X37841117Y-17230029D01*
X37908385Y-17362049D01*
X37930476Y-17405405D01*
X38046172Y-17564646D01*
X38185354Y-17703828D01*
X38344595Y-17819524D01*
X38381157Y-17838153D01*
X38519970Y-17908882D01*
X38519972Y-17908882D01*
X38519975Y-17908884D01*
X38620317Y-17941487D01*
X38707173Y-17969709D01*
X38901578Y-18000500D01*
X38901583Y-18000500D01*
X39098422Y-18000500D01*
X39292826Y-17969709D01*
X39480025Y-17908884D01*
X39655405Y-17819524D01*
X39814646Y-17703828D01*
X39953828Y-17564646D01*
X40069524Y-17405405D01*
X40158884Y-17230025D01*
X40219709Y-17042826D01*
X40223340Y-17019901D01*
X40250500Y-16848422D01*
X40250500Y-16651577D01*
X40219709Y-16457173D01*
X40177286Y-16326610D01*
X40158884Y-16269975D01*
X40158882Y-16269972D01*
X40158882Y-16269970D01*
X40083937Y-16122882D01*
X40069524Y-16094595D01*
X39953828Y-15935354D01*
X39814646Y-15796172D01*
X39655405Y-15680476D01*
X39588790Y-15646534D01*
X39480029Y-15591117D01*
X39292826Y-15530290D01*
X39098422Y-15499500D01*
X39098417Y-15499500D01*
X38901583Y-15499500D01*
X38901578Y-15499500D01*
X38707173Y-15530290D01*
X38519970Y-15591117D01*
X38344594Y-15680476D01*
X38292009Y-15718682D01*
X38185354Y-15796172D01*
X38185352Y-15796174D01*
X38185351Y-15796174D01*
X38046174Y-15935351D01*
X38046174Y-15935352D01*
X38046172Y-15935354D01*
X38002396Y-15995606D01*
X37930476Y-16094594D01*
X37841117Y-16269970D01*
X37780290Y-16457173D01*
X37749500Y-16651577D01*
X16916603Y-16651577D01*
X16510001Y-16244974D01*
X16510000Y-16244974D01*
X15900609Y-16854364D01*
X15967118Y-16948392D01*
X15968923Y-16953661D01*
X15972974Y-16957487D01*
X15980123Y-16986354D01*
X15989762Y-17014491D01*
X15988431Y-17019901D01*
X15989770Y-17025308D01*
X15980178Y-17053455D01*
X15973074Y-17082338D01*
X15969030Y-17086169D01*
X15967233Y-17091443D01*
X15923127Y-17129662D01*
X15922355Y-17130394D01*
X15922262Y-17130411D01*
X15922179Y-17130484D01*
X15871354Y-17156379D01*
X13703482Y-17156379D01*
X12194785Y-15647682D01*
X15210000Y-15647682D01*
X15210000Y-15852317D01*
X15242010Y-16054418D01*
X15242010Y-16054421D01*
X15305241Y-16249023D01*
X15305241Y-16249024D01*
X15376379Y-16388644D01*
X15376380Y-16388644D01*
X16015025Y-15750000D01*
X15962364Y-15697339D01*
X16110000Y-15697339D01*
X16110000Y-15802661D01*
X16137259Y-15904394D01*
X16189920Y-15995606D01*
X16264394Y-16070080D01*
X16355606Y-16122741D01*
X16457339Y-16150000D01*
X16562661Y-16150000D01*
X16664394Y-16122741D01*
X16755606Y-16070080D01*
X16830080Y-15995606D01*
X16882741Y-15904394D01*
X16910000Y-15802661D01*
X16910000Y-15750000D01*
X17004974Y-15750000D01*
X17643618Y-16388643D01*
X17714755Y-16249031D01*
X17777990Y-16054417D01*
X17810000Y-15852317D01*
X17810000Y-15647682D01*
X17777990Y-15445582D01*
X17714756Y-15250972D01*
X17714753Y-15250965D01*
X17643619Y-15111354D01*
X17004974Y-15750000D01*
X16910000Y-15750000D01*
X16910000Y-15697339D01*
X16882741Y-15595606D01*
X16830080Y-15504394D01*
X16755606Y-15429920D01*
X16664394Y-15377259D01*
X16562661Y-15350000D01*
X16457339Y-15350000D01*
X16355606Y-15377259D01*
X16264394Y-15429920D01*
X16189920Y-15504394D01*
X16137259Y-15595606D01*
X16110000Y-15697339D01*
X15962364Y-15697339D01*
X15376379Y-15111354D01*
X15305242Y-15250973D01*
X15305242Y-15250974D01*
X15242010Y-15445578D01*
X15242010Y-15445581D01*
X15210000Y-15647682D01*
X12194785Y-15647682D01*
X10665116Y-14118013D01*
X10665114Y-14118011D01*
X10613750Y-14088356D01*
X10562388Y-14058701D01*
X10550280Y-14055457D01*
X10538173Y-14052213D01*
X10538170Y-14052212D01*
X10499978Y-14041978D01*
X10447809Y-14028000D01*
X10447808Y-14028000D01*
X9838844Y-14028000D01*
X9829094Y-14025137D01*
X9819011Y-14026404D01*
X9796132Y-14015458D01*
X9771805Y-14008315D01*
X9765151Y-14000636D01*
X9755983Y-13996250D01*
X9742654Y-13974673D01*
X9726050Y-13955511D01*
X9724603Y-13945452D01*
X9719263Y-13936807D01*
X9719715Y-13911454D01*
X9716106Y-13886353D01*
X9720360Y-13875248D01*
X9720509Y-13866949D01*
X9735741Y-13835111D01*
X9782178Y-13765611D01*
X9835789Y-13720805D01*
X9885281Y-13710500D01*
X12055890Y-13710500D01*
X12055892Y-13710500D01*
X12183186Y-13676392D01*
X12297314Y-13610500D01*
X12801284Y-13106530D01*
X15459500Y-13106530D01*
X15459500Y-13313469D01*
X15499868Y-13516412D01*
X15499870Y-13516420D01*
X15566132Y-13676391D01*
X15579059Y-13707598D01*
X15636541Y-13793626D01*
X15694024Y-13879657D01*
X15840342Y-14025975D01*
X15840345Y-14025977D01*
X16012402Y-14140941D01*
X16203580Y-14220130D01*
X16233696Y-14226120D01*
X16256381Y-14230633D01*
X16318292Y-14263017D01*
X16352866Y-14323733D01*
X16349127Y-14393502D01*
X16308261Y-14450175D01*
X16251589Y-14474723D01*
X16205579Y-14482010D01*
X16205578Y-14482010D01*
X16010974Y-14545242D01*
X16010973Y-14545242D01*
X15871354Y-14616379D01*
X16510000Y-15255025D01*
X16510001Y-15255025D01*
X17148644Y-14616380D01*
X17148644Y-14616379D01*
X17009024Y-14545241D01*
X16814419Y-14482010D01*
X16768411Y-14474723D01*
X16705276Y-14444794D01*
X16668345Y-14385482D01*
X16669343Y-14315619D01*
X16707953Y-14257387D01*
X16763616Y-14230633D01*
X16816420Y-14220130D01*
X17007598Y-14140941D01*
X17179655Y-14025977D01*
X17325977Y-13879655D01*
X17440941Y-13707598D01*
X17520130Y-13516420D01*
X17560500Y-13313465D01*
X17560500Y-13106535D01*
X17520130Y-12903580D01*
X17440941Y-12712402D01*
X17325977Y-12540345D01*
X17325975Y-12540342D01*
X17179657Y-12394024D01*
X17081600Y-12328505D01*
X17007598Y-12279059D01*
X16905547Y-12236788D01*
X16816420Y-12199870D01*
X16816414Y-12199868D01*
X16763617Y-12189366D01*
X16701706Y-12156981D01*
X16667132Y-12096265D01*
X16670873Y-12026495D01*
X16711739Y-11969823D01*
X16768413Y-11945275D01*
X16814422Y-11937988D01*
X17009031Y-11874755D01*
X17148643Y-11803618D01*
X16787161Y-11442135D01*
X19874500Y-11442135D01*
X19874500Y-12337870D01*
X19874501Y-12337876D01*
X19880908Y-12397483D01*
X19931202Y-12532328D01*
X19931206Y-12532335D01*
X20017452Y-12647544D01*
X20017455Y-12647547D01*
X20132664Y-12733793D01*
X20132671Y-12733797D01*
X20177618Y-12750561D01*
X20267517Y-12784091D01*
X20327127Y-12790500D01*
X20375500Y-12790499D01*
X20442537Y-12810182D01*
X20488293Y-12862985D01*
X20499500Y-12914499D01*
X20499500Y-14525500D01*
X20479815Y-14592539D01*
X20427011Y-14638294D01*
X20375500Y-14649500D01*
X20327128Y-14649500D01*
X20327120Y-14649500D01*
X20327117Y-14649501D01*
X20267518Y-14655908D01*
X20132672Y-14706202D01*
X20132670Y-14706204D01*
X20017454Y-14792454D01*
X19931204Y-14907670D01*
X19931202Y-14907672D01*
X19880908Y-15042518D01*
X19874501Y-15102117D01*
X19874500Y-15102136D01*
X19874500Y-16122863D01*
X19874501Y-16122882D01*
X19880908Y-16182481D01*
X19931202Y-16317327D01*
X19931203Y-16317328D01*
X19931204Y-16317330D01*
X20017454Y-16432546D01*
X20132670Y-16518796D01*
X20132671Y-16518796D01*
X20132672Y-16518797D01*
X20267518Y-16569091D01*
X20267517Y-16569091D01*
X20274445Y-16569835D01*
X20327128Y-16575500D01*
X20327137Y-16575500D01*
X21672863Y-16575500D01*
X21672872Y-16575500D01*
X21732482Y-16569091D01*
X21788964Y-16548024D01*
X21835873Y-16530529D01*
X21867327Y-16518797D01*
X21867326Y-16518797D01*
X21867330Y-16518796D01*
X21982546Y-16432546D01*
X22068796Y-16317330D01*
X22119091Y-16182482D01*
X22125500Y-16122872D01*
X22125500Y-15102128D01*
X22119091Y-15042518D01*
X22072250Y-14916930D01*
X22068797Y-14907672D01*
X22068796Y-14907671D01*
X22068796Y-14907670D01*
X21982546Y-14792454D01*
X21867330Y-14706204D01*
X21867328Y-14706203D01*
X21867327Y-14706202D01*
X21732481Y-14655908D01*
X21732482Y-14655908D01*
X21672882Y-14649501D01*
X21672880Y-14649500D01*
X21672872Y-14649500D01*
X21672864Y-14649500D01*
X21624500Y-14649500D01*
X21557461Y-14629815D01*
X21511706Y-14577011D01*
X21500500Y-14525500D01*
X21500500Y-12914499D01*
X21520185Y-12847460D01*
X21572989Y-12801705D01*
X21624500Y-12790499D01*
X21672871Y-12790499D01*
X21672872Y-12790499D01*
X21732483Y-12784091D01*
X21867331Y-12733796D01*
X21982546Y-12647546D01*
X22068796Y-12532331D01*
X22119091Y-12397483D01*
X22125500Y-12337873D01*
X22125499Y-11442128D01*
X22119091Y-11382517D01*
X22103105Y-11339657D01*
X22068797Y-11247671D01*
X22068793Y-11247664D01*
X21982547Y-11132455D01*
X21982544Y-11132452D01*
X21867335Y-11046206D01*
X21867328Y-11046202D01*
X21788573Y-11016829D01*
X21732482Y-10995908D01*
X21732483Y-10995908D01*
X21672883Y-10989501D01*
X21672881Y-10989500D01*
X21672873Y-10989500D01*
X21672864Y-10989500D01*
X20327129Y-10989500D01*
X20327123Y-10989501D01*
X20267516Y-10995908D01*
X20132671Y-11046202D01*
X20132664Y-11046206D01*
X20017455Y-11132452D01*
X20017452Y-11132455D01*
X19931206Y-11247664D01*
X19931202Y-11247671D01*
X19880908Y-11382517D01*
X19874501Y-11442116D01*
X19874501Y-11442123D01*
X19874500Y-11442135D01*
X16787161Y-11442135D01*
X16510001Y-11164974D01*
X16510000Y-11164974D01*
X15871354Y-11803619D01*
X16010965Y-11874753D01*
X16010972Y-11874756D01*
X16205577Y-11937988D01*
X16251586Y-11945275D01*
X16314722Y-11975204D01*
X16351653Y-12034515D01*
X16350657Y-12104378D01*
X16312047Y-12162611D01*
X16256383Y-12189366D01*
X16203584Y-12199868D01*
X16203579Y-12199870D01*
X16012403Y-12279058D01*
X15840342Y-12394024D01*
X15694024Y-12540342D01*
X15579058Y-12712403D01*
X15499870Y-12903579D01*
X15499868Y-12903587D01*
X15459500Y-13106530D01*
X12801284Y-13106530D01*
X15027731Y-10880082D01*
X15089052Y-10846599D01*
X15158744Y-10851583D01*
X15214677Y-10893455D01*
X15237883Y-10948363D01*
X15242011Y-10974422D01*
X15305241Y-11169023D01*
X15305241Y-11169024D01*
X15376379Y-11308644D01*
X16125488Y-10559535D01*
X16110000Y-10617339D01*
X16110000Y-10722661D01*
X16137259Y-10824394D01*
X16189920Y-10915606D01*
X16264394Y-10990080D01*
X16355606Y-11042741D01*
X16457339Y-11070000D01*
X16562661Y-11070000D01*
X16664394Y-11042741D01*
X16755606Y-10990080D01*
X16830080Y-10915606D01*
X16882741Y-10824394D01*
X16910000Y-10722661D01*
X16910000Y-10617339D01*
X16894512Y-10559537D01*
X17643618Y-11308643D01*
X17714755Y-11169031D01*
X17777990Y-10974417D01*
X17788903Y-10905513D01*
X23749500Y-10905513D01*
X23749500Y-11094486D01*
X23779059Y-11281118D01*
X23837454Y-11460836D01*
X23894803Y-11573389D01*
X23923240Y-11629199D01*
X24034310Y-11782073D01*
X24167927Y-11915690D01*
X24320801Y-12026760D01*
X24400347Y-12067290D01*
X24489163Y-12112545D01*
X24489165Y-12112545D01*
X24489168Y-12112547D01*
X24585497Y-12143846D01*
X24668881Y-12170940D01*
X24855514Y-12200500D01*
X24855519Y-12200500D01*
X26344486Y-12200500D01*
X26531118Y-12170940D01*
X26574079Y-12156981D01*
X26710832Y-12112547D01*
X26879199Y-12026760D01*
X27032073Y-11915690D01*
X27165690Y-11782073D01*
X27276760Y-11629199D01*
X27362547Y-11460832D01*
X27420940Y-11281118D01*
X27450500Y-11094486D01*
X27450500Y-10905513D01*
X36249500Y-10905513D01*
X36249500Y-11094486D01*
X36279059Y-11281118D01*
X36337454Y-11460836D01*
X36394803Y-11573389D01*
X36423240Y-11629199D01*
X36534310Y-11782073D01*
X36667927Y-11915690D01*
X36820801Y-12026760D01*
X36900347Y-12067290D01*
X36989163Y-12112545D01*
X36989165Y-12112545D01*
X36989168Y-12112547D01*
X37085497Y-12143846D01*
X37168881Y-12170940D01*
X37355514Y-12200500D01*
X37355519Y-12200500D01*
X38844486Y-12200500D01*
X39031118Y-12170940D01*
X39074079Y-12156981D01*
X39210832Y-12112547D01*
X39379199Y-12026760D01*
X39532073Y-11915690D01*
X39665690Y-11782073D01*
X39776760Y-11629199D01*
X39862547Y-11460832D01*
X39920940Y-11281118D01*
X39950500Y-11094486D01*
X39950500Y-10905513D01*
X39920940Y-10718881D01*
X39891399Y-10627964D01*
X39862547Y-10539168D01*
X39862545Y-10539165D01*
X39862545Y-10539163D01*
X39817290Y-10450347D01*
X39776760Y-10370801D01*
X39665690Y-10217927D01*
X39532073Y-10084310D01*
X39379199Y-9973240D01*
X39328456Y-9947385D01*
X39210836Y-9887454D01*
X39031118Y-9829059D01*
X38844486Y-9799500D01*
X38844481Y-9799500D01*
X37355519Y-9799500D01*
X37355514Y-9799500D01*
X37168881Y-9829059D01*
X36989163Y-9887454D01*
X36820800Y-9973240D01*
X36783498Y-10000342D01*
X36667927Y-10084310D01*
X36667925Y-10084312D01*
X36667924Y-10084312D01*
X36534312Y-10217924D01*
X36534312Y-10217925D01*
X36534310Y-10217927D01*
X36532441Y-10220500D01*
X36423240Y-10370800D01*
X36337454Y-10539163D01*
X36279059Y-10718881D01*
X36249500Y-10905513D01*
X27450500Y-10905513D01*
X27420940Y-10718881D01*
X27391399Y-10627964D01*
X27362547Y-10539168D01*
X27362545Y-10539165D01*
X27362545Y-10539163D01*
X27317290Y-10450347D01*
X27276760Y-10370801D01*
X27165690Y-10217927D01*
X27032073Y-10084310D01*
X26879199Y-9973240D01*
X26828456Y-9947385D01*
X26710836Y-9887454D01*
X26531118Y-9829059D01*
X26344486Y-9799500D01*
X26344481Y-9799500D01*
X24855519Y-9799500D01*
X24855514Y-9799500D01*
X24668881Y-9829059D01*
X24489163Y-9887454D01*
X24320800Y-9973240D01*
X24283498Y-10000342D01*
X24167927Y-10084310D01*
X24167925Y-10084312D01*
X24167924Y-10084312D01*
X24034312Y-10217924D01*
X24034312Y-10217925D01*
X24034310Y-10217927D01*
X24032441Y-10220500D01*
X23923240Y-10370800D01*
X23837454Y-10539163D01*
X23779059Y-10718881D01*
X23749500Y-10905513D01*
X17788903Y-10905513D01*
X17810000Y-10772317D01*
X17810000Y-10567682D01*
X17777990Y-10365582D01*
X17714755Y-10170968D01*
X17668809Y-10080795D01*
X17655913Y-10012126D01*
X17682189Y-9947385D01*
X17739296Y-9907128D01*
X17779294Y-9900500D01*
X18565890Y-9900500D01*
X18565892Y-9900500D01*
X18693186Y-9866392D01*
X18807314Y-9800500D01*
X19280994Y-9326818D01*
X19342317Y-9293334D01*
X19368675Y-9290500D01*
X19792209Y-9290500D01*
X19859248Y-9310185D01*
X19905003Y-9362989D01*
X19908391Y-9371167D01*
X19931202Y-9432328D01*
X19931206Y-9432335D01*
X20017452Y-9547544D01*
X20017455Y-9547547D01*
X20132664Y-9633793D01*
X20132671Y-9633797D01*
X20267517Y-9684091D01*
X20267516Y-9684091D01*
X20274444Y-9684835D01*
X20327127Y-9690500D01*
X21672872Y-9690499D01*
X21732483Y-9684091D01*
X21867331Y-9633796D01*
X21982546Y-9547546D01*
X22068796Y-9432331D01*
X22119091Y-9297483D01*
X22125500Y-9237873D01*
X22125499Y-8342128D01*
X22119091Y-8282517D01*
X22100797Y-8233469D01*
X22068797Y-8147671D01*
X22068793Y-8147664D01*
X21982547Y-8032455D01*
X21982544Y-8032452D01*
X21867335Y-7946206D01*
X21867328Y-7946202D01*
X21732482Y-7895908D01*
X21732483Y-7895908D01*
X21672883Y-7889501D01*
X21672881Y-7889500D01*
X21672873Y-7889500D01*
X21672864Y-7889500D01*
X20327129Y-7889500D01*
X20327123Y-7889501D01*
X20267516Y-7895908D01*
X20132671Y-7946202D01*
X20132664Y-7946206D01*
X20017455Y-8032452D01*
X20017452Y-8032455D01*
X19931206Y-8147664D01*
X19931202Y-8147671D01*
X19908391Y-8208833D01*
X19866520Y-8264767D01*
X19801056Y-8289184D01*
X19792209Y-8289500D01*
X19044107Y-8289500D01*
X18931234Y-8319744D01*
X18931233Y-8319743D01*
X18916816Y-8323607D01*
X18916811Y-8323609D01*
X18802689Y-8389498D01*
X18802683Y-8389502D01*
X18329005Y-8863181D01*
X18267682Y-8896666D01*
X18241324Y-8899500D01*
X17491250Y-8899500D01*
X17424211Y-8879815D01*
X17378456Y-8827011D01*
X17368512Y-8757853D01*
X17388148Y-8706610D01*
X17440940Y-8627600D01*
X17440940Y-8627599D01*
X17440941Y-8627598D01*
X17520130Y-8436420D01*
X17560500Y-8233465D01*
X17560500Y-8026535D01*
X17520130Y-7823580D01*
X17440941Y-7632402D01*
X17325977Y-7460345D01*
X17325975Y-7460342D01*
X17179657Y-7314024D01*
X17069095Y-7240150D01*
X17007598Y-7199059D01*
X16905547Y-7156788D01*
X16816420Y-7119870D01*
X16816412Y-7119868D01*
X16613469Y-7079500D01*
X16613465Y-7079500D01*
X16406535Y-7079500D01*
X16406530Y-7079500D01*
X16203587Y-7119868D01*
X16203579Y-7119870D01*
X16012403Y-7199058D01*
X15840342Y-7314024D01*
X15694024Y-7460342D01*
X15579058Y-7632403D01*
X15499870Y-7823579D01*
X15499868Y-7823587D01*
X15459500Y-8026530D01*
X15459500Y-8233469D01*
X15499868Y-8436412D01*
X15499870Y-8436420D01*
X15579059Y-8627599D01*
X15579059Y-8627600D01*
X15661277Y-8750648D01*
X15682155Y-8817325D01*
X15663670Y-8884705D01*
X15613818Y-8929484D01*
X15613853Y-8929544D01*
X15613569Y-8929707D01*
X15611691Y-8931395D01*
X15607099Y-8933443D01*
X15492686Y-8999500D01*
X15492683Y-8999502D01*
X11819005Y-12673181D01*
X11757682Y-12706666D01*
X11731324Y-12709500D01*
X9885281Y-12709500D01*
X9818242Y-12689815D01*
X9782180Y-12654392D01*
X9705977Y-12540345D01*
X9705975Y-12540342D01*
X9559657Y-12394024D01*
X9461600Y-12328505D01*
X9387598Y-12279059D01*
X9285547Y-12236788D01*
X9196420Y-12199870D01*
X9196412Y-12199868D01*
X8993469Y-12159500D01*
X8993465Y-12159500D01*
X8786535Y-12159500D01*
X8786530Y-12159500D01*
X8583587Y-12199868D01*
X8583579Y-12199870D01*
X8392403Y-12279058D01*
X8220342Y-12394024D01*
X8074024Y-12540342D01*
X7959058Y-12712403D01*
X7879870Y-12903579D01*
X7879868Y-12903587D01*
X7839500Y-13106530D01*
X7839500Y-13313469D01*
X7855087Y-13391830D01*
X7848860Y-13461422D01*
X7805996Y-13516599D01*
X7740107Y-13539843D01*
X7672110Y-13523775D01*
X7645789Y-13503702D01*
X6711599Y-12569513D01*
X6711597Y-12569511D01*
X6608870Y-12510201D01*
X6580532Y-12502608D01*
X6580529Y-12502607D01*
X6544080Y-12492840D01*
X6494292Y-12479500D01*
X6494291Y-12479500D01*
X5608255Y-12479500D01*
X5541216Y-12459815D01*
X5495461Y-12407011D01*
X5485517Y-12337853D01*
X5507937Y-12282614D01*
X5510521Y-12279058D01*
X5541232Y-12236788D01*
X5619873Y-12082445D01*
X5673402Y-11917701D01*
X5700500Y-11746611D01*
X5700500Y-11746608D01*
X5700883Y-11741748D01*
X5702496Y-11741875D01*
X5720185Y-11681636D01*
X5736814Y-11660999D01*
X6831283Y-10566530D01*
X7839500Y-10566530D01*
X7839500Y-10773469D01*
X7879868Y-10976412D01*
X7879870Y-10976420D01*
X7924104Y-11083211D01*
X7959059Y-11167598D01*
X8012557Y-11247664D01*
X8074024Y-11339657D01*
X8220342Y-11485975D01*
X8220345Y-11485977D01*
X8392402Y-11600941D01*
X8583580Y-11680130D01*
X8786530Y-11720499D01*
X8786534Y-11720500D01*
X8786535Y-11720500D01*
X8993466Y-11720500D01*
X8993467Y-11720499D01*
X9196420Y-11680130D01*
X9387598Y-11600941D01*
X9559655Y-11485977D01*
X9705977Y-11339655D01*
X9820941Y-11167598D01*
X9900130Y-10976420D01*
X9940500Y-10773465D01*
X9940500Y-10566535D01*
X9900130Y-10363580D01*
X9820941Y-10172402D01*
X9705977Y-10000345D01*
X9705975Y-10000342D01*
X9559657Y-9854024D01*
X9472543Y-9795817D01*
X9387598Y-9739059D01*
X9285547Y-9696788D01*
X9196420Y-9659870D01*
X9196412Y-9659868D01*
X8993469Y-9619500D01*
X8993465Y-9619500D01*
X8786535Y-9619500D01*
X8786530Y-9619500D01*
X8583587Y-9659868D01*
X8583579Y-9659870D01*
X8392403Y-9739058D01*
X8220342Y-9854024D01*
X8074024Y-10000342D01*
X7959058Y-10172403D01*
X7879870Y-10363579D01*
X7879868Y-10363587D01*
X7839500Y-10566530D01*
X6831283Y-10566530D01*
X8294551Y-9103261D01*
X8355872Y-9069778D01*
X8425564Y-9074762D01*
X8429664Y-9076375D01*
X8583580Y-9140130D01*
X8786530Y-9180499D01*
X8786534Y-9180500D01*
X8786535Y-9180500D01*
X8993466Y-9180500D01*
X8993467Y-9180499D01*
X9196420Y-9140130D01*
X9387598Y-9060941D01*
X9559655Y-8945977D01*
X9705977Y-8799655D01*
X9820941Y-8627598D01*
X9900130Y-8436420D01*
X9940500Y-8233465D01*
X9940500Y-8026535D01*
X9900130Y-7823580D01*
X9820941Y-7632402D01*
X9705977Y-7460345D01*
X9705975Y-7460342D01*
X9559657Y-7314024D01*
X9449095Y-7240150D01*
X9387598Y-7199059D01*
X9285547Y-7156788D01*
X9196420Y-7119870D01*
X9196412Y-7119868D01*
X8993469Y-7079500D01*
X8993465Y-7079500D01*
X8786535Y-7079500D01*
X8786530Y-7079500D01*
X8583587Y-7119868D01*
X8583579Y-7119870D01*
X8392403Y-7199058D01*
X8220342Y-7314024D01*
X8074024Y-7460342D01*
X7959058Y-7632403D01*
X7879870Y-7823579D01*
X7879868Y-7823587D01*
X7839500Y-8026530D01*
X7839500Y-8091323D01*
X7819815Y-8158362D01*
X7803181Y-8179004D01*
X5297880Y-10684304D01*
X5236557Y-10717789D01*
X5166865Y-10712805D01*
X5153905Y-10707108D01*
X5022450Y-10640129D01*
X5022447Y-10640128D01*
X5022445Y-10640127D01*
X4857701Y-10586598D01*
X4857699Y-10586597D01*
X4857698Y-10586597D01*
X4726271Y-10565781D01*
X4686611Y-10559500D01*
X4513389Y-10559500D01*
X4473728Y-10565781D01*
X4342302Y-10586597D01*
X4177552Y-10640128D01*
X4023212Y-10718767D01*
X3977385Y-10752063D01*
X3965524Y-10756294D01*
X3956011Y-10764538D01*
X3933245Y-10767811D01*
X3911578Y-10775542D01*
X3899314Y-10772690D01*
X3886853Y-10774482D01*
X3865928Y-10764926D01*
X3843524Y-10759716D01*
X3834749Y-10750687D01*
X3823297Y-10745457D01*
X3810860Y-10726105D01*
X3794830Y-10709610D01*
X3791426Y-10695864D01*
X3785523Y-10686679D01*
X3780500Y-10651744D01*
X3780500Y-10627964D01*
X3800185Y-10560925D01*
X3816815Y-10540287D01*
X4153770Y-10203331D01*
X4215091Y-10169848D01*
X4279764Y-10173082D01*
X4342299Y-10193402D01*
X4513389Y-10220500D01*
X4513390Y-10220500D01*
X4686610Y-10220500D01*
X4686611Y-10220500D01*
X4857701Y-10193402D01*
X5022445Y-10139873D01*
X5176788Y-10061232D01*
X5316928Y-9959414D01*
X5439414Y-9836928D01*
X5541232Y-9696788D01*
X5619873Y-9542445D01*
X5673402Y-9377701D01*
X5700500Y-9206611D01*
X5700500Y-9033389D01*
X5673402Y-8862299D01*
X5619873Y-8697555D01*
X5541232Y-8543212D01*
X5439414Y-8403072D01*
X5316928Y-8280586D01*
X5176788Y-8178768D01*
X5022445Y-8100127D01*
X4857701Y-8046598D01*
X4857699Y-8046597D01*
X4857698Y-8046597D01*
X4726271Y-8025781D01*
X4686611Y-8019500D01*
X4513389Y-8019500D01*
X4473728Y-8025781D01*
X4342302Y-8046597D01*
X4177552Y-8100128D01*
X4023211Y-8178768D01*
X3981831Y-8208833D01*
X3883072Y-8280586D01*
X3883070Y-8280588D01*
X3883069Y-8280588D01*
X3760588Y-8403069D01*
X3760588Y-8403070D01*
X3760586Y-8403072D01*
X3716859Y-8463256D01*
X3658768Y-8543211D01*
X3580128Y-8697550D01*
X3579487Y-8699522D01*
X3579102Y-8700712D01*
X3579099Y-8700720D01*
X3578381Y-8701769D01*
X3578266Y-8702048D01*
X3578207Y-8702023D01*
X3539657Y-8758393D01*
X3475297Y-8785587D01*
X3406451Y-8773668D01*
X3354979Y-8726420D01*
X3343239Y-8700712D01*
X3311094Y-8601783D01*
X3230791Y-8444180D01*
X2560000Y-9114973D01*
X2560000Y-9054174D01*
X2525925Y-8927007D01*
X2460099Y-8812993D01*
X2367007Y-8719901D01*
X2252993Y-8654075D01*
X2125826Y-8620000D01*
X2065027Y-8620000D01*
X2735818Y-7949207D01*
X2578223Y-7868907D01*
X2479286Y-7836760D01*
X2421611Y-7797322D01*
X2394413Y-7732963D01*
X2406328Y-7664117D01*
X2453573Y-7612641D01*
X2479290Y-7600897D01*
X2482445Y-7599873D01*
X2636788Y-7521232D01*
X2776928Y-7419414D01*
X2899414Y-7296928D01*
X3001232Y-7156788D01*
X3079873Y-7002445D01*
X3133402Y-6837701D01*
X3160500Y-6666611D01*
X3160500Y-6493389D01*
X3499500Y-6493389D01*
X3499500Y-6666611D01*
X3526598Y-6837701D01*
X3561336Y-6944614D01*
X3580128Y-7002447D01*
X3658768Y-7156788D01*
X3760586Y-7296928D01*
X3883072Y-7419414D01*
X4023212Y-7521232D01*
X4177555Y-7599873D01*
X4342299Y-7653402D01*
X4513389Y-7680500D01*
X4513390Y-7680500D01*
X4686610Y-7680500D01*
X4686611Y-7680500D01*
X4857701Y-7653402D01*
X5022445Y-7599873D01*
X5176788Y-7521232D01*
X5316928Y-7419414D01*
X5439414Y-7296928D01*
X5541232Y-7156788D01*
X5619873Y-7002445D01*
X5673402Y-6837701D01*
X5700500Y-6666611D01*
X5700500Y-6493389D01*
X5673402Y-6322299D01*
X5619873Y-6157555D01*
X5541232Y-6003212D01*
X5541230Y-6003209D01*
X5541229Y-6003207D01*
X5524946Y-5980795D01*
X5501466Y-5914988D01*
X5517292Y-5846935D01*
X5537579Y-5820233D01*
X5871282Y-5486530D01*
X7839500Y-5486530D01*
X7839500Y-5693469D01*
X7879868Y-5896412D01*
X7879870Y-5896420D01*
X7950726Y-6067482D01*
X7959059Y-6087598D01*
X8016541Y-6173626D01*
X8074024Y-6259657D01*
X8220342Y-6405975D01*
X8220345Y-6405977D01*
X8392402Y-6520941D01*
X8583580Y-6600130D01*
X8786530Y-6640499D01*
X8786534Y-6640500D01*
X8786535Y-6640500D01*
X8993466Y-6640500D01*
X8993467Y-6640499D01*
X9196420Y-6600130D01*
X9387598Y-6520941D01*
X9559655Y-6405977D01*
X9705977Y-6259655D01*
X9820941Y-6087598D01*
X9900130Y-5896420D01*
X9940500Y-5693465D01*
X9940500Y-5486535D01*
X9940499Y-5486530D01*
X15459500Y-5486530D01*
X15459500Y-5693469D01*
X15499868Y-5896412D01*
X15499870Y-5896420D01*
X15570726Y-6067482D01*
X15579059Y-6087598D01*
X15636541Y-6173626D01*
X15694024Y-6259657D01*
X15840342Y-6405975D01*
X15840345Y-6405977D01*
X16012402Y-6520941D01*
X16203580Y-6600130D01*
X16406530Y-6640499D01*
X16406534Y-6640500D01*
X16406535Y-6640500D01*
X16613466Y-6640500D01*
X16613467Y-6640499D01*
X16816420Y-6600130D01*
X17007598Y-6520941D01*
X17179655Y-6405977D01*
X17325977Y-6259655D01*
X17440941Y-6087598D01*
X17520130Y-5896420D01*
X17560500Y-5693465D01*
X17560500Y-5486535D01*
X17520130Y-5283580D01*
X17440941Y-5092402D01*
X17325977Y-4920345D01*
X17325975Y-4920342D01*
X17179657Y-4774024D01*
X17093119Y-4716202D01*
X17007598Y-4659059D01*
X17002808Y-4657075D01*
X16816420Y-4579870D01*
X16816412Y-4579868D01*
X16613469Y-4539500D01*
X16613465Y-4539500D01*
X16406535Y-4539500D01*
X16406530Y-4539500D01*
X16203587Y-4579868D01*
X16203579Y-4579870D01*
X16012403Y-4659058D01*
X15840342Y-4774024D01*
X15694024Y-4920342D01*
X15579058Y-5092403D01*
X15499870Y-5283579D01*
X15499868Y-5283587D01*
X15459500Y-5486530D01*
X9940499Y-5486530D01*
X9900130Y-5283580D01*
X9820941Y-5092402D01*
X9705977Y-4920345D01*
X9705975Y-4920342D01*
X9559657Y-4774024D01*
X9473119Y-4716202D01*
X9387598Y-4659059D01*
X9382808Y-4657075D01*
X9196420Y-4579870D01*
X9196412Y-4579868D01*
X8993469Y-4539500D01*
X8993465Y-4539500D01*
X8786535Y-4539500D01*
X8786530Y-4539500D01*
X8583587Y-4579868D01*
X8583579Y-4579870D01*
X8392403Y-4659058D01*
X8220342Y-4774024D01*
X8074024Y-4920342D01*
X7959058Y-5092403D01*
X7879870Y-5283579D01*
X7879868Y-5283587D01*
X7839500Y-5486530D01*
X5871282Y-5486530D01*
X7656345Y-3701468D01*
X7717666Y-3667985D01*
X7787358Y-3672969D01*
X7843291Y-3714841D01*
X7860206Y-3745817D01*
X7896203Y-3842330D01*
X7896206Y-3842335D01*
X7982452Y-3957544D01*
X7982455Y-3957547D01*
X8097664Y-4043793D01*
X8097671Y-4043797D01*
X8232517Y-4094091D01*
X8232516Y-4094091D01*
X8239444Y-4094835D01*
X8292127Y-4100500D01*
X9487872Y-4100499D01*
X9547483Y-4094091D01*
X9682331Y-4043796D01*
X9797546Y-3957546D01*
X9883796Y-3842331D01*
X9934091Y-3707483D01*
X9939062Y-3661242D01*
X9965799Y-3596694D01*
X10023191Y-3556846D01*
X10062351Y-3550500D01*
X12135890Y-3550500D01*
X12135892Y-3550500D01*
X12263186Y-3516392D01*
X12377314Y-3450500D01*
X13590994Y-2236818D01*
X13652317Y-2203334D01*
X13678675Y-2200500D01*
X15582204Y-2200500D01*
X15649243Y-2220185D01*
X15694998Y-2272989D01*
X15704942Y-2342147D01*
X15685306Y-2393390D01*
X15579059Y-2552399D01*
X15579059Y-2552400D01*
X15499870Y-2743579D01*
X15499868Y-2743587D01*
X15459500Y-2946530D01*
X15459500Y-3153469D01*
X15499868Y-3356412D01*
X15499870Y-3356420D01*
X15566132Y-3516391D01*
X15579059Y-3547598D01*
X15595484Y-3572180D01*
X15694024Y-3719657D01*
X15840342Y-3865975D01*
X15840345Y-3865977D01*
X16012402Y-3980941D01*
X16203580Y-4060130D01*
X16374315Y-4094091D01*
X16406530Y-4100499D01*
X16406534Y-4100500D01*
X16406535Y-4100500D01*
X16613466Y-4100500D01*
X16613467Y-4100499D01*
X16816420Y-4060130D01*
X17007598Y-3980941D01*
X17179655Y-3865977D01*
X17325977Y-3719655D01*
X17440941Y-3547598D01*
X17520130Y-3356420D01*
X17560500Y-3153465D01*
X17560500Y-2946535D01*
X17520130Y-2743580D01*
X17440941Y-2552402D01*
X17440940Y-2552400D01*
X17440940Y-2552399D01*
X17334694Y-2393390D01*
X17313816Y-2326713D01*
X17332301Y-2259333D01*
X17384280Y-2212643D01*
X17437796Y-2200500D01*
X18441324Y-2200500D01*
X18508363Y-2220185D01*
X18529005Y-2236819D01*
X19055159Y-2762972D01*
X19055169Y-2762983D01*
X19059499Y-2767313D01*
X19059500Y-2767314D01*
X19152686Y-2860500D01*
X19266814Y-2926392D01*
X19394107Y-2960500D01*
X19394108Y-2960500D01*
X19792209Y-2960500D01*
X19859248Y-2980185D01*
X19905003Y-3032989D01*
X19908391Y-3041167D01*
X19931202Y-3102328D01*
X19931206Y-3102335D01*
X20017452Y-3217544D01*
X20017455Y-3217547D01*
X20132664Y-3303793D01*
X20132671Y-3303797D01*
X20177618Y-3320561D01*
X20267517Y-3354091D01*
X20327127Y-3360500D01*
X20388771Y-3360499D01*
X20455808Y-3380183D01*
X20501564Y-3432986D01*
X20511508Y-3502144D01*
X20482484Y-3565700D01*
X20476452Y-3572180D01*
X20417048Y-3631584D01*
X20334919Y-3754498D01*
X20334912Y-3754511D01*
X20278343Y-3891082D01*
X20278340Y-3891092D01*
X20249500Y-4036079D01*
X20249500Y-4036082D01*
X20249500Y-4183918D01*
X20249500Y-4183920D01*
X20249499Y-4183920D01*
X20278340Y-4328907D01*
X20278343Y-4328917D01*
X20334912Y-4465488D01*
X20334920Y-4465503D01*
X20342153Y-4476327D01*
X20363032Y-4543004D01*
X20344548Y-4610384D01*
X20292570Y-4657075D01*
X20267585Y-4665892D01*
X20267522Y-4665906D01*
X20132671Y-4716202D01*
X20132664Y-4716206D01*
X20017455Y-4802452D01*
X20017452Y-4802455D01*
X19931206Y-4917664D01*
X19931202Y-4917671D01*
X19880908Y-5052517D01*
X19874501Y-5112116D01*
X19874501Y-5112123D01*
X19874500Y-5112135D01*
X19874500Y-6007870D01*
X19874501Y-6007876D01*
X19880908Y-6067483D01*
X19931202Y-6202328D01*
X19931206Y-6202335D01*
X20017452Y-6317544D01*
X20017455Y-6317547D01*
X20132664Y-6403793D01*
X20132671Y-6403797D01*
X20267517Y-6454091D01*
X20267516Y-6454091D01*
X20274444Y-6454835D01*
X20327127Y-6460500D01*
X21672872Y-6460499D01*
X21732483Y-6454091D01*
X21867331Y-6403796D01*
X21982546Y-6317546D01*
X22068796Y-6202331D01*
X22119091Y-6067483D01*
X22125500Y-6007873D01*
X22125499Y-5649999D01*
X23539102Y-5649999D01*
X23539102Y-5650000D01*
X25052115Y-5650000D01*
X25023978Y-5692110D01*
X24974979Y-5810402D01*
X24950000Y-5935981D01*
X24950000Y-6064019D01*
X24974979Y-6189598D01*
X25023978Y-6307890D01*
X25052115Y-6350000D01*
X23539102Y-6350000D01*
X23606230Y-6556604D01*
X23606231Y-6556607D01*
X23709849Y-6759966D01*
X23844004Y-6944614D01*
X24005385Y-7105995D01*
X24190033Y-7240150D01*
X24393395Y-7343769D01*
X24610455Y-7414295D01*
X24835884Y-7450000D01*
X25250000Y-7450000D01*
X25250000Y-6547885D01*
X25292110Y-6576022D01*
X25410402Y-6625021D01*
X25535981Y-6650000D01*
X25664019Y-6650000D01*
X25789598Y-6625021D01*
X25907890Y-6576022D01*
X25950000Y-6547885D01*
X25950000Y-7450000D01*
X26364116Y-7450000D01*
X26589544Y-7414295D01*
X26806604Y-7343769D01*
X27009966Y-7240150D01*
X27194614Y-7105995D01*
X27355995Y-6944614D01*
X27490150Y-6759966D01*
X27593768Y-6556607D01*
X27593769Y-6556604D01*
X27660898Y-6350000D01*
X26147885Y-6350000D01*
X26176022Y-6307890D01*
X26225021Y-6189598D01*
X26250000Y-6064019D01*
X26250000Y-5935981D01*
X26225021Y-5810402D01*
X26176022Y-5692110D01*
X26147885Y-5650000D01*
X27660898Y-5650000D01*
X27660897Y-5649999D01*
X36039102Y-5649999D01*
X36039102Y-5650000D01*
X37552115Y-5650000D01*
X37523978Y-5692110D01*
X37474979Y-5810402D01*
X37450000Y-5935981D01*
X37450000Y-6064019D01*
X37474979Y-6189598D01*
X37523978Y-6307890D01*
X37552115Y-6350000D01*
X36039102Y-6350000D01*
X36106230Y-6556604D01*
X36106231Y-6556607D01*
X36209849Y-6759966D01*
X36344004Y-6944614D01*
X36505385Y-7105995D01*
X36690033Y-7240150D01*
X36893395Y-7343769D01*
X37110455Y-7414295D01*
X37335884Y-7450000D01*
X37750000Y-7450000D01*
X37750000Y-6547885D01*
X37792110Y-6576022D01*
X37910402Y-6625021D01*
X38035981Y-6650000D01*
X38164019Y-6650000D01*
X38289598Y-6625021D01*
X38407890Y-6576022D01*
X38450000Y-6547885D01*
X38450000Y-7450000D01*
X38864116Y-7450000D01*
X39089544Y-7414295D01*
X39306604Y-7343769D01*
X39509966Y-7240150D01*
X39694614Y-7105995D01*
X39855995Y-6944614D01*
X39990150Y-6759966D01*
X40093768Y-6556607D01*
X40093769Y-6556604D01*
X40160898Y-6350000D01*
X38647885Y-6350000D01*
X38676022Y-6307890D01*
X38725021Y-6189598D01*
X38750000Y-6064019D01*
X38750000Y-5935981D01*
X38725021Y-5810402D01*
X38676022Y-5692110D01*
X38647885Y-5650000D01*
X40160898Y-5650000D01*
X40160897Y-5649999D01*
X40093769Y-5443395D01*
X40093768Y-5443392D01*
X39990150Y-5240033D01*
X39855995Y-5055385D01*
X39694614Y-4894004D01*
X39509966Y-4759849D01*
X39306604Y-4656230D01*
X39089544Y-4585704D01*
X38864116Y-4550000D01*
X38450000Y-4550000D01*
X38450000Y-5452114D01*
X38407890Y-5423978D01*
X38289598Y-5374979D01*
X38164019Y-5350000D01*
X38035981Y-5350000D01*
X37910402Y-5374979D01*
X37792110Y-5423978D01*
X37750000Y-5452114D01*
X37750000Y-4550000D01*
X37335884Y-4550000D01*
X37110455Y-4585704D01*
X36893395Y-4656230D01*
X36690033Y-4759849D01*
X36505385Y-4894004D01*
X36344004Y-5055385D01*
X36209849Y-5240033D01*
X36106231Y-5443392D01*
X36106230Y-5443395D01*
X36039102Y-5649999D01*
X27660897Y-5649999D01*
X27593769Y-5443395D01*
X27593768Y-5443392D01*
X27490150Y-5240033D01*
X27355995Y-5055385D01*
X27194614Y-4894004D01*
X27009966Y-4759849D01*
X26806604Y-4656230D01*
X26589544Y-4585704D01*
X26364116Y-4550000D01*
X25950000Y-4550000D01*
X25950000Y-5452114D01*
X25907890Y-5423978D01*
X25789598Y-5374979D01*
X25664019Y-5350000D01*
X25535981Y-5350000D01*
X25410402Y-5374979D01*
X25292110Y-5423978D01*
X25250000Y-5452114D01*
X25250000Y-4550000D01*
X24835884Y-4550000D01*
X24610455Y-4585704D01*
X24393395Y-4656230D01*
X24190033Y-4759849D01*
X24005385Y-4894004D01*
X23844004Y-5055385D01*
X23709849Y-5240033D01*
X23606231Y-5443392D01*
X23606230Y-5443395D01*
X23539102Y-5649999D01*
X22125499Y-5649999D01*
X22125499Y-5506598D01*
X22125499Y-5112129D01*
X22125498Y-5112123D01*
X22125497Y-5112116D01*
X22119091Y-5052517D01*
X22068796Y-4917669D01*
X22068795Y-4917668D01*
X22068793Y-4917664D01*
X21982547Y-4802455D01*
X21982544Y-4802452D01*
X21867335Y-4716206D01*
X21867328Y-4716202D01*
X21732483Y-4665908D01*
X21732433Y-4665897D01*
X21732398Y-4665877D01*
X21725215Y-4663198D01*
X21725649Y-4662034D01*
X21671716Y-4631324D01*
X21639330Y-4569414D01*
X21645556Y-4499822D01*
X21657847Y-4476326D01*
X21658387Y-4475517D01*
X21665084Y-4465495D01*
X21721658Y-4328913D01*
X21750500Y-4183918D01*
X21750500Y-4036082D01*
X21750500Y-4036079D01*
X21721659Y-3891092D01*
X21721658Y-3891091D01*
X21721658Y-3891087D01*
X21711256Y-3865975D01*
X21665087Y-3754511D01*
X21665080Y-3754498D01*
X21582951Y-3631584D01*
X21582948Y-3631580D01*
X21523548Y-3572180D01*
X21490063Y-3510857D01*
X21495047Y-3441165D01*
X21536919Y-3385232D01*
X21602383Y-3360815D01*
X21611229Y-3360499D01*
X21672871Y-3360499D01*
X21672872Y-3360499D01*
X21732483Y-3354091D01*
X21867331Y-3303796D01*
X21982546Y-3217546D01*
X22068796Y-3102331D01*
X22119091Y-2967483D01*
X22125500Y-2907873D01*
X22125499Y-2012128D01*
X22119091Y-1952517D01*
X22114353Y-1939815D01*
X22068797Y-1817671D01*
X22068793Y-1817664D01*
X21982547Y-1702455D01*
X21982544Y-1702452D01*
X21867335Y-1616206D01*
X21867328Y-1616202D01*
X21732482Y-1565908D01*
X21732483Y-1565908D01*
X21672883Y-1559501D01*
X21672881Y-1559500D01*
X21672873Y-1559500D01*
X21672864Y-1559500D01*
X20327129Y-1559500D01*
X20327123Y-1559501D01*
X20267516Y-1565908D01*
X20132671Y-1616202D01*
X20132664Y-1616206D01*
X20017455Y-1702452D01*
X20017452Y-1702455D01*
X19931206Y-1817664D01*
X19931202Y-1817671D01*
X19908391Y-1878833D01*
X19895121Y-1896559D01*
X19885922Y-1916703D01*
X19874591Y-1923984D01*
X19866520Y-1934767D01*
X19845771Y-1942505D01*
X19827144Y-1954477D01*
X19805227Y-1957628D01*
X19801056Y-1959184D01*
X19792209Y-1959500D01*
X19718675Y-1959500D01*
X19651636Y-1939815D01*
X19630994Y-1923181D01*
X19324019Y-1616206D01*
X19007314Y-1299500D01*
X18950250Y-1266554D01*
X18893187Y-1233608D01*
X18829539Y-1216554D01*
X18765892Y-1199500D01*
X13485892Y-1199500D01*
X13354107Y-1199500D01*
X13226812Y-1233608D01*
X13112686Y-1299500D01*
X13112683Y-1299502D01*
X11899005Y-2513181D01*
X11837682Y-2546666D01*
X11811324Y-2549500D01*
X10062351Y-2549500D01*
X9995312Y-2529815D01*
X9949557Y-2477011D01*
X9939061Y-2438752D01*
X9934091Y-2392516D01*
X9883797Y-2257671D01*
X9883793Y-2257664D01*
X9797547Y-2142455D01*
X9797544Y-2142452D01*
X9682335Y-2056206D01*
X9682328Y-2056202D01*
X9547482Y-2005908D01*
X9547483Y-2005908D01*
X9487883Y-1999501D01*
X9487881Y-1999500D01*
X9487873Y-1999500D01*
X9487864Y-1999500D01*
X8292129Y-1999500D01*
X8292123Y-1999501D01*
X8232516Y-2005908D01*
X8097671Y-2056202D01*
X8097664Y-2056206D01*
X7982455Y-2142452D01*
X7982452Y-2142455D01*
X7896206Y-2257664D01*
X7896202Y-2257671D01*
X7845910Y-2392513D01*
X7845909Y-2392517D01*
X7840937Y-2438757D01*
X7814201Y-2503306D01*
X7756809Y-2543154D01*
X7717649Y-2549500D01*
X7534108Y-2549500D01*
X7406812Y-2583608D01*
X7292686Y-2649500D01*
X7292683Y-2649502D01*
X4481633Y-5460551D01*
X4420310Y-5494036D01*
X4413352Y-5495343D01*
X4342301Y-5506597D01*
X4177552Y-5560128D01*
X4023211Y-5638768D01*
X3977787Y-5671771D01*
X3883072Y-5740586D01*
X3883070Y-5740588D01*
X3883069Y-5740588D01*
X3760588Y-5863069D01*
X3760588Y-5863070D01*
X3760586Y-5863072D01*
X3737304Y-5895117D01*
X3658768Y-6003211D01*
X3580128Y-6157552D01*
X3526597Y-6322302D01*
X3512018Y-6414351D01*
X3499500Y-6493389D01*
X3160500Y-6493389D01*
X3133402Y-6322299D01*
X3079873Y-6157555D01*
X3001232Y-6003212D01*
X2899414Y-5863072D01*
X2776928Y-5740586D01*
X2636788Y-5638768D01*
X2482445Y-5560127D01*
X2317701Y-5506598D01*
X2317699Y-5506597D01*
X2317698Y-5506597D01*
X2186271Y-5485781D01*
X2146611Y-5479500D01*
X1973389Y-5479500D01*
X1933728Y-5485781D01*
X1802302Y-5506597D01*
X1637552Y-5560128D01*
X1483211Y-5638768D01*
X1437787Y-5671771D01*
X1343072Y-5740586D01*
X1343070Y-5740588D01*
X1343069Y-5740588D01*
X1220588Y-5863069D01*
X1220588Y-5863070D01*
X1220586Y-5863072D01*
X1197304Y-5895117D01*
X1118768Y-6003211D01*
X1040128Y-6157552D01*
X986597Y-6322302D01*
X972018Y-6414351D01*
X959500Y-6493389D01*
X959500Y-6666611D01*
X986598Y-6837701D01*
X1021336Y-6944614D01*
X1040128Y-7002447D01*
X1118768Y-7156788D01*
X1220586Y-7296928D01*
X1343072Y-7419414D01*
X1483212Y-7521232D01*
X1637555Y-7599873D01*
X1640708Y-7600897D01*
X1641752Y-7601611D01*
X1642048Y-7601734D01*
X1642022Y-7601795D01*
X1698383Y-7640330D01*
X1725585Y-7704688D01*
X1713674Y-7773535D01*
X1666433Y-7825013D01*
X1640712Y-7836760D01*
X1541783Y-7868904D01*
X1384181Y-7949207D01*
X2054974Y-8620000D01*
X1994174Y-8620000D01*
X1867007Y-8654075D01*
X1752993Y-8719901D01*
X1659901Y-8812993D01*
X1594075Y-8927007D01*
X1560000Y-9054174D01*
X1560000Y-9114974D01*
X889207Y-8444181D01*
X808904Y-8601782D01*
X742431Y-8806367D01*
X702994Y-8864043D01*
X638635Y-8891241D01*
X569789Y-8879326D01*
X518313Y-8832082D01*
X500500Y-8768049D01*
X500500Y-1901577D01*
X4119500Y-1901577D01*
X4119500Y-2098422D01*
X4150290Y-2292826D01*
X4211117Y-2480029D01*
X4297467Y-2649500D01*
X4300476Y-2655405D01*
X4416172Y-2814646D01*
X4555354Y-2953828D01*
X4714595Y-3069524D01*
X4778977Y-3102328D01*
X4889970Y-3158882D01*
X4889972Y-3158882D01*
X4889975Y-3158884D01*
X4990317Y-3191487D01*
X5077173Y-3219709D01*
X5271578Y-3250500D01*
X5271583Y-3250500D01*
X5468422Y-3250500D01*
X5662826Y-3219709D01*
X5669489Y-3217544D01*
X5850025Y-3158884D01*
X6025405Y-3069524D01*
X6184646Y-2953828D01*
X6323828Y-2814646D01*
X6439524Y-2655405D01*
X6528884Y-2480025D01*
X6589709Y-2292826D01*
X6598580Y-2236819D01*
X6620500Y-2098422D01*
X6620500Y-1901577D01*
X6589709Y-1707173D01*
X6543809Y-1565909D01*
X6528884Y-1519975D01*
X6528882Y-1519972D01*
X6528882Y-1519970D01*
X6439523Y-1344594D01*
X6323828Y-1185354D01*
X6184646Y-1046172D01*
X6025405Y-930476D01*
X5850029Y-841117D01*
X5662826Y-780290D01*
X5468422Y-749500D01*
X5468417Y-749500D01*
X5271583Y-749500D01*
X5271578Y-749500D01*
X5077173Y-780290D01*
X4889970Y-841117D01*
X4714594Y-930476D01*
X4623741Y-996485D01*
X4555354Y-1046172D01*
X4555352Y-1046174D01*
X4555351Y-1046174D01*
X4416174Y-1185351D01*
X4416174Y-1185352D01*
X4416172Y-1185354D01*
X4381113Y-1233608D01*
X4300476Y-1344594D01*
X4211117Y-1519970D01*
X4150290Y-1707173D01*
X4119500Y-1901577D01*
X500500Y-1901577D01*
X500500Y-624500D01*
X520185Y-557461D01*
X572989Y-511706D01*
X624500Y-500500D01*
X40375500Y-500500D01*
X40442539Y-520185D01*
G37*
%TD.AperFunction*%
%TA.AperFunction,Conductor*%
G36*
X1560000Y-9185826D02*
G01*
X1594075Y-9312993D01*
X1659901Y-9427007D01*
X1752993Y-9520099D01*
X1867007Y-9585925D01*
X1994174Y-9620000D01*
X2054973Y-9620000D01*
X1384180Y-10290791D01*
X1541783Y-10371094D01*
X1640712Y-10403239D01*
X1698388Y-10442677D01*
X1725586Y-10507035D01*
X1713671Y-10575882D01*
X1666427Y-10627357D01*
X1640722Y-10639097D01*
X1639522Y-10639487D01*
X1637550Y-10640128D01*
X1483211Y-10718768D01*
X1405070Y-10775542D01*
X1343072Y-10820586D01*
X1343070Y-10820588D01*
X1343069Y-10820588D01*
X1220588Y-10943069D01*
X1220588Y-10943070D01*
X1220586Y-10943072D01*
X1197809Y-10974422D01*
X1118768Y-11083211D01*
X1040128Y-11237552D01*
X986597Y-11402302D01*
X959500Y-11573389D01*
X959500Y-11746610D01*
X986597Y-11917697D01*
X989576Y-11926866D01*
X991568Y-11996707D01*
X959324Y-12052860D01*
X712181Y-12300004D01*
X650858Y-12333489D01*
X581167Y-12328505D01*
X525233Y-12286634D01*
X500816Y-12221169D01*
X500500Y-12212323D01*
X500500Y-9471949D01*
X520185Y-9404910D01*
X572989Y-9359155D01*
X642147Y-9349211D01*
X705703Y-9378236D01*
X742431Y-9433631D01*
X808907Y-9638222D01*
X889206Y-9795817D01*
X1560000Y-9125025D01*
X1560000Y-9185826D01*
G37*
%TD.AperFunction*%
%TD*%
M02*
