%TF.GenerationSoftware,KiCad,Pcbnew,9.0.3*%
%TF.CreationDate,2025-07-13T14:18:37+05:30*%
%TF.ProjectId,lighting_pcb_tht,6c696768-7469-46e6-975f-7063625f7468,rev?*%
%TF.SameCoordinates,Original*%
%TF.FileFunction,Legend,Top*%
%TF.FilePolarity,Positive*%
%FSLAX46Y46*%
G04 Gerber Fmt 4.6, Leading zero omitted, Abs format (unit mm)*
G04 Created by KiCad (PCBNEW 9.0.3) date 2025-07-13 14:18:37*
%MOMM*%
%LPD*%
G01*
G04 APERTURE LIST*
%ADD10C,0.170000*%
%ADD11C,0.150000*%
%ADD12C,0.120000*%
G04 APERTURE END LIST*
D10*
X37296127Y-48054302D02*
X37981842Y-48054302D01*
X37638984Y-49254302D02*
X37638984Y-48054302D01*
X38610413Y-48054302D02*
X38838985Y-48054302D01*
X38838985Y-48054302D02*
X38953270Y-48111445D01*
X38953270Y-48111445D02*
X39067556Y-48225731D01*
X39067556Y-48225731D02*
X39124699Y-48454302D01*
X39124699Y-48454302D02*
X39124699Y-48854302D01*
X39124699Y-48854302D02*
X39067556Y-49082874D01*
X39067556Y-49082874D02*
X38953270Y-49197160D01*
X38953270Y-49197160D02*
X38838985Y-49254302D01*
X38838985Y-49254302D02*
X38610413Y-49254302D01*
X38610413Y-49254302D02*
X38496128Y-49197160D01*
X38496128Y-49197160D02*
X38381842Y-49082874D01*
X38381842Y-49082874D02*
X38324699Y-48854302D01*
X38324699Y-48854302D02*
X38324699Y-48454302D01*
X38324699Y-48454302D02*
X38381842Y-48225731D01*
X38381842Y-48225731D02*
X38496128Y-48111445D01*
X38496128Y-48111445D02*
X38610413Y-48054302D01*
X39638985Y-49254302D02*
X39638985Y-48054302D01*
X39638985Y-48054302D02*
X40096128Y-48054302D01*
X40096128Y-48054302D02*
X40210413Y-48111445D01*
X40210413Y-48111445D02*
X40267556Y-48168588D01*
X40267556Y-48168588D02*
X40324699Y-48282874D01*
X40324699Y-48282874D02*
X40324699Y-48454302D01*
X40324699Y-48454302D02*
X40267556Y-48568588D01*
X40267556Y-48568588D02*
X40210413Y-48625731D01*
X40210413Y-48625731D02*
X40096128Y-48682874D01*
X40096128Y-48682874D02*
X39638985Y-48682874D01*
X23080000Y-25992017D02*
X23022857Y-26049160D01*
X23022857Y-26049160D02*
X22851429Y-26106302D01*
X22851429Y-26106302D02*
X22737143Y-26106302D01*
X22737143Y-26106302D02*
X22565714Y-26049160D01*
X22565714Y-26049160D02*
X22451429Y-25934874D01*
X22451429Y-25934874D02*
X22394286Y-25820588D01*
X22394286Y-25820588D02*
X22337143Y-25592017D01*
X22337143Y-25592017D02*
X22337143Y-25420588D01*
X22337143Y-25420588D02*
X22394286Y-25192017D01*
X22394286Y-25192017D02*
X22451429Y-25077731D01*
X22451429Y-25077731D02*
X22565714Y-24963445D01*
X22565714Y-24963445D02*
X22737143Y-24906302D01*
X22737143Y-24906302D02*
X22851429Y-24906302D01*
X22851429Y-24906302D02*
X23022857Y-24963445D01*
X23022857Y-24963445D02*
X23080000Y-25020588D01*
X24222857Y-26106302D02*
X23537143Y-26106302D01*
X23880000Y-26106302D02*
X23880000Y-24906302D01*
X23880000Y-24906302D02*
X23765714Y-25077731D01*
X23765714Y-25077731D02*
X23651429Y-25192017D01*
X23651429Y-25192017D02*
X23537143Y-25249160D01*
X22344286Y-15848802D02*
X22344286Y-14648802D01*
X22344286Y-14648802D02*
X22630000Y-14648802D01*
X22630000Y-14648802D02*
X22801429Y-14705945D01*
X22801429Y-14705945D02*
X22915714Y-14820231D01*
X22915714Y-14820231D02*
X22972857Y-14934517D01*
X22972857Y-14934517D02*
X23030000Y-15163088D01*
X23030000Y-15163088D02*
X23030000Y-15334517D01*
X23030000Y-15334517D02*
X22972857Y-15563088D01*
X22972857Y-15563088D02*
X22915714Y-15677374D01*
X22915714Y-15677374D02*
X22801429Y-15791660D01*
X22801429Y-15791660D02*
X22630000Y-15848802D01*
X22630000Y-15848802D02*
X22344286Y-15848802D01*
X24172857Y-15848802D02*
X23487143Y-15848802D01*
X23830000Y-15848802D02*
X23830000Y-14648802D01*
X23830000Y-14648802D02*
X23715714Y-14820231D01*
X23715714Y-14820231D02*
X23601429Y-14934517D01*
X23601429Y-14934517D02*
X23487143Y-14991660D01*
X23000000Y-9148802D02*
X22600000Y-8577374D01*
X22314286Y-9148802D02*
X22314286Y-7948802D01*
X22314286Y-7948802D02*
X22771429Y-7948802D01*
X22771429Y-7948802D02*
X22885714Y-8005945D01*
X22885714Y-8005945D02*
X22942857Y-8063088D01*
X22942857Y-8063088D02*
X23000000Y-8177374D01*
X23000000Y-8177374D02*
X23000000Y-8348802D01*
X23000000Y-8348802D02*
X22942857Y-8463088D01*
X22942857Y-8463088D02*
X22885714Y-8520231D01*
X22885714Y-8520231D02*
X22771429Y-8577374D01*
X22771429Y-8577374D02*
X22314286Y-8577374D01*
X23400000Y-7948802D02*
X24142857Y-7948802D01*
X24142857Y-7948802D02*
X23742857Y-8405945D01*
X23742857Y-8405945D02*
X23914286Y-8405945D01*
X23914286Y-8405945D02*
X24028572Y-8463088D01*
X24028572Y-8463088D02*
X24085714Y-8520231D01*
X24085714Y-8520231D02*
X24142857Y-8634517D01*
X24142857Y-8634517D02*
X24142857Y-8920231D01*
X24142857Y-8920231D02*
X24085714Y-9034517D01*
X24085714Y-9034517D02*
X24028572Y-9091660D01*
X24028572Y-9091660D02*
X23914286Y-9148802D01*
X23914286Y-9148802D02*
X23571429Y-9148802D01*
X23571429Y-9148802D02*
X23457143Y-9091660D01*
X23457143Y-9091660D02*
X23400000Y-9034517D01*
X23040000Y-2728802D02*
X22640000Y-2157374D01*
X22354286Y-2728802D02*
X22354286Y-1528802D01*
X22354286Y-1528802D02*
X22811429Y-1528802D01*
X22811429Y-1528802D02*
X22925714Y-1585945D01*
X22925714Y-1585945D02*
X22982857Y-1643088D01*
X22982857Y-1643088D02*
X23040000Y-1757374D01*
X23040000Y-1757374D02*
X23040000Y-1928802D01*
X23040000Y-1928802D02*
X22982857Y-2043088D01*
X22982857Y-2043088D02*
X22925714Y-2100231D01*
X22925714Y-2100231D02*
X22811429Y-2157374D01*
X22811429Y-2157374D02*
X22354286Y-2157374D01*
X24182857Y-2728802D02*
X23497143Y-2728802D01*
X23840000Y-2728802D02*
X23840000Y-1528802D01*
X23840000Y-1528802D02*
X23725714Y-1700231D01*
X23725714Y-1700231D02*
X23611429Y-1814517D01*
X23611429Y-1814517D02*
X23497143Y-1871660D01*
X30250000Y-35079160D02*
X30421429Y-35136302D01*
X30421429Y-35136302D02*
X30707143Y-35136302D01*
X30707143Y-35136302D02*
X30821429Y-35079160D01*
X30821429Y-35079160D02*
X30878571Y-35022017D01*
X30878571Y-35022017D02*
X30935714Y-34907731D01*
X30935714Y-34907731D02*
X30935714Y-34793445D01*
X30935714Y-34793445D02*
X30878571Y-34679160D01*
X30878571Y-34679160D02*
X30821429Y-34622017D01*
X30821429Y-34622017D02*
X30707143Y-34564874D01*
X30707143Y-34564874D02*
X30478571Y-34507731D01*
X30478571Y-34507731D02*
X30364286Y-34450588D01*
X30364286Y-34450588D02*
X30307143Y-34393445D01*
X30307143Y-34393445D02*
X30250000Y-34279160D01*
X30250000Y-34279160D02*
X30250000Y-34164874D01*
X30250000Y-34164874D02*
X30307143Y-34050588D01*
X30307143Y-34050588D02*
X30364286Y-33993445D01*
X30364286Y-33993445D02*
X30478571Y-33936302D01*
X30478571Y-33936302D02*
X30764286Y-33936302D01*
X30764286Y-33936302D02*
X30935714Y-33993445D01*
X31335714Y-33936302D02*
X31621428Y-35136302D01*
X31621428Y-35136302D02*
X31850000Y-34279160D01*
X31850000Y-34279160D02*
X32078571Y-35136302D01*
X32078571Y-35136302D02*
X32364286Y-33936302D01*
X32707143Y-33936302D02*
X33450000Y-33936302D01*
X33450000Y-33936302D02*
X33050000Y-34393445D01*
X33050000Y-34393445D02*
X33221429Y-34393445D01*
X33221429Y-34393445D02*
X33335715Y-34450588D01*
X33335715Y-34450588D02*
X33392857Y-34507731D01*
X33392857Y-34507731D02*
X33450000Y-34622017D01*
X33450000Y-34622017D02*
X33450000Y-34907731D01*
X33450000Y-34907731D02*
X33392857Y-35022017D01*
X33392857Y-35022017D02*
X33335715Y-35079160D01*
X33335715Y-35079160D02*
X33221429Y-35136302D01*
X33221429Y-35136302D02*
X32878572Y-35136302D01*
X32878572Y-35136302D02*
X32764286Y-35079160D01*
X32764286Y-35079160D02*
X32707143Y-35022017D01*
X30250000Y-18569160D02*
X30421429Y-18626302D01*
X30421429Y-18626302D02*
X30707143Y-18626302D01*
X30707143Y-18626302D02*
X30821429Y-18569160D01*
X30821429Y-18569160D02*
X30878571Y-18512017D01*
X30878571Y-18512017D02*
X30935714Y-18397731D01*
X30935714Y-18397731D02*
X30935714Y-18283445D01*
X30935714Y-18283445D02*
X30878571Y-18169160D01*
X30878571Y-18169160D02*
X30821429Y-18112017D01*
X30821429Y-18112017D02*
X30707143Y-18054874D01*
X30707143Y-18054874D02*
X30478571Y-17997731D01*
X30478571Y-17997731D02*
X30364286Y-17940588D01*
X30364286Y-17940588D02*
X30307143Y-17883445D01*
X30307143Y-17883445D02*
X30250000Y-17769160D01*
X30250000Y-17769160D02*
X30250000Y-17654874D01*
X30250000Y-17654874D02*
X30307143Y-17540588D01*
X30307143Y-17540588D02*
X30364286Y-17483445D01*
X30364286Y-17483445D02*
X30478571Y-17426302D01*
X30478571Y-17426302D02*
X30764286Y-17426302D01*
X30764286Y-17426302D02*
X30935714Y-17483445D01*
X31335714Y-17426302D02*
X31621428Y-18626302D01*
X31621428Y-18626302D02*
X31850000Y-17769160D01*
X31850000Y-17769160D02*
X32078571Y-18626302D01*
X32078571Y-18626302D02*
X32364286Y-17426302D01*
X32764286Y-17540588D02*
X32821429Y-17483445D01*
X32821429Y-17483445D02*
X32935715Y-17426302D01*
X32935715Y-17426302D02*
X33221429Y-17426302D01*
X33221429Y-17426302D02*
X33335715Y-17483445D01*
X33335715Y-17483445D02*
X33392857Y-17540588D01*
X33392857Y-17540588D02*
X33450000Y-17654874D01*
X33450000Y-17654874D02*
X33450000Y-17769160D01*
X33450000Y-17769160D02*
X33392857Y-17940588D01*
X33392857Y-17940588D02*
X32707143Y-18626302D01*
X32707143Y-18626302D02*
X33450000Y-18626302D01*
X23460000Y-34402017D02*
X23402857Y-34459160D01*
X23402857Y-34459160D02*
X23231429Y-34516302D01*
X23231429Y-34516302D02*
X23117143Y-34516302D01*
X23117143Y-34516302D02*
X22945714Y-34459160D01*
X22945714Y-34459160D02*
X22831429Y-34344874D01*
X22831429Y-34344874D02*
X22774286Y-34230588D01*
X22774286Y-34230588D02*
X22717143Y-34002017D01*
X22717143Y-34002017D02*
X22717143Y-33830588D01*
X22717143Y-33830588D02*
X22774286Y-33602017D01*
X22774286Y-33602017D02*
X22831429Y-33487731D01*
X22831429Y-33487731D02*
X22945714Y-33373445D01*
X22945714Y-33373445D02*
X23117143Y-33316302D01*
X23117143Y-33316302D02*
X23231429Y-33316302D01*
X23231429Y-33316302D02*
X23402857Y-33373445D01*
X23402857Y-33373445D02*
X23460000Y-33430588D01*
X23860000Y-33316302D02*
X24602857Y-33316302D01*
X24602857Y-33316302D02*
X24202857Y-33773445D01*
X24202857Y-33773445D02*
X24374286Y-33773445D01*
X24374286Y-33773445D02*
X24488572Y-33830588D01*
X24488572Y-33830588D02*
X24545714Y-33887731D01*
X24545714Y-33887731D02*
X24602857Y-34002017D01*
X24602857Y-34002017D02*
X24602857Y-34287731D01*
X24602857Y-34287731D02*
X24545714Y-34402017D01*
X24545714Y-34402017D02*
X24488572Y-34459160D01*
X24488572Y-34459160D02*
X24374286Y-34516302D01*
X24374286Y-34516302D02*
X24031429Y-34516302D01*
X24031429Y-34516302D02*
X23917143Y-34459160D01*
X23917143Y-34459160D02*
X23860000Y-34402017D01*
D11*
X2996666Y-16034819D02*
X2996666Y-16749104D01*
X2996666Y-16749104D02*
X2949047Y-16891961D01*
X2949047Y-16891961D02*
X2853809Y-16987200D01*
X2853809Y-16987200D02*
X2710952Y-17034819D01*
X2710952Y-17034819D02*
X2615714Y-17034819D01*
X3425238Y-16130057D02*
X3472857Y-16082438D01*
X3472857Y-16082438D02*
X3568095Y-16034819D01*
X3568095Y-16034819D02*
X3806190Y-16034819D01*
X3806190Y-16034819D02*
X3901428Y-16082438D01*
X3901428Y-16082438D02*
X3949047Y-16130057D01*
X3949047Y-16130057D02*
X3996666Y-16225295D01*
X3996666Y-16225295D02*
X3996666Y-16320533D01*
X3996666Y-16320533D02*
X3949047Y-16463390D01*
X3949047Y-16463390D02*
X3377619Y-17034819D01*
X3377619Y-17034819D02*
X3996666Y-17034819D01*
D10*
X18070000Y-46716302D02*
X18070000Y-47573445D01*
X18070000Y-47573445D02*
X18012857Y-47744874D01*
X18012857Y-47744874D02*
X17898571Y-47859160D01*
X17898571Y-47859160D02*
X17727143Y-47916302D01*
X17727143Y-47916302D02*
X17612857Y-47916302D01*
X19270000Y-47916302D02*
X18584286Y-47916302D01*
X18927143Y-47916302D02*
X18927143Y-46716302D01*
X18927143Y-46716302D02*
X18812857Y-46887731D01*
X18812857Y-46887731D02*
X18698572Y-47002017D01*
X18698572Y-47002017D02*
X18584286Y-47059160D01*
X11865714Y-276302D02*
X11865714Y-1247731D01*
X11865714Y-1247731D02*
X11922857Y-1362017D01*
X11922857Y-1362017D02*
X11980000Y-1419160D01*
X11980000Y-1419160D02*
X12094285Y-1476302D01*
X12094285Y-1476302D02*
X12322857Y-1476302D01*
X12322857Y-1476302D02*
X12437142Y-1419160D01*
X12437142Y-1419160D02*
X12494285Y-1362017D01*
X12494285Y-1362017D02*
X12551428Y-1247731D01*
X12551428Y-1247731D02*
X12551428Y-276302D01*
X13751428Y-1476302D02*
X13065714Y-1476302D01*
X13408571Y-1476302D02*
X13408571Y-276302D01*
X13408571Y-276302D02*
X13294285Y-447731D01*
X13294285Y-447731D02*
X13180000Y-562017D01*
X13180000Y-562017D02*
X13065714Y-619160D01*
X23000000Y-42596302D02*
X22600000Y-42024874D01*
X22314286Y-42596302D02*
X22314286Y-41396302D01*
X22314286Y-41396302D02*
X22771429Y-41396302D01*
X22771429Y-41396302D02*
X22885714Y-41453445D01*
X22885714Y-41453445D02*
X22942857Y-41510588D01*
X22942857Y-41510588D02*
X23000000Y-41624874D01*
X23000000Y-41624874D02*
X23000000Y-41796302D01*
X23000000Y-41796302D02*
X22942857Y-41910588D01*
X22942857Y-41910588D02*
X22885714Y-41967731D01*
X22885714Y-41967731D02*
X22771429Y-42024874D01*
X22771429Y-42024874D02*
X22314286Y-42024874D01*
X23457143Y-41510588D02*
X23514286Y-41453445D01*
X23514286Y-41453445D02*
X23628572Y-41396302D01*
X23628572Y-41396302D02*
X23914286Y-41396302D01*
X23914286Y-41396302D02*
X24028572Y-41453445D01*
X24028572Y-41453445D02*
X24085714Y-41510588D01*
X24085714Y-41510588D02*
X24142857Y-41624874D01*
X24142857Y-41624874D02*
X24142857Y-41739160D01*
X24142857Y-41739160D02*
X24085714Y-41910588D01*
X24085714Y-41910588D02*
X23400000Y-42596302D01*
X23400000Y-42596302D02*
X24142857Y-42596302D01*
X5020000Y-19032017D02*
X4962857Y-19089160D01*
X4962857Y-19089160D02*
X4791429Y-19146302D01*
X4791429Y-19146302D02*
X4677143Y-19146302D01*
X4677143Y-19146302D02*
X4505714Y-19089160D01*
X4505714Y-19089160D02*
X4391429Y-18974874D01*
X4391429Y-18974874D02*
X4334286Y-18860588D01*
X4334286Y-18860588D02*
X4277143Y-18632017D01*
X4277143Y-18632017D02*
X4277143Y-18460588D01*
X4277143Y-18460588D02*
X4334286Y-18232017D01*
X4334286Y-18232017D02*
X4391429Y-18117731D01*
X4391429Y-18117731D02*
X4505714Y-18003445D01*
X4505714Y-18003445D02*
X4677143Y-17946302D01*
X4677143Y-17946302D02*
X4791429Y-17946302D01*
X4791429Y-17946302D02*
X4962857Y-18003445D01*
X4962857Y-18003445D02*
X5020000Y-18060588D01*
X5477143Y-18060588D02*
X5534286Y-18003445D01*
X5534286Y-18003445D02*
X5648572Y-17946302D01*
X5648572Y-17946302D02*
X5934286Y-17946302D01*
X5934286Y-17946302D02*
X6048572Y-18003445D01*
X6048572Y-18003445D02*
X6105714Y-18060588D01*
X6105714Y-18060588D02*
X6162857Y-18174874D01*
X6162857Y-18174874D02*
X6162857Y-18289160D01*
X6162857Y-18289160D02*
X6105714Y-18460588D01*
X6105714Y-18460588D02*
X5420000Y-19146302D01*
X5420000Y-19146302D02*
X6162857Y-19146302D01*
X23120000Y-31334517D02*
X23062857Y-31391660D01*
X23062857Y-31391660D02*
X22891429Y-31448802D01*
X22891429Y-31448802D02*
X22777143Y-31448802D01*
X22777143Y-31448802D02*
X22605714Y-31391660D01*
X22605714Y-31391660D02*
X22491429Y-31277374D01*
X22491429Y-31277374D02*
X22434286Y-31163088D01*
X22434286Y-31163088D02*
X22377143Y-30934517D01*
X22377143Y-30934517D02*
X22377143Y-30763088D01*
X22377143Y-30763088D02*
X22434286Y-30534517D01*
X22434286Y-30534517D02*
X22491429Y-30420231D01*
X22491429Y-30420231D02*
X22605714Y-30305945D01*
X22605714Y-30305945D02*
X22777143Y-30248802D01*
X22777143Y-30248802D02*
X22891429Y-30248802D01*
X22891429Y-30248802D02*
X23062857Y-30305945D01*
X23062857Y-30305945D02*
X23120000Y-30363088D01*
X24205714Y-30248802D02*
X23634286Y-30248802D01*
X23634286Y-30248802D02*
X23577143Y-30820231D01*
X23577143Y-30820231D02*
X23634286Y-30763088D01*
X23634286Y-30763088D02*
X23748572Y-30705945D01*
X23748572Y-30705945D02*
X24034286Y-30705945D01*
X24034286Y-30705945D02*
X24148572Y-30763088D01*
X24148572Y-30763088D02*
X24205714Y-30820231D01*
X24205714Y-30820231D02*
X24262857Y-30934517D01*
X24262857Y-30934517D02*
X24262857Y-31220231D01*
X24262857Y-31220231D02*
X24205714Y-31334517D01*
X24205714Y-31334517D02*
X24148572Y-31391660D01*
X24148572Y-31391660D02*
X24034286Y-31448802D01*
X24034286Y-31448802D02*
X23748572Y-31448802D01*
X23748572Y-31448802D02*
X23634286Y-31391660D01*
X23634286Y-31391660D02*
X23577143Y-31334517D01*
X3347500Y-37682017D02*
X3290357Y-37739160D01*
X3290357Y-37739160D02*
X3118929Y-37796302D01*
X3118929Y-37796302D02*
X3004643Y-37796302D01*
X3004643Y-37796302D02*
X2833214Y-37739160D01*
X2833214Y-37739160D02*
X2718929Y-37624874D01*
X2718929Y-37624874D02*
X2661786Y-37510588D01*
X2661786Y-37510588D02*
X2604643Y-37282017D01*
X2604643Y-37282017D02*
X2604643Y-37110588D01*
X2604643Y-37110588D02*
X2661786Y-36882017D01*
X2661786Y-36882017D02*
X2718929Y-36767731D01*
X2718929Y-36767731D02*
X2833214Y-36653445D01*
X2833214Y-36653445D02*
X3004643Y-36596302D01*
X3004643Y-36596302D02*
X3118929Y-36596302D01*
X3118929Y-36596302D02*
X3290357Y-36653445D01*
X3290357Y-36653445D02*
X3347500Y-36710588D01*
X4376072Y-36996302D02*
X4376072Y-37796302D01*
X4090357Y-36539160D02*
X3804643Y-37396302D01*
X3804643Y-37396302D02*
X4547500Y-37396302D01*
X30250000Y-2079160D02*
X30421429Y-2136302D01*
X30421429Y-2136302D02*
X30707143Y-2136302D01*
X30707143Y-2136302D02*
X30821429Y-2079160D01*
X30821429Y-2079160D02*
X30878571Y-2022017D01*
X30878571Y-2022017D02*
X30935714Y-1907731D01*
X30935714Y-1907731D02*
X30935714Y-1793445D01*
X30935714Y-1793445D02*
X30878571Y-1679160D01*
X30878571Y-1679160D02*
X30821429Y-1622017D01*
X30821429Y-1622017D02*
X30707143Y-1564874D01*
X30707143Y-1564874D02*
X30478571Y-1507731D01*
X30478571Y-1507731D02*
X30364286Y-1450588D01*
X30364286Y-1450588D02*
X30307143Y-1393445D01*
X30307143Y-1393445D02*
X30250000Y-1279160D01*
X30250000Y-1279160D02*
X30250000Y-1164874D01*
X30250000Y-1164874D02*
X30307143Y-1050588D01*
X30307143Y-1050588D02*
X30364286Y-993445D01*
X30364286Y-993445D02*
X30478571Y-936302D01*
X30478571Y-936302D02*
X30764286Y-936302D01*
X30764286Y-936302D02*
X30935714Y-993445D01*
X31335714Y-936302D02*
X31621428Y-2136302D01*
X31621428Y-2136302D02*
X31850000Y-1279160D01*
X31850000Y-1279160D02*
X32078571Y-2136302D01*
X32078571Y-2136302D02*
X32364286Y-936302D01*
X33450000Y-2136302D02*
X32764286Y-2136302D01*
X33107143Y-2136302D02*
X33107143Y-936302D01*
X33107143Y-936302D02*
X32992857Y-1107731D01*
X32992857Y-1107731D02*
X32878572Y-1222017D01*
X32878572Y-1222017D02*
X32764286Y-1279160D01*
X3218571Y-27964874D02*
X3218571Y-28536302D01*
X2818571Y-27336302D02*
X3218571Y-27964874D01*
X3218571Y-27964874D02*
X3618571Y-27336302D01*
X4647142Y-28536302D02*
X3961428Y-28536302D01*
X4304285Y-28536302D02*
X4304285Y-27336302D01*
X4304285Y-27336302D02*
X4189999Y-27507731D01*
X4189999Y-27507731D02*
X4075714Y-27622017D01*
X4075714Y-27622017D02*
X3961428Y-27679160D01*
%TO.C,C1*%
X20090000Y-23300000D02*
X20090000Y-24500000D01*
X21900000Y-23300000D02*
X21910000Y-24500000D01*
%TO.C,D1*%
X22135000Y-18700000D02*
X22135000Y-14640000D01*
X22135000Y-14640000D02*
X19865000Y-14640000D01*
X19865000Y-14640000D02*
X19865000Y-18700000D01*
%TO.C,R3*%
X21910000Y-9740000D02*
X21910000Y-10940000D01*
X20090000Y-9740000D02*
X20090000Y-10940000D01*
%TO.C,R1*%
X20090000Y-3410000D02*
X20090000Y-4610000D01*
X21910000Y-3410000D02*
X21910000Y-4610000D01*
%TO.C,SW3*%
X25740000Y-35400000D02*
X25740000Y-37710000D01*
X25740000Y-35400000D02*
X37960000Y-35400000D01*
X25740000Y-40410000D02*
X25740000Y-42610000D01*
X25740000Y-45310000D02*
X25740000Y-47620000D01*
X37960000Y-35400000D02*
X37960000Y-37710000D01*
X37960000Y-40410000D02*
X37960000Y-42610000D01*
X37960000Y-45310000D02*
X37960000Y-47620000D01*
X37960000Y-47620000D02*
X25740000Y-47620000D01*
X35400000Y-41510000D02*
G75*
G02*
X28300000Y-41510000I-3550000J0D01*
G01*
X28300000Y-41510000D02*
G75*
G02*
X35400000Y-41510000I3550000J0D01*
G01*
%TO.C,SW2*%
X25740000Y-18900000D02*
X25740000Y-21210000D01*
X25740000Y-18900000D02*
X37960000Y-18900000D01*
X25740000Y-23910000D02*
X25740000Y-26110000D01*
X25740000Y-28810000D02*
X25740000Y-31120000D01*
X37960000Y-18900000D02*
X37960000Y-21210000D01*
X37960000Y-23910000D02*
X37960000Y-26110000D01*
X37960000Y-28810000D02*
X37960000Y-31120000D01*
X37960000Y-31120000D02*
X25740000Y-31120000D01*
X35400000Y-25010000D02*
G75*
G02*
X28300000Y-25010000I-3550000J0D01*
G01*
X28300000Y-25010000D02*
G75*
G02*
X35400000Y-25010000I3550000J0D01*
G01*
D12*
%TO.C,C3*%
X19960000Y-37050000D02*
X18420000Y-37050000D01*
X19960000Y-37090000D02*
X18420000Y-37090000D01*
X19960000Y-37130000D02*
X18421000Y-37130000D01*
X19960000Y-37170000D02*
X18423000Y-37170000D01*
X19960000Y-37210000D02*
X18425000Y-37210000D01*
X19960000Y-37250000D02*
X18428000Y-37250000D01*
X19960000Y-37290000D02*
X18431000Y-37290000D01*
X19960000Y-37330000D02*
X18435000Y-37330000D01*
X19960000Y-37370000D02*
X18440000Y-37370000D01*
X19960000Y-37410000D02*
X18445000Y-37410000D01*
X19960000Y-37450000D02*
X18451000Y-37450000D01*
X19960000Y-37490000D02*
X18457000Y-37490000D01*
X19960000Y-37530000D02*
X18464000Y-37530000D01*
X19960000Y-37570000D02*
X18472000Y-37570000D01*
X19960000Y-37610000D02*
X18481000Y-37610000D01*
X19960000Y-37650000D02*
X18490000Y-37650000D01*
X19960000Y-37690000D02*
X18499000Y-37690000D01*
X19960000Y-37730000D02*
X18510000Y-37730000D01*
X19960000Y-37770000D02*
X18521000Y-37770000D01*
X19960000Y-37810000D02*
X18533000Y-37810000D01*
X19960000Y-37850000D02*
X18545000Y-37850000D01*
X19960000Y-37890000D02*
X18558000Y-37890000D01*
X19960000Y-37930000D02*
X18572000Y-37930000D01*
X19960000Y-37970000D02*
X18587000Y-37970000D01*
X19960000Y-38010000D02*
X18602000Y-38010000D01*
X19960000Y-38050000D02*
X18618000Y-38050000D01*
X19960000Y-38090000D02*
X18635000Y-38090000D01*
X19960000Y-38130000D02*
X18653000Y-38130000D01*
X19960000Y-38170000D02*
X18671000Y-38170000D01*
X19960000Y-38210000D02*
X18691000Y-38210000D01*
X19960000Y-38250000D02*
X18711000Y-38250000D01*
X19960000Y-38290000D02*
X18732000Y-38290000D01*
X19960000Y-38330000D02*
X18754000Y-38330000D01*
X19960000Y-38370000D02*
X18777000Y-38370000D01*
X19960000Y-38410000D02*
X18801000Y-38410000D01*
X19960000Y-38450000D02*
X18825000Y-38450000D01*
X19960000Y-38490000D02*
X18851000Y-38490000D01*
X19960000Y-38530000D02*
X18878000Y-38530000D01*
X19960000Y-38570000D02*
X18906000Y-38570000D01*
X19960000Y-38610000D02*
X18935000Y-38610000D01*
X19960000Y-38650000D02*
X18965000Y-38650000D01*
X19960000Y-38690000D02*
X18997000Y-38690000D01*
X19960000Y-38730000D02*
X19030000Y-38730000D01*
X19960000Y-38770000D02*
X19064000Y-38770000D01*
X19960000Y-38810000D02*
X19099000Y-38810000D01*
X19960000Y-38850000D02*
X19136000Y-38850000D01*
X19960000Y-38890000D02*
X19175000Y-38890000D01*
X19960000Y-38930000D02*
X19215000Y-38930000D01*
X19960000Y-38970000D02*
X19257000Y-38970000D01*
X19960000Y-39010000D02*
X19301000Y-39010000D01*
X19960000Y-39050000D02*
X19348000Y-39050000D01*
X21283000Y-39650000D02*
X20717000Y-39650000D01*
X21517000Y-39610000D02*
X20483000Y-39610000D01*
X21677000Y-39570000D02*
X20323000Y-39570000D01*
X21805000Y-39530000D02*
X20195000Y-39530000D01*
X21914000Y-39490000D02*
X20086000Y-39490000D01*
X22011000Y-39450000D02*
X19989000Y-39450000D01*
X22098000Y-39410000D02*
X19902000Y-39410000D01*
X22177000Y-39370000D02*
X19823000Y-39370000D01*
X22251000Y-39330000D02*
X19749000Y-39330000D01*
X22319000Y-39290000D02*
X19681000Y-39290000D01*
X22383000Y-39250000D02*
X19617000Y-39250000D01*
X22443000Y-39210000D02*
X19557000Y-39210000D01*
X22475000Y-34245225D02*
X22475000Y-34745225D01*
X22499000Y-39170000D02*
X19501000Y-39170000D01*
X22553000Y-39130000D02*
X19447000Y-39130000D01*
X22604000Y-39090000D02*
X19396000Y-39090000D01*
X22652000Y-39050000D02*
X22040000Y-39050000D01*
X22699000Y-39010000D02*
X22040000Y-39010000D01*
X22725000Y-34495225D02*
X22225000Y-34495225D01*
X22743000Y-38970000D02*
X22040000Y-38970000D01*
X22785000Y-38930000D02*
X22040000Y-38930000D01*
X22825000Y-38890000D02*
X22040000Y-38890000D01*
X22864000Y-38850000D02*
X22040000Y-38850000D01*
X22901000Y-38810000D02*
X22040000Y-38810000D01*
X22936000Y-38770000D02*
X22040000Y-38770000D01*
X22970000Y-38730000D02*
X22040000Y-38730000D01*
X23003000Y-38690000D02*
X22040000Y-38690000D01*
X23035000Y-38650000D02*
X22040000Y-38650000D01*
X23065000Y-38610000D02*
X22040000Y-38610000D01*
X23094000Y-38570000D02*
X22040000Y-38570000D01*
X23122000Y-38530000D02*
X22040000Y-38530000D01*
X23149000Y-38490000D02*
X22040000Y-38490000D01*
X23175000Y-38450000D02*
X22040000Y-38450000D01*
X23199000Y-38410000D02*
X22040000Y-38410000D01*
X23223000Y-38370000D02*
X22040000Y-38370000D01*
X23246000Y-38330000D02*
X22040000Y-38330000D01*
X23268000Y-38290000D02*
X22040000Y-38290000D01*
X23289000Y-38250000D02*
X22040000Y-38250000D01*
X23309000Y-38210000D02*
X22040000Y-38210000D01*
X23329000Y-38170000D02*
X22040000Y-38170000D01*
X23347000Y-38130000D02*
X22040000Y-38130000D01*
X23365000Y-38090000D02*
X22040000Y-38090000D01*
X23382000Y-38050000D02*
X22040000Y-38050000D01*
X23398000Y-38010000D02*
X22040000Y-38010000D01*
X23413000Y-37970000D02*
X22040000Y-37970000D01*
X23428000Y-37930000D02*
X22040000Y-37930000D01*
X23442000Y-37890000D02*
X22040000Y-37890000D01*
X23455000Y-37850000D02*
X22040000Y-37850000D01*
X23467000Y-37810000D02*
X22040000Y-37810000D01*
X23479000Y-37770000D02*
X22040000Y-37770000D01*
X23490000Y-37730000D02*
X22040000Y-37730000D01*
X23501000Y-37690000D02*
X22040000Y-37690000D01*
X23510000Y-37650000D02*
X22040000Y-37650000D01*
X23519000Y-37610000D02*
X22040000Y-37610000D01*
X23528000Y-37570000D02*
X22040000Y-37570000D01*
X23536000Y-37530000D02*
X22040000Y-37530000D01*
X23543000Y-37490000D02*
X22040000Y-37490000D01*
X23549000Y-37450000D02*
X22040000Y-37450000D01*
X23555000Y-37410000D02*
X22040000Y-37410000D01*
X23560000Y-37370000D02*
X22040000Y-37370000D01*
X23565000Y-37330000D02*
X22040000Y-37330000D01*
X23569000Y-37290000D02*
X22040000Y-37290000D01*
X23572000Y-37250000D02*
X22040000Y-37250000D01*
X23575000Y-37210000D02*
X22040000Y-37210000D01*
X23577000Y-37170000D02*
X22040000Y-37170000D01*
X23579000Y-37130000D02*
X22040000Y-37130000D01*
X23580000Y-37050000D02*
X22040000Y-37050000D01*
X23580000Y-37090000D02*
X22040000Y-37090000D01*
X23620000Y-37050000D02*
G75*
G02*
X18380000Y-37050000I-2620000J0D01*
G01*
X18380000Y-37050000D02*
G75*
G02*
X23620000Y-37050000I2620000J0D01*
G01*
%TO.C,J2*%
X680000Y-15580000D02*
X680000Y-5200000D01*
X3330000Y-12930000D02*
X3330000Y-15580000D01*
X3330000Y-15580000D02*
X680000Y-15580000D01*
X5980000Y-5200000D02*
X680000Y-5200000D01*
X5980000Y-12930000D02*
X3330000Y-12930000D01*
X5980000Y-12930000D02*
X5980000Y-5200000D01*
X5980000Y-14200000D02*
X5980000Y-15580000D01*
X5980000Y-15580000D02*
X4600000Y-15580000D01*
D10*
%TO.C,J1*%
X1670000Y-39490000D02*
X1670000Y-47530000D01*
X1670000Y-39490000D02*
X17410000Y-39490000D01*
X1670000Y-43110000D02*
X2910000Y-43110000D01*
X1670000Y-44110000D02*
X2910000Y-44110000D01*
X1670000Y-45410000D02*
X2910000Y-45410000D01*
X1670000Y-47530000D02*
X4490000Y-47530000D01*
X5090000Y-47530000D02*
X17410000Y-47530000D01*
X6670000Y-43110000D02*
X7978000Y-43110000D01*
X6670000Y-44110000D02*
X7978000Y-44110000D01*
X6670000Y-45410000D02*
X9247000Y-45410000D01*
X10333000Y-45410000D02*
X14247000Y-45410000D01*
X11602000Y-43110000D02*
X12978000Y-43110000D01*
X11602000Y-44110000D02*
X12978000Y-44110000D01*
X15333000Y-45410000D02*
X17410000Y-45410000D01*
X16602000Y-43110000D02*
X17410000Y-43110000D01*
X16602000Y-44110000D02*
X17410000Y-44110000D01*
X17410000Y-39490000D02*
X17410000Y-47530000D01*
X5230000Y-48140000D02*
X4350000Y-48140000D01*
X4790000Y-47530000D01*
X5230000Y-48140000D01*
G36*
X5230000Y-48140000D02*
G01*
X4350000Y-48140000D01*
X4790000Y-47530000D01*
X5230000Y-48140000D01*
G37*
%TO.C,U1*%
X10050000Y-1720000D02*
X10050000Y-37400000D01*
X10050000Y-37400000D02*
X15350000Y-37400000D01*
X11700000Y-1720000D02*
X10050000Y-1720000D01*
D12*
X15350000Y-1720000D02*
X13700000Y-1720000D01*
D10*
X15350000Y-37400000D02*
X15350000Y-1720000D01*
X7560000Y-1660000D02*
X17840000Y-1660000D01*
X17840000Y-37460000D01*
X7560000Y-37460000D01*
X7560000Y-1660000D01*
X13700000Y-1720000D02*
G75*
G02*
X11700000Y-1720000I-1000000J0D01*
G01*
%TO.C,R2*%
X20090000Y-42610000D02*
X20090000Y-43810000D01*
X21910000Y-42610000D02*
X21910000Y-43810000D01*
%TO.C,C2*%
X4320000Y-19600000D02*
X3120000Y-19600000D01*
X4320000Y-21410000D02*
X3120000Y-21420000D01*
%TO.C,C5*%
X20090000Y-30350000D02*
X20090000Y-31550000D01*
X21900000Y-30350000D02*
X21910000Y-31550000D01*
%TO.C,C4*%
X4147500Y-34490000D02*
X2947500Y-34490000D01*
X4147500Y-36300000D02*
X2947500Y-36310000D01*
%TO.C,SW1*%
X25740000Y-2390000D02*
X25740000Y-4700000D01*
X25740000Y-2390000D02*
X37960000Y-2390000D01*
X25740000Y-7400000D02*
X25740000Y-9600000D01*
X25740000Y-12300000D02*
X25740000Y-14610000D01*
X37960000Y-2390000D02*
X37960000Y-4700000D01*
X37960000Y-7400000D02*
X37960000Y-9600000D01*
X37960000Y-12300000D02*
X37960000Y-14610000D01*
X37960000Y-14610000D02*
X25740000Y-14610000D01*
X35400000Y-8500000D02*
G75*
G02*
X28300000Y-8500000I-3550000J0D01*
G01*
X28300000Y-8500000D02*
G75*
G02*
X35400000Y-8500000I3550000J0D01*
G01*
%TO.C,Y1*%
X1265000Y-24855000D02*
X1265000Y-31105000D01*
X6315000Y-24855000D02*
X6315000Y-31105000D01*
X1265000Y-24855000D02*
G75*
G02*
X6315000Y-24855000I2525000J0D01*
G01*
X6315000Y-31105000D02*
G75*
G02*
X1265000Y-31105000I-2525000J0D01*
G01*
%TD*%
M02*
