%TF.GenerationSoftware,KiCad,Pcbnew,9.0.3*%
%TF.CreationDate,2025-07-13T14:18:37+05:30*%
%TF.ProjectId,lighting_pcb_tht,6c696768-7469-46e6-975f-7063625f7468,rev?*%
%TF.SameCoordinates,Original*%
%TF.FileFunction,Soldermask,Top*%
%TF.FilePolarity,Negative*%
%FSLAX46Y46*%
G04 Gerber Fmt 4.6, Leading zero omitted, Abs format (unit mm)*
G04 Created by KiCad (PCBNEW 9.0.3) date 2025-07-13 14:18:37*
%MOMM*%
%LPD*%
G01*
G04 APERTURE LIST*
G04 Aperture macros list*
%AMRoundRect*
0 Rectangle with rounded corners*
0 $1 Rounding radius*
0 $2 $3 $4 $5 $6 $7 $8 $9 X,Y pos of 4 corners*
0 Add a 4 corners polygon primitive as box body*
4,1,4,$2,$3,$4,$5,$6,$7,$8,$9,$2,$3,0*
0 Add four circle primitives for the rounded corners*
1,1,$1+$1,$2,$3*
1,1,$1+$1,$4,$5*
1,1,$1+$1,$6,$7*
1,1,$1+$1,$8,$9*
0 Add four rect primitives between the rounded corners*
20,1,$1+$1,$2,$3,$4,$5,0*
20,1,$1+$1,$4,$5,$6,$7,0*
20,1,$1+$1,$6,$7,$8,$9,0*
20,1,$1+$1,$8,$9,$2,$3,0*%
G04 Aperture macros list end*
%ADD10C,2.000000*%
%ADD11RoundRect,0.250000X-0.650000X0.412500X-0.650000X-0.412500X0.650000X-0.412500X0.650000X0.412500X0*%
%ADD12RoundRect,0.250001X-0.624999X0.462499X-0.624999X-0.462499X0.624999X-0.462499X0.624999X0.462499X0*%
%ADD13RoundRect,0.250000X-0.625000X0.400000X-0.625000X-0.400000X0.625000X-0.400000X0.625000X0.400000X0*%
%ADD14O,3.200000X1.900000*%
%ADD15R,1.600000X1.600000*%
%ADD16C,1.600000*%
%ADD17R,1.700000X1.700000*%
%ADD18C,1.700000*%
%ADD19RoundRect,0.250001X-1.149999X-1.149999X1.149999X-1.149999X1.149999X1.149999X-1.149999X1.149999X0*%
%ADD20C,2.800000*%
%ADD21RoundRect,0.250000X-0.550000X-0.550000X0.550000X-0.550000X0.550000X0.550000X-0.550000X0.550000X0*%
%ADD22RoundRect,0.250000X0.412500X0.650000X-0.412500X0.650000X-0.412500X-0.650000X0.412500X-0.650000X0*%
%ADD23C,1.500000*%
G04 APERTURE END LIST*
D10*
%TO.C,H3*%
X39000000Y-33250000D03*
%TD*%
D11*
%TO.C,C1*%
X21000000Y-25462500D03*
X21000000Y-22337500D03*
%TD*%
D12*
%TO.C,D1*%
X21000000Y-18587500D03*
X21000000Y-15612500D03*
%TD*%
D13*
%TO.C,R3*%
X21000000Y-11890000D03*
X21000000Y-8790000D03*
%TD*%
%TO.C,R1*%
X21000000Y-2460000D03*
X21000000Y-5560000D03*
%TD*%
D10*
%TO.C,H4*%
X21000000Y-47770000D03*
%TD*%
D14*
%TO.C,SW3*%
X25600000Y-39010000D03*
X38100000Y-39010000D03*
X25600000Y-44010000D03*
X38100000Y-44010000D03*
%TD*%
%TO.C,SW2*%
X25600000Y-22510000D03*
X38100000Y-22510000D03*
X25600000Y-27510000D03*
X38100000Y-27510000D03*
%TD*%
D15*
%TO.C,C3*%
X21000000Y-36050000D03*
D16*
X21000000Y-38050000D03*
%TD*%
D17*
%TO.C,J2*%
X4600000Y-14200000D03*
D18*
X2060000Y-14200000D03*
X4600000Y-11660000D03*
X2060000Y-11660000D03*
X4600000Y-9120000D03*
X2060000Y-9120000D03*
X4600000Y-6580000D03*
X2060000Y-6580000D03*
%TD*%
D19*
%TO.C,J1*%
X4790000Y-43610000D03*
D20*
X9790000Y-43610000D03*
X14790000Y-43610000D03*
%TD*%
D21*
%TO.C,U1*%
X8890000Y-3050000D03*
D16*
X8890000Y-5590000D03*
X8890000Y-8130000D03*
X8890000Y-10670000D03*
X8890000Y-13210000D03*
X8890000Y-15750000D03*
X8890000Y-18290000D03*
X8890000Y-20830000D03*
X8890000Y-23370000D03*
X8890000Y-25910000D03*
X8890000Y-28450000D03*
X8890000Y-30990000D03*
X8890000Y-33530000D03*
X8890000Y-36070000D03*
X16510000Y-36070000D03*
X16510000Y-33530000D03*
X16510000Y-30990000D03*
X16510000Y-28450000D03*
X16510000Y-25910000D03*
X16510000Y-23370000D03*
X16510000Y-20830000D03*
X16510000Y-18290000D03*
X16510000Y-15750000D03*
X16510000Y-13210000D03*
X16510000Y-10670000D03*
X16510000Y-8130000D03*
X16510000Y-5590000D03*
X16510000Y-3050000D03*
%TD*%
D10*
%TO.C,H2*%
X39000000Y-16750000D03*
%TD*%
D13*
%TO.C,R2*%
X21000000Y-41660000D03*
X21000000Y-44760000D03*
%TD*%
D22*
%TO.C,C2*%
X5282500Y-20510000D03*
X2157500Y-20510000D03*
%TD*%
D10*
%TO.C,H1*%
X5370000Y-2000000D03*
%TD*%
D11*
%TO.C,C5*%
X21000000Y-29387500D03*
X21000000Y-32512500D03*
%TD*%
D22*
%TO.C,C4*%
X5110000Y-35400000D03*
X1985000Y-35400000D03*
%TD*%
D14*
%TO.C,SW1*%
X25600000Y-6000000D03*
X38100000Y-6000000D03*
X25600000Y-11000000D03*
X38100000Y-11000000D03*
%TD*%
D23*
%TO.C,Y1*%
X3790000Y-25540000D03*
X3790000Y-30420000D03*
%TD*%
M02*
