%TF.GenerationSoftware,KiCad,Pcbnew,9.0.3*%
%TF.CreationDate,2025-07-13T14:18:37+05:30*%
%TF.ProjectId,lighting_pcb_tht,6c696768-7469-46e6-975f-7063625f7468,rev?*%
%TF.SameCoordinates,Original*%
%TF.FileFunction,Legend,Bot*%
%TF.FilePolarity,Positive*%
%FSLAX46Y46*%
G04 Gerber Fmt 4.6, Leading zero omitted, Abs format (unit mm)*
G04 Created by KiCad (PCBNEW 9.0.3) date 2025-07-13 14:18:37*
%MOMM*%
%LPD*%
G01*
G04 APERTURE LIST*
%ADD10C,0.170000*%
G04 APERTURE END LIST*
D10*
X3043872Y-18351445D02*
X3158158Y-18294302D01*
X3158158Y-18294302D02*
X3329586Y-18294302D01*
X3329586Y-18294302D02*
X3501015Y-18351445D01*
X3501015Y-18351445D02*
X3615300Y-18465731D01*
X3615300Y-18465731D02*
X3672443Y-18580017D01*
X3672443Y-18580017D02*
X3729586Y-18808588D01*
X3729586Y-18808588D02*
X3729586Y-18980017D01*
X3729586Y-18980017D02*
X3672443Y-19208588D01*
X3672443Y-19208588D02*
X3615300Y-19322874D01*
X3615300Y-19322874D02*
X3501015Y-19437160D01*
X3501015Y-19437160D02*
X3329586Y-19494302D01*
X3329586Y-19494302D02*
X3215300Y-19494302D01*
X3215300Y-19494302D02*
X3043872Y-19437160D01*
X3043872Y-19437160D02*
X2986729Y-19380017D01*
X2986729Y-19380017D02*
X2986729Y-18980017D01*
X2986729Y-18980017D02*
X3215300Y-18980017D01*
X2472443Y-19494302D02*
X2472443Y-18294302D01*
X2472443Y-18294302D02*
X1786729Y-19494302D01*
X1786729Y-19494302D02*
X1786729Y-18294302D01*
X1215300Y-19494302D02*
X1215300Y-18294302D01*
X1215300Y-18294302D02*
X929586Y-18294302D01*
X929586Y-18294302D02*
X758157Y-18351445D01*
X758157Y-18351445D02*
X643872Y-18465731D01*
X643872Y-18465731D02*
X586729Y-18580017D01*
X586729Y-18580017D02*
X529586Y-18808588D01*
X529586Y-18808588D02*
X529586Y-18980017D01*
X529586Y-18980017D02*
X586729Y-19208588D01*
X586729Y-19208588D02*
X643872Y-19322874D01*
X643872Y-19322874D02*
X758157Y-19437160D01*
X758157Y-19437160D02*
X929586Y-19494302D01*
X929586Y-19494302D02*
X1215300Y-19494302D01*
X332485Y-23160000D02*
X7740000Y-23160000D01*
X330000Y-21450000D02*
X7740000Y-21450000D01*
X3975000Y-16300000D02*
X3975000Y-19750000D01*
X330000Y-23160000D02*
X330000Y-16300000D01*
X330000Y-18010000D02*
X7740000Y-18010000D01*
X4870000Y-19785000D02*
X4870000Y-23160000D01*
X330000Y-16300000D02*
X7740000Y-16300000D01*
X330000Y-19785000D02*
X7740000Y-19785000D01*
X7740000Y-23160000D02*
X7740000Y-16300000D01*
X3762443Y-17287160D02*
X2848158Y-17287160D01*
X3305300Y-17744302D02*
X3305300Y-16830017D01*
X1705301Y-16544302D02*
X2276729Y-16544302D01*
X2276729Y-16544302D02*
X2333872Y-17115731D01*
X2333872Y-17115731D02*
X2276729Y-17058588D01*
X2276729Y-17058588D02*
X2162444Y-17001445D01*
X2162444Y-17001445D02*
X1876729Y-17001445D01*
X1876729Y-17001445D02*
X1762444Y-17058588D01*
X1762444Y-17058588D02*
X1705301Y-17115731D01*
X1705301Y-17115731D02*
X1648158Y-17230017D01*
X1648158Y-17230017D02*
X1648158Y-17515731D01*
X1648158Y-17515731D02*
X1705301Y-17630017D01*
X1705301Y-17630017D02*
X1762444Y-17687160D01*
X1762444Y-17687160D02*
X1876729Y-17744302D01*
X1876729Y-17744302D02*
X2162444Y-17744302D01*
X2162444Y-17744302D02*
X2276729Y-17687160D01*
X2276729Y-17687160D02*
X2333872Y-17630017D01*
X1305301Y-16544302D02*
X905301Y-17744302D01*
X905301Y-17744302D02*
X505301Y-16544302D01*
X12594302Y-1007556D02*
X11394302Y-1007556D01*
X11394302Y-1007556D02*
X11394302Y-1464699D01*
X11394302Y-1464699D02*
X11451445Y-1578984D01*
X11451445Y-1578984D02*
X11508588Y-1636127D01*
X11508588Y-1636127D02*
X11622874Y-1693270D01*
X11622874Y-1693270D02*
X11794302Y-1693270D01*
X11794302Y-1693270D02*
X11908588Y-1636127D01*
X11908588Y-1636127D02*
X11965731Y-1578984D01*
X11965731Y-1578984D02*
X12022874Y-1464699D01*
X12022874Y-1464699D02*
X12022874Y-1007556D01*
X12480017Y-2893270D02*
X12537160Y-2836127D01*
X12537160Y-2836127D02*
X12594302Y-2664699D01*
X12594302Y-2664699D02*
X12594302Y-2550413D01*
X12594302Y-2550413D02*
X12537160Y-2378984D01*
X12537160Y-2378984D02*
X12422874Y-2264699D01*
X12422874Y-2264699D02*
X12308588Y-2207556D01*
X12308588Y-2207556D02*
X12080017Y-2150413D01*
X12080017Y-2150413D02*
X11908588Y-2150413D01*
X11908588Y-2150413D02*
X11680017Y-2207556D01*
X11680017Y-2207556D02*
X11565731Y-2264699D01*
X11565731Y-2264699D02*
X11451445Y-2378984D01*
X11451445Y-2378984D02*
X11394302Y-2550413D01*
X11394302Y-2550413D02*
X11394302Y-2664699D01*
X11394302Y-2664699D02*
X11451445Y-2836127D01*
X11451445Y-2836127D02*
X11508588Y-2893270D01*
X11965731Y-3807556D02*
X12022874Y-3978984D01*
X12022874Y-3978984D02*
X12080017Y-4036127D01*
X12080017Y-4036127D02*
X12194302Y-4093270D01*
X12194302Y-4093270D02*
X12365731Y-4093270D01*
X12365731Y-4093270D02*
X12480017Y-4036127D01*
X12480017Y-4036127D02*
X12537160Y-3978984D01*
X12537160Y-3978984D02*
X12594302Y-3864699D01*
X12594302Y-3864699D02*
X12594302Y-3407556D01*
X12594302Y-3407556D02*
X11394302Y-3407556D01*
X11394302Y-3407556D02*
X11394302Y-3807556D01*
X11394302Y-3807556D02*
X11451445Y-3921842D01*
X11451445Y-3921842D02*
X11508588Y-3978984D01*
X11508588Y-3978984D02*
X11622874Y-4036127D01*
X11622874Y-4036127D02*
X11737160Y-4036127D01*
X11737160Y-4036127D02*
X11851445Y-3978984D01*
X11851445Y-3978984D02*
X11908588Y-3921842D01*
X11908588Y-3921842D02*
X11965731Y-3807556D01*
X11965731Y-3807556D02*
X11965731Y-3407556D01*
X12594302Y-5521842D02*
X11394302Y-5521842D01*
X11394302Y-5521842D02*
X11394302Y-5807556D01*
X11394302Y-5807556D02*
X11451445Y-5978985D01*
X11451445Y-5978985D02*
X11565731Y-6093270D01*
X11565731Y-6093270D02*
X11680017Y-6150413D01*
X11680017Y-6150413D02*
X11908588Y-6207556D01*
X11908588Y-6207556D02*
X12080017Y-6207556D01*
X12080017Y-6207556D02*
X12308588Y-6150413D01*
X12308588Y-6150413D02*
X12422874Y-6093270D01*
X12422874Y-6093270D02*
X12537160Y-5978985D01*
X12537160Y-5978985D02*
X12594302Y-5807556D01*
X12594302Y-5807556D02*
X12594302Y-5521842D01*
X12537160Y-7178985D02*
X12594302Y-7064699D01*
X12594302Y-7064699D02*
X12594302Y-6836128D01*
X12594302Y-6836128D02*
X12537160Y-6721842D01*
X12537160Y-6721842D02*
X12422874Y-6664699D01*
X12422874Y-6664699D02*
X11965731Y-6664699D01*
X11965731Y-6664699D02*
X11851445Y-6721842D01*
X11851445Y-6721842D02*
X11794302Y-6836128D01*
X11794302Y-6836128D02*
X11794302Y-7064699D01*
X11794302Y-7064699D02*
X11851445Y-7178985D01*
X11851445Y-7178985D02*
X11965731Y-7236128D01*
X11965731Y-7236128D02*
X12080017Y-7236128D01*
X12080017Y-7236128D02*
X12194302Y-6664699D01*
X12537160Y-7693270D02*
X12594302Y-7807556D01*
X12594302Y-7807556D02*
X12594302Y-8036127D01*
X12594302Y-8036127D02*
X12537160Y-8150413D01*
X12537160Y-8150413D02*
X12422874Y-8207556D01*
X12422874Y-8207556D02*
X12365731Y-8207556D01*
X12365731Y-8207556D02*
X12251445Y-8150413D01*
X12251445Y-8150413D02*
X12194302Y-8036127D01*
X12194302Y-8036127D02*
X12194302Y-7864699D01*
X12194302Y-7864699D02*
X12137160Y-7750413D01*
X12137160Y-7750413D02*
X12022874Y-7693270D01*
X12022874Y-7693270D02*
X11965731Y-7693270D01*
X11965731Y-7693270D02*
X11851445Y-7750413D01*
X11851445Y-7750413D02*
X11794302Y-7864699D01*
X11794302Y-7864699D02*
X11794302Y-8036127D01*
X11794302Y-8036127D02*
X11851445Y-8150413D01*
X12594302Y-8721842D02*
X11794302Y-8721842D01*
X11394302Y-8721842D02*
X11451445Y-8664699D01*
X11451445Y-8664699D02*
X11508588Y-8721842D01*
X11508588Y-8721842D02*
X11451445Y-8778985D01*
X11451445Y-8778985D02*
X11394302Y-8721842D01*
X11394302Y-8721842D02*
X11508588Y-8721842D01*
X11794302Y-9807557D02*
X12765731Y-9807557D01*
X12765731Y-9807557D02*
X12880017Y-9750414D01*
X12880017Y-9750414D02*
X12937160Y-9693271D01*
X12937160Y-9693271D02*
X12994302Y-9578985D01*
X12994302Y-9578985D02*
X12994302Y-9407557D01*
X12994302Y-9407557D02*
X12937160Y-9293271D01*
X12537160Y-9807557D02*
X12594302Y-9693271D01*
X12594302Y-9693271D02*
X12594302Y-9464699D01*
X12594302Y-9464699D02*
X12537160Y-9350414D01*
X12537160Y-9350414D02*
X12480017Y-9293271D01*
X12480017Y-9293271D02*
X12365731Y-9236128D01*
X12365731Y-9236128D02*
X12022874Y-9236128D01*
X12022874Y-9236128D02*
X11908588Y-9293271D01*
X11908588Y-9293271D02*
X11851445Y-9350414D01*
X11851445Y-9350414D02*
X11794302Y-9464699D01*
X11794302Y-9464699D02*
X11794302Y-9693271D01*
X11794302Y-9693271D02*
X11851445Y-9807557D01*
X11794302Y-10378985D02*
X12594302Y-10378985D01*
X11908588Y-10378985D02*
X11851445Y-10436128D01*
X11851445Y-10436128D02*
X11794302Y-10550413D01*
X11794302Y-10550413D02*
X11794302Y-10721842D01*
X11794302Y-10721842D02*
X11851445Y-10836128D01*
X11851445Y-10836128D02*
X11965731Y-10893271D01*
X11965731Y-10893271D02*
X12594302Y-10893271D01*
X12537160Y-11921842D02*
X12594302Y-11807556D01*
X12594302Y-11807556D02*
X12594302Y-11578985D01*
X12594302Y-11578985D02*
X12537160Y-11464699D01*
X12537160Y-11464699D02*
X12422874Y-11407556D01*
X12422874Y-11407556D02*
X11965731Y-11407556D01*
X11965731Y-11407556D02*
X11851445Y-11464699D01*
X11851445Y-11464699D02*
X11794302Y-11578985D01*
X11794302Y-11578985D02*
X11794302Y-11807556D01*
X11794302Y-11807556D02*
X11851445Y-11921842D01*
X11851445Y-11921842D02*
X11965731Y-11978985D01*
X11965731Y-11978985D02*
X12080017Y-11978985D01*
X12080017Y-11978985D02*
X12194302Y-11407556D01*
X12594302Y-13007556D02*
X11394302Y-13007556D01*
X12537160Y-13007556D02*
X12594302Y-12893270D01*
X12594302Y-12893270D02*
X12594302Y-12664698D01*
X12594302Y-12664698D02*
X12537160Y-12550413D01*
X12537160Y-12550413D02*
X12480017Y-12493270D01*
X12480017Y-12493270D02*
X12365731Y-12436127D01*
X12365731Y-12436127D02*
X12022874Y-12436127D01*
X12022874Y-12436127D02*
X11908588Y-12493270D01*
X11908588Y-12493270D02*
X11851445Y-12550413D01*
X11851445Y-12550413D02*
X11794302Y-12664698D01*
X11794302Y-12664698D02*
X11794302Y-12893270D01*
X11794302Y-12893270D02*
X11851445Y-13007556D01*
X12594302Y-14493270D02*
X11394302Y-14493270D01*
X11851445Y-14493270D02*
X11794302Y-14607556D01*
X11794302Y-14607556D02*
X11794302Y-14836127D01*
X11794302Y-14836127D02*
X11851445Y-14950413D01*
X11851445Y-14950413D02*
X11908588Y-15007556D01*
X11908588Y-15007556D02*
X12022874Y-15064698D01*
X12022874Y-15064698D02*
X12365731Y-15064698D01*
X12365731Y-15064698D02*
X12480017Y-15007556D01*
X12480017Y-15007556D02*
X12537160Y-14950413D01*
X12537160Y-14950413D02*
X12594302Y-14836127D01*
X12594302Y-14836127D02*
X12594302Y-14607556D01*
X12594302Y-14607556D02*
X12537160Y-14493270D01*
X11794302Y-15464698D02*
X12594302Y-15750412D01*
X11794302Y-16036127D02*
X12594302Y-15750412D01*
X12594302Y-15750412D02*
X12880017Y-15636127D01*
X12880017Y-15636127D02*
X12937160Y-15578984D01*
X12937160Y-15578984D02*
X12994302Y-15464698D01*
X12251445Y-17350413D02*
X12251445Y-17921842D01*
X12594302Y-17236127D02*
X11394302Y-17636127D01*
X11394302Y-17636127D02*
X12594302Y-18036127D01*
X12594302Y-18950413D02*
X11394302Y-18950413D01*
X12537160Y-18950413D02*
X12594302Y-18836127D01*
X12594302Y-18836127D02*
X12594302Y-18607555D01*
X12594302Y-18607555D02*
X12537160Y-18493270D01*
X12537160Y-18493270D02*
X12480017Y-18436127D01*
X12480017Y-18436127D02*
X12365731Y-18378984D01*
X12365731Y-18378984D02*
X12022874Y-18378984D01*
X12022874Y-18378984D02*
X11908588Y-18436127D01*
X11908588Y-18436127D02*
X11851445Y-18493270D01*
X11851445Y-18493270D02*
X11794302Y-18607555D01*
X11794302Y-18607555D02*
X11794302Y-18836127D01*
X11794302Y-18836127D02*
X11851445Y-18950413D01*
X12594302Y-19521841D02*
X11794302Y-19521841D01*
X11394302Y-19521841D02*
X11451445Y-19464698D01*
X11451445Y-19464698D02*
X11508588Y-19521841D01*
X11508588Y-19521841D02*
X11451445Y-19578984D01*
X11451445Y-19578984D02*
X11394302Y-19521841D01*
X11394302Y-19521841D02*
X11508588Y-19521841D01*
X11794302Y-19921841D02*
X11794302Y-20378984D01*
X11394302Y-20093270D02*
X12422874Y-20093270D01*
X12422874Y-20093270D02*
X12537160Y-20150413D01*
X12537160Y-20150413D02*
X12594302Y-20264698D01*
X12594302Y-20264698D02*
X12594302Y-20378984D01*
X11794302Y-20664698D02*
X12594302Y-20950412D01*
X11794302Y-21236127D02*
X12594302Y-20950412D01*
X12594302Y-20950412D02*
X12880017Y-20836127D01*
X12880017Y-20836127D02*
X12937160Y-20778984D01*
X12937160Y-20778984D02*
X12994302Y-20664698D01*
X12594302Y-22207556D02*
X11965731Y-22207556D01*
X11965731Y-22207556D02*
X11851445Y-22150413D01*
X11851445Y-22150413D02*
X11794302Y-22036127D01*
X11794302Y-22036127D02*
X11794302Y-21807556D01*
X11794302Y-21807556D02*
X11851445Y-21693270D01*
X12537160Y-22207556D02*
X12594302Y-22093270D01*
X12594302Y-22093270D02*
X12594302Y-21807556D01*
X12594302Y-21807556D02*
X12537160Y-21693270D01*
X12537160Y-21693270D02*
X12422874Y-21636127D01*
X12422874Y-21636127D02*
X12308588Y-21636127D01*
X12308588Y-21636127D02*
X12194302Y-21693270D01*
X12194302Y-21693270D02*
X12137160Y-21807556D01*
X12137160Y-21807556D02*
X12137160Y-22093270D01*
X12137160Y-22093270D02*
X12080017Y-22207556D01*
X12594302Y-23693270D02*
X11394302Y-23693270D01*
X11394302Y-23693270D02*
X11394302Y-24150413D01*
X11394302Y-24150413D02*
X11451445Y-24264698D01*
X11451445Y-24264698D02*
X11508588Y-24321841D01*
X11508588Y-24321841D02*
X11622874Y-24378984D01*
X11622874Y-24378984D02*
X11794302Y-24378984D01*
X11794302Y-24378984D02*
X11908588Y-24321841D01*
X11908588Y-24321841D02*
X11965731Y-24264698D01*
X11965731Y-24264698D02*
X12022874Y-24150413D01*
X12022874Y-24150413D02*
X12022874Y-23693270D01*
X12594302Y-25407556D02*
X11965731Y-25407556D01*
X11965731Y-25407556D02*
X11851445Y-25350413D01*
X11851445Y-25350413D02*
X11794302Y-25236127D01*
X11794302Y-25236127D02*
X11794302Y-25007556D01*
X11794302Y-25007556D02*
X11851445Y-24893270D01*
X12537160Y-25407556D02*
X12594302Y-25293270D01*
X12594302Y-25293270D02*
X12594302Y-25007556D01*
X12594302Y-25007556D02*
X12537160Y-24893270D01*
X12537160Y-24893270D02*
X12422874Y-24836127D01*
X12422874Y-24836127D02*
X12308588Y-24836127D01*
X12308588Y-24836127D02*
X12194302Y-24893270D01*
X12194302Y-24893270D02*
X12137160Y-25007556D01*
X12137160Y-25007556D02*
X12137160Y-25293270D01*
X12137160Y-25293270D02*
X12080017Y-25407556D01*
X11794302Y-25978984D02*
X12594302Y-25978984D01*
X11908588Y-25978984D02*
X11851445Y-26036127D01*
X11851445Y-26036127D02*
X11794302Y-26150412D01*
X11794302Y-26150412D02*
X11794302Y-26321841D01*
X11794302Y-26321841D02*
X11851445Y-26436127D01*
X11851445Y-26436127D02*
X11965731Y-26493270D01*
X11965731Y-26493270D02*
X12594302Y-26493270D01*
X12594302Y-27578984D02*
X11394302Y-27578984D01*
X12537160Y-27578984D02*
X12594302Y-27464698D01*
X12594302Y-27464698D02*
X12594302Y-27236126D01*
X12594302Y-27236126D02*
X12537160Y-27121841D01*
X12537160Y-27121841D02*
X12480017Y-27064698D01*
X12480017Y-27064698D02*
X12365731Y-27007555D01*
X12365731Y-27007555D02*
X12022874Y-27007555D01*
X12022874Y-27007555D02*
X11908588Y-27064698D01*
X11908588Y-27064698D02*
X11851445Y-27121841D01*
X11851445Y-27121841D02*
X11794302Y-27236126D01*
X11794302Y-27236126D02*
X11794302Y-27464698D01*
X11794302Y-27464698D02*
X11851445Y-27578984D01*
X11794302Y-28664698D02*
X12594302Y-28664698D01*
X11794302Y-28150412D02*
X12422874Y-28150412D01*
X12422874Y-28150412D02*
X12537160Y-28207555D01*
X12537160Y-28207555D02*
X12594302Y-28321840D01*
X12594302Y-28321840D02*
X12594302Y-28493269D01*
X12594302Y-28493269D02*
X12537160Y-28607555D01*
X12537160Y-28607555D02*
X12480017Y-28664698D01*
X12594302Y-29236126D02*
X11794302Y-29236126D01*
X12022874Y-29236126D02*
X11908588Y-29293269D01*
X11908588Y-29293269D02*
X11851445Y-29350412D01*
X11851445Y-29350412D02*
X11794302Y-29464697D01*
X11794302Y-29464697D02*
X11794302Y-29578983D01*
X12594302Y-30493269D02*
X11965731Y-30493269D01*
X11965731Y-30493269D02*
X11851445Y-30436126D01*
X11851445Y-30436126D02*
X11794302Y-30321840D01*
X11794302Y-30321840D02*
X11794302Y-30093269D01*
X11794302Y-30093269D02*
X11851445Y-29978983D01*
X12537160Y-30493269D02*
X12594302Y-30378983D01*
X12594302Y-30378983D02*
X12594302Y-30093269D01*
X12594302Y-30093269D02*
X12537160Y-29978983D01*
X12537160Y-29978983D02*
X12422874Y-29921840D01*
X12422874Y-29921840D02*
X12308588Y-29921840D01*
X12308588Y-29921840D02*
X12194302Y-29978983D01*
X12194302Y-29978983D02*
X12137160Y-30093269D01*
X12137160Y-30093269D02*
X12137160Y-30378983D01*
X12137160Y-30378983D02*
X12080017Y-30493269D01*
X11794302Y-31064697D02*
X12594302Y-31064697D01*
X11908588Y-31064697D02*
X11851445Y-31121840D01*
X11851445Y-31121840D02*
X11794302Y-31236125D01*
X11794302Y-31236125D02*
X11794302Y-31407554D01*
X11794302Y-31407554D02*
X11851445Y-31521840D01*
X11851445Y-31521840D02*
X11965731Y-31578983D01*
X11965731Y-31578983D02*
X12594302Y-31578983D01*
X11794302Y-32664697D02*
X12765731Y-32664697D01*
X12765731Y-32664697D02*
X12880017Y-32607554D01*
X12880017Y-32607554D02*
X12937160Y-32550411D01*
X12937160Y-32550411D02*
X12994302Y-32436125D01*
X12994302Y-32436125D02*
X12994302Y-32264697D01*
X12994302Y-32264697D02*
X12937160Y-32150411D01*
X12537160Y-32664697D02*
X12594302Y-32550411D01*
X12594302Y-32550411D02*
X12594302Y-32321839D01*
X12594302Y-32321839D02*
X12537160Y-32207554D01*
X12537160Y-32207554D02*
X12480017Y-32150411D01*
X12480017Y-32150411D02*
X12365731Y-32093268D01*
X12365731Y-32093268D02*
X12022874Y-32093268D01*
X12022874Y-32093268D02*
X11908588Y-32150411D01*
X11908588Y-32150411D02*
X11851445Y-32207554D01*
X11851445Y-32207554D02*
X11794302Y-32321839D01*
X11794302Y-32321839D02*
X11794302Y-32550411D01*
X11794302Y-32550411D02*
X11851445Y-32664697D01*
X12594302Y-34150411D02*
X11394302Y-34150411D01*
X11394302Y-34150411D02*
X11394302Y-34436125D01*
X11394302Y-34436125D02*
X11451445Y-34607554D01*
X11451445Y-34607554D02*
X11565731Y-34721839D01*
X11565731Y-34721839D02*
X11680017Y-34778982D01*
X11680017Y-34778982D02*
X11908588Y-34836125D01*
X11908588Y-34836125D02*
X12080017Y-34836125D01*
X12080017Y-34836125D02*
X12308588Y-34778982D01*
X12308588Y-34778982D02*
X12422874Y-34721839D01*
X12422874Y-34721839D02*
X12537160Y-34607554D01*
X12537160Y-34607554D02*
X12594302Y-34436125D01*
X12594302Y-34436125D02*
X12594302Y-34150411D01*
X12537160Y-35807554D02*
X12594302Y-35693268D01*
X12594302Y-35693268D02*
X12594302Y-35464697D01*
X12594302Y-35464697D02*
X12537160Y-35350411D01*
X12537160Y-35350411D02*
X12422874Y-35293268D01*
X12422874Y-35293268D02*
X11965731Y-35293268D01*
X11965731Y-35293268D02*
X11851445Y-35350411D01*
X11851445Y-35350411D02*
X11794302Y-35464697D01*
X11794302Y-35464697D02*
X11794302Y-35693268D01*
X11794302Y-35693268D02*
X11851445Y-35807554D01*
X11851445Y-35807554D02*
X11965731Y-35864697D01*
X11965731Y-35864697D02*
X12080017Y-35864697D01*
X12080017Y-35864697D02*
X12194302Y-35293268D01*
X12537160Y-36321839D02*
X12594302Y-36436125D01*
X12594302Y-36436125D02*
X12594302Y-36664696D01*
X12594302Y-36664696D02*
X12537160Y-36778982D01*
X12537160Y-36778982D02*
X12422874Y-36836125D01*
X12422874Y-36836125D02*
X12365731Y-36836125D01*
X12365731Y-36836125D02*
X12251445Y-36778982D01*
X12251445Y-36778982D02*
X12194302Y-36664696D01*
X12194302Y-36664696D02*
X12194302Y-36493268D01*
X12194302Y-36493268D02*
X12137160Y-36378982D01*
X12137160Y-36378982D02*
X12022874Y-36321839D01*
X12022874Y-36321839D02*
X11965731Y-36321839D01*
X11965731Y-36321839D02*
X11851445Y-36378982D01*
X11851445Y-36378982D02*
X11794302Y-36493268D01*
X11794302Y-36493268D02*
X11794302Y-36664696D01*
X11794302Y-36664696D02*
X11851445Y-36778982D01*
X12594302Y-37350411D02*
X11394302Y-37350411D01*
X12594302Y-37864697D02*
X11965731Y-37864697D01*
X11965731Y-37864697D02*
X11851445Y-37807554D01*
X11851445Y-37807554D02*
X11794302Y-37693268D01*
X11794302Y-37693268D02*
X11794302Y-37521839D01*
X11794302Y-37521839D02*
X11851445Y-37407554D01*
X11851445Y-37407554D02*
X11908588Y-37350411D01*
X11794302Y-38436125D02*
X12994302Y-38436125D01*
X11851445Y-38436125D02*
X11794302Y-38550411D01*
X11794302Y-38550411D02*
X11794302Y-38778982D01*
X11794302Y-38778982D02*
X11851445Y-38893268D01*
X11851445Y-38893268D02*
X11908588Y-38950411D01*
X11908588Y-38950411D02*
X12022874Y-39007553D01*
X12022874Y-39007553D02*
X12365731Y-39007553D01*
X12365731Y-39007553D02*
X12480017Y-38950411D01*
X12480017Y-38950411D02*
X12537160Y-38893268D01*
X12537160Y-38893268D02*
X12594302Y-38778982D01*
X12594302Y-38778982D02*
X12594302Y-38550411D01*
X12594302Y-38550411D02*
X12537160Y-38436125D01*
X12594302Y-40036125D02*
X11965731Y-40036125D01*
X11965731Y-40036125D02*
X11851445Y-39978982D01*
X11851445Y-39978982D02*
X11794302Y-39864696D01*
X11794302Y-39864696D02*
X11794302Y-39636125D01*
X11794302Y-39636125D02*
X11851445Y-39521839D01*
X12537160Y-40036125D02*
X12594302Y-39921839D01*
X12594302Y-39921839D02*
X12594302Y-39636125D01*
X12594302Y-39636125D02*
X12537160Y-39521839D01*
X12537160Y-39521839D02*
X12422874Y-39464696D01*
X12422874Y-39464696D02*
X12308588Y-39464696D01*
X12308588Y-39464696D02*
X12194302Y-39521839D01*
X12194302Y-39521839D02*
X12137160Y-39636125D01*
X12137160Y-39636125D02*
X12137160Y-39921839D01*
X12137160Y-39921839D02*
X12080017Y-40036125D01*
X11794302Y-40607553D02*
X12594302Y-40607553D01*
X11908588Y-40607553D02*
X11851445Y-40664696D01*
X11851445Y-40664696D02*
X11794302Y-40778981D01*
X11794302Y-40778981D02*
X11794302Y-40950410D01*
X11794302Y-40950410D02*
X11851445Y-41064696D01*
X11851445Y-41064696D02*
X11965731Y-41121839D01*
X11965731Y-41121839D02*
X12594302Y-41121839D01*
X12594302Y-42207553D02*
X11394302Y-42207553D01*
X12537160Y-42207553D02*
X12594302Y-42093267D01*
X12594302Y-42093267D02*
X12594302Y-41864695D01*
X12594302Y-41864695D02*
X12537160Y-41750410D01*
X12537160Y-41750410D02*
X12480017Y-41693267D01*
X12480017Y-41693267D02*
X12365731Y-41636124D01*
X12365731Y-41636124D02*
X12022874Y-41636124D01*
X12022874Y-41636124D02*
X11908588Y-41693267D01*
X11908588Y-41693267D02*
X11851445Y-41750410D01*
X11851445Y-41750410D02*
X11794302Y-41864695D01*
X11794302Y-41864695D02*
X11794302Y-42093267D01*
X11794302Y-42093267D02*
X11851445Y-42207553D01*
X12537160Y-43236124D02*
X12594302Y-43121838D01*
X12594302Y-43121838D02*
X12594302Y-42893267D01*
X12594302Y-42893267D02*
X12537160Y-42778981D01*
X12537160Y-42778981D02*
X12422874Y-42721838D01*
X12422874Y-42721838D02*
X11965731Y-42721838D01*
X11965731Y-42721838D02*
X11851445Y-42778981D01*
X11851445Y-42778981D02*
X11794302Y-42893267D01*
X11794302Y-42893267D02*
X11794302Y-43121838D01*
X11794302Y-43121838D02*
X11851445Y-43236124D01*
X11851445Y-43236124D02*
X11965731Y-43293267D01*
X11965731Y-43293267D02*
X12080017Y-43293267D01*
X12080017Y-43293267D02*
X12194302Y-42721838D01*
X7483872Y-20004302D02*
X6798158Y-20004302D01*
X7141015Y-21204302D02*
X7141015Y-20004302D01*
X6512443Y-20004302D02*
X5712443Y-21204302D01*
X5712443Y-20004302D02*
X6512443Y-21204302D01*
X7409586Y-19437160D02*
X7238158Y-19494302D01*
X7238158Y-19494302D02*
X6952443Y-19494302D01*
X6952443Y-19494302D02*
X6838158Y-19437160D01*
X6838158Y-19437160D02*
X6781015Y-19380017D01*
X6781015Y-19380017D02*
X6723872Y-19265731D01*
X6723872Y-19265731D02*
X6723872Y-19151445D01*
X6723872Y-19151445D02*
X6781015Y-19037160D01*
X6781015Y-19037160D02*
X6838158Y-18980017D01*
X6838158Y-18980017D02*
X6952443Y-18922874D01*
X6952443Y-18922874D02*
X7181015Y-18865731D01*
X7181015Y-18865731D02*
X7295300Y-18808588D01*
X7295300Y-18808588D02*
X7352443Y-18751445D01*
X7352443Y-18751445D02*
X7409586Y-18637160D01*
X7409586Y-18637160D02*
X7409586Y-18522874D01*
X7409586Y-18522874D02*
X7352443Y-18408588D01*
X7352443Y-18408588D02*
X7295300Y-18351445D01*
X7295300Y-18351445D02*
X7181015Y-18294302D01*
X7181015Y-18294302D02*
X6895300Y-18294302D01*
X6895300Y-18294302D02*
X6723872Y-18351445D01*
X5523872Y-19380017D02*
X5581015Y-19437160D01*
X5581015Y-19437160D02*
X5752443Y-19494302D01*
X5752443Y-19494302D02*
X5866729Y-19494302D01*
X5866729Y-19494302D02*
X6038158Y-19437160D01*
X6038158Y-19437160D02*
X6152443Y-19322874D01*
X6152443Y-19322874D02*
X6209586Y-19208588D01*
X6209586Y-19208588D02*
X6266729Y-18980017D01*
X6266729Y-18980017D02*
X6266729Y-18808588D01*
X6266729Y-18808588D02*
X6209586Y-18580017D01*
X6209586Y-18580017D02*
X6152443Y-18465731D01*
X6152443Y-18465731D02*
X6038158Y-18351445D01*
X6038158Y-18351445D02*
X5866729Y-18294302D01*
X5866729Y-18294302D02*
X5752443Y-18294302D01*
X5752443Y-18294302D02*
X5581015Y-18351445D01*
X5581015Y-18351445D02*
X5523872Y-18408588D01*
X5009586Y-19494302D02*
X5009586Y-18294302D01*
X4323872Y-19494302D02*
X4838158Y-18808588D01*
X4323872Y-18294302D02*
X5009586Y-18980017D01*
X11402443Y-49144302D02*
X11402443Y-47944302D01*
X11402443Y-47944302D02*
X11116729Y-47944302D01*
X11116729Y-47944302D02*
X10945300Y-48001445D01*
X10945300Y-48001445D02*
X10831015Y-48115731D01*
X10831015Y-48115731D02*
X10773872Y-48230017D01*
X10773872Y-48230017D02*
X10716729Y-48458588D01*
X10716729Y-48458588D02*
X10716729Y-48630017D01*
X10716729Y-48630017D02*
X10773872Y-48858588D01*
X10773872Y-48858588D02*
X10831015Y-48972874D01*
X10831015Y-48972874D02*
X10945300Y-49087160D01*
X10945300Y-49087160D02*
X11116729Y-49144302D01*
X11116729Y-49144302D02*
X11402443Y-49144302D01*
X10259586Y-48801445D02*
X9688158Y-48801445D01*
X10373872Y-49144302D02*
X9973872Y-47944302D01*
X9973872Y-47944302D02*
X9573872Y-49144302D01*
X9345301Y-47944302D02*
X8659587Y-47944302D01*
X9002444Y-49144302D02*
X9002444Y-47944302D01*
X8316729Y-48801445D02*
X7745301Y-48801445D01*
X8431015Y-49144302D02*
X8031015Y-47944302D01*
X8031015Y-47944302D02*
X7631015Y-49144302D01*
X6546729Y-22894302D02*
X6946729Y-22322874D01*
X7232443Y-22894302D02*
X7232443Y-21694302D01*
X7232443Y-21694302D02*
X6775300Y-21694302D01*
X6775300Y-21694302D02*
X6661015Y-21751445D01*
X6661015Y-21751445D02*
X6603872Y-21808588D01*
X6603872Y-21808588D02*
X6546729Y-21922874D01*
X6546729Y-21922874D02*
X6546729Y-22094302D01*
X6546729Y-22094302D02*
X6603872Y-22208588D01*
X6603872Y-22208588D02*
X6661015Y-22265731D01*
X6661015Y-22265731D02*
X6775300Y-22322874D01*
X6775300Y-22322874D02*
X7232443Y-22322874D01*
X6146729Y-21694302D02*
X5346729Y-22894302D01*
X5346729Y-21694302D02*
X6146729Y-22894302D01*
X39812443Y-48625731D02*
X39641015Y-48682874D01*
X39641015Y-48682874D02*
X39583872Y-48740017D01*
X39583872Y-48740017D02*
X39526729Y-48854302D01*
X39526729Y-48854302D02*
X39526729Y-49025731D01*
X39526729Y-49025731D02*
X39583872Y-49140017D01*
X39583872Y-49140017D02*
X39641015Y-49197160D01*
X39641015Y-49197160D02*
X39755300Y-49254302D01*
X39755300Y-49254302D02*
X40212443Y-49254302D01*
X40212443Y-49254302D02*
X40212443Y-48054302D01*
X40212443Y-48054302D02*
X39812443Y-48054302D01*
X39812443Y-48054302D02*
X39698158Y-48111445D01*
X39698158Y-48111445D02*
X39641015Y-48168588D01*
X39641015Y-48168588D02*
X39583872Y-48282874D01*
X39583872Y-48282874D02*
X39583872Y-48397160D01*
X39583872Y-48397160D02*
X39641015Y-48511445D01*
X39641015Y-48511445D02*
X39698158Y-48568588D01*
X39698158Y-48568588D02*
X39812443Y-48625731D01*
X39812443Y-48625731D02*
X40212443Y-48625731D01*
X38783872Y-48054302D02*
X38555300Y-48054302D01*
X38555300Y-48054302D02*
X38441015Y-48111445D01*
X38441015Y-48111445D02*
X38326729Y-48225731D01*
X38326729Y-48225731D02*
X38269586Y-48454302D01*
X38269586Y-48454302D02*
X38269586Y-48854302D01*
X38269586Y-48854302D02*
X38326729Y-49082874D01*
X38326729Y-49082874D02*
X38441015Y-49197160D01*
X38441015Y-49197160D02*
X38555300Y-49254302D01*
X38555300Y-49254302D02*
X38783872Y-49254302D01*
X38783872Y-49254302D02*
X38898158Y-49197160D01*
X38898158Y-49197160D02*
X39012443Y-49082874D01*
X39012443Y-49082874D02*
X39069586Y-48854302D01*
X39069586Y-48854302D02*
X39069586Y-48454302D01*
X39069586Y-48454302D02*
X39012443Y-48225731D01*
X39012443Y-48225731D02*
X38898158Y-48111445D01*
X38898158Y-48111445D02*
X38783872Y-48054302D01*
X37926729Y-48054302D02*
X37241015Y-48054302D01*
X37583872Y-49254302D02*
X37583872Y-48054302D01*
X4482443Y-22894302D02*
X4482443Y-21694302D01*
X4482443Y-21694302D02*
X4082443Y-22551445D01*
X4082443Y-22551445D02*
X3682443Y-21694302D01*
X3682443Y-21694302D02*
X3682443Y-22894302D01*
X3111014Y-22894302D02*
X3111014Y-21694302D01*
X2596728Y-22837160D02*
X2425300Y-22894302D01*
X2425300Y-22894302D02*
X2139585Y-22894302D01*
X2139585Y-22894302D02*
X2025300Y-22837160D01*
X2025300Y-22837160D02*
X1968157Y-22780017D01*
X1968157Y-22780017D02*
X1911014Y-22665731D01*
X1911014Y-22665731D02*
X1911014Y-22551445D01*
X1911014Y-22551445D02*
X1968157Y-22437160D01*
X1968157Y-22437160D02*
X2025300Y-22380017D01*
X2025300Y-22380017D02*
X2139585Y-22322874D01*
X2139585Y-22322874D02*
X2368157Y-22265731D01*
X2368157Y-22265731D02*
X2482442Y-22208588D01*
X2482442Y-22208588D02*
X2539585Y-22151445D01*
X2539585Y-22151445D02*
X2596728Y-22037160D01*
X2596728Y-22037160D02*
X2596728Y-21922874D01*
X2596728Y-21922874D02*
X2539585Y-21808588D01*
X2539585Y-21808588D02*
X2482442Y-21751445D01*
X2482442Y-21751445D02*
X2368157Y-21694302D01*
X2368157Y-21694302D02*
X2082442Y-21694302D01*
X2082442Y-21694302D02*
X1911014Y-21751445D01*
X1168157Y-21694302D02*
X939585Y-21694302D01*
X939585Y-21694302D02*
X825300Y-21751445D01*
X825300Y-21751445D02*
X711014Y-21865731D01*
X711014Y-21865731D02*
X653871Y-22094302D01*
X653871Y-22094302D02*
X653871Y-22494302D01*
X653871Y-22494302D02*
X711014Y-22722874D01*
X711014Y-22722874D02*
X825300Y-22837160D01*
X825300Y-22837160D02*
X939585Y-22894302D01*
X939585Y-22894302D02*
X1168157Y-22894302D01*
X1168157Y-22894302D02*
X1282443Y-22837160D01*
X1282443Y-22837160D02*
X1396728Y-22722874D01*
X1396728Y-22722874D02*
X1453871Y-22494302D01*
X1453871Y-22494302D02*
X1453871Y-22094302D01*
X1453871Y-22094302D02*
X1396728Y-21865731D01*
X1396728Y-21865731D02*
X1282443Y-21751445D01*
X1282443Y-21751445D02*
X1168157Y-21694302D01*
X5683872Y-47981445D02*
X5798158Y-47924302D01*
X5798158Y-47924302D02*
X5969586Y-47924302D01*
X5969586Y-47924302D02*
X6141015Y-47981445D01*
X6141015Y-47981445D02*
X6255300Y-48095731D01*
X6255300Y-48095731D02*
X6312443Y-48210017D01*
X6312443Y-48210017D02*
X6369586Y-48438588D01*
X6369586Y-48438588D02*
X6369586Y-48610017D01*
X6369586Y-48610017D02*
X6312443Y-48838588D01*
X6312443Y-48838588D02*
X6255300Y-48952874D01*
X6255300Y-48952874D02*
X6141015Y-49067160D01*
X6141015Y-49067160D02*
X5969586Y-49124302D01*
X5969586Y-49124302D02*
X5855300Y-49124302D01*
X5855300Y-49124302D02*
X5683872Y-49067160D01*
X5683872Y-49067160D02*
X5626729Y-49010017D01*
X5626729Y-49010017D02*
X5626729Y-48610017D01*
X5626729Y-48610017D02*
X5855300Y-48610017D01*
X5112443Y-49124302D02*
X5112443Y-47924302D01*
X5112443Y-47924302D02*
X4426729Y-49124302D01*
X4426729Y-49124302D02*
X4426729Y-47924302D01*
X3855300Y-49124302D02*
X3855300Y-47924302D01*
X3855300Y-47924302D02*
X3569586Y-47924302D01*
X3569586Y-47924302D02*
X3398157Y-47981445D01*
X3398157Y-47981445D02*
X3283872Y-48095731D01*
X3283872Y-48095731D02*
X3226729Y-48210017D01*
X3226729Y-48210017D02*
X3169586Y-48438588D01*
X3169586Y-48438588D02*
X3169586Y-48610017D01*
X3169586Y-48610017D02*
X3226729Y-48838588D01*
X3226729Y-48838588D02*
X3283872Y-48952874D01*
X3283872Y-48952874D02*
X3398157Y-49067160D01*
X3398157Y-49067160D02*
X3569586Y-49124302D01*
X3569586Y-49124302D02*
X3855300Y-49124302D01*
X6516729Y-17744302D02*
X6916729Y-17172874D01*
X7202443Y-17744302D02*
X7202443Y-16544302D01*
X7202443Y-16544302D02*
X6745300Y-16544302D01*
X6745300Y-16544302D02*
X6631015Y-16601445D01*
X6631015Y-16601445D02*
X6573872Y-16658588D01*
X6573872Y-16658588D02*
X6516729Y-16772874D01*
X6516729Y-16772874D02*
X6516729Y-16944302D01*
X6516729Y-16944302D02*
X6573872Y-17058588D01*
X6573872Y-17058588D02*
X6631015Y-17115731D01*
X6631015Y-17115731D02*
X6745300Y-17172874D01*
X6745300Y-17172874D02*
X7202443Y-17172874D01*
X6059586Y-17687160D02*
X5888158Y-17744302D01*
X5888158Y-17744302D02*
X5602443Y-17744302D01*
X5602443Y-17744302D02*
X5488158Y-17687160D01*
X5488158Y-17687160D02*
X5431015Y-17630017D01*
X5431015Y-17630017D02*
X5373872Y-17515731D01*
X5373872Y-17515731D02*
X5373872Y-17401445D01*
X5373872Y-17401445D02*
X5431015Y-17287160D01*
X5431015Y-17287160D02*
X5488158Y-17230017D01*
X5488158Y-17230017D02*
X5602443Y-17172874D01*
X5602443Y-17172874D02*
X5831015Y-17115731D01*
X5831015Y-17115731D02*
X5945300Y-17058588D01*
X5945300Y-17058588D02*
X6002443Y-17001445D01*
X6002443Y-17001445D02*
X6059586Y-16887160D01*
X6059586Y-16887160D02*
X6059586Y-16772874D01*
X6059586Y-16772874D02*
X6002443Y-16658588D01*
X6002443Y-16658588D02*
X5945300Y-16601445D01*
X5945300Y-16601445D02*
X5831015Y-16544302D01*
X5831015Y-16544302D02*
X5545300Y-16544302D01*
X5545300Y-16544302D02*
X5373872Y-16601445D01*
X5031015Y-16544302D02*
X4345301Y-16544302D01*
X4688158Y-17744302D02*
X4688158Y-16544302D01*
X16302443Y-48667160D02*
X15388158Y-48667160D01*
X15845300Y-49124302D02*
X15845300Y-48210017D01*
X14245301Y-47924302D02*
X14816729Y-47924302D01*
X14816729Y-47924302D02*
X14873872Y-48495731D01*
X14873872Y-48495731D02*
X14816729Y-48438588D01*
X14816729Y-48438588D02*
X14702444Y-48381445D01*
X14702444Y-48381445D02*
X14416729Y-48381445D01*
X14416729Y-48381445D02*
X14302444Y-48438588D01*
X14302444Y-48438588D02*
X14245301Y-48495731D01*
X14245301Y-48495731D02*
X14188158Y-48610017D01*
X14188158Y-48610017D02*
X14188158Y-48895731D01*
X14188158Y-48895731D02*
X14245301Y-49010017D01*
X14245301Y-49010017D02*
X14302444Y-49067160D01*
X14302444Y-49067160D02*
X14416729Y-49124302D01*
X14416729Y-49124302D02*
X14702444Y-49124302D01*
X14702444Y-49124302D02*
X14816729Y-49067160D01*
X14816729Y-49067160D02*
X14873872Y-49010017D01*
X13845301Y-47924302D02*
X13445301Y-49124302D01*
X13445301Y-49124302D02*
X13045301Y-47924302D01*
X4492443Y-21204302D02*
X4492443Y-20004302D01*
X4492443Y-20004302D02*
X4092443Y-20861445D01*
X4092443Y-20861445D02*
X3692443Y-20004302D01*
X3692443Y-20004302D02*
X3692443Y-21204302D01*
X2892443Y-20004302D02*
X2663871Y-20004302D01*
X2663871Y-20004302D02*
X2549586Y-20061445D01*
X2549586Y-20061445D02*
X2435300Y-20175731D01*
X2435300Y-20175731D02*
X2378157Y-20404302D01*
X2378157Y-20404302D02*
X2378157Y-20804302D01*
X2378157Y-20804302D02*
X2435300Y-21032874D01*
X2435300Y-21032874D02*
X2549586Y-21147160D01*
X2549586Y-21147160D02*
X2663871Y-21204302D01*
X2663871Y-21204302D02*
X2892443Y-21204302D01*
X2892443Y-21204302D02*
X3006729Y-21147160D01*
X3006729Y-21147160D02*
X3121014Y-21032874D01*
X3121014Y-21032874D02*
X3178157Y-20804302D01*
X3178157Y-20804302D02*
X3178157Y-20404302D01*
X3178157Y-20404302D02*
X3121014Y-20175731D01*
X3121014Y-20175731D02*
X3006729Y-20061445D01*
X3006729Y-20061445D02*
X2892443Y-20004302D01*
X1921014Y-21147160D02*
X1749586Y-21204302D01*
X1749586Y-21204302D02*
X1463871Y-21204302D01*
X1463871Y-21204302D02*
X1349586Y-21147160D01*
X1349586Y-21147160D02*
X1292443Y-21090017D01*
X1292443Y-21090017D02*
X1235300Y-20975731D01*
X1235300Y-20975731D02*
X1235300Y-20861445D01*
X1235300Y-20861445D02*
X1292443Y-20747160D01*
X1292443Y-20747160D02*
X1349586Y-20690017D01*
X1349586Y-20690017D02*
X1463871Y-20632874D01*
X1463871Y-20632874D02*
X1692443Y-20575731D01*
X1692443Y-20575731D02*
X1806728Y-20518588D01*
X1806728Y-20518588D02*
X1863871Y-20461445D01*
X1863871Y-20461445D02*
X1921014Y-20347160D01*
X1921014Y-20347160D02*
X1921014Y-20232874D01*
X1921014Y-20232874D02*
X1863871Y-20118588D01*
X1863871Y-20118588D02*
X1806728Y-20061445D01*
X1806728Y-20061445D02*
X1692443Y-20004302D01*
X1692443Y-20004302D02*
X1406728Y-20004302D01*
X1406728Y-20004302D02*
X1235300Y-20061445D01*
X721014Y-21204302D02*
X721014Y-20004302D01*
M02*
